<?xml version="1.0" encoding="UTF-8"?>
<svg width="240px" height="360px" viewBox="0 0 240 360" version="1.1" xmlns="http://www.w3.org/2000/svg" xmlns:xlink="http://www.w3.org/1999/xlink">
    <!-- Generator: Sketch 52.5 (67469) - http://www.bohemiancoding.com/sketch -->
    <title>card6</title>
    <desc>Created with Sketch.</desc>
    <g id="card6" stroke="none" stroke-width="1" fill="none" fill-rule="evenodd">
        <rect fill="#FFFFFF" x="0" y="0" width="240" height="360"></rect>
        <g id="Group" transform="translate(49.000000, 60.000000)">
            <g transform="translate(64.086022, 0.000000)">
                <path d="M0.211182796,4.01204301 C0.221505376,4.06666667 0.229677419,4.12860215 0.238709677,4.17462366 C0.715698925,6.84086022 2.27655914,21.1191398 2.08602151,26.0348387 C1.89419355,30.9729032 1.44387097,39.944086 1.25247312,44.8825806 C1.06107527,49.8210753 5.33204301,55.0064516 8.95569892,56.316129 C12.5797849,57.6258065 13.8769892,57.1845161 18.0443011,55.7316129 C22.2111828,54.2787097 32.2184946,46.7427957 36.4365591,43.2597849 C40.6546237,39.7767742 54.812043,31.4649462 54.812043,31.4649462 C54.812043,31.4649462 55.2765591,31.2064516 55.4825806,31.0658065 C56.0898925,30.6503226 56.6154839,29.4060215 56.6116129,28.4507527 C56.6073118,27.495914 56.3002151,26.775914 55.347957,26.1724731 C54.5105376,25.6417204 53.0296774,25.6451613 52.0787097,26.0468817 C52.1101075,25.947957 52.1380645,25.848172 52.1595699,25.7475269 C52.2511828,25.3251613 52.2498925,23.2296774 51.0477419,22.655914 C50.0701075,22.1892473 49.1978495,22.1969892 48.4322581,22.5548387 C48.4529032,22.4068817 48.4662366,22.2606452 48.4658065,22.1212903 C48.4615054,21.1664516 48.1548387,20.4464516 47.2025806,19.8434409 C46.2855914,19.2619355 44.603871,19.3251613 43.6847312,19.8468817 C43.6843011,19.083871 43.4855914,17.7324731 42.5647312,17.2929032 C41.3909677,16.7329032 40.3707527,16.8627957 39.5122581,17.4795699 C39.5548387,17.1686022 39.5535484,16.8584946 39.5002151,16.5664516 C39.3096774,15.5212903 38.147957,14.1643011 37.0563441,13.8855914 C35.9643011,13.6064516 35.2296774,13.8765591 34.532043,14.5290323 C34.396129,14.655914 34.2692473,14.8094624 34.1483871,14.9729032 C34.1982796,14.5346237 34.1982796,14.1109677 34.1509677,13.751828 C34.0116129,12.7023656 33.4064516,11.8692473 32.1926882,11.3987097 C31.4004301,11.092043 30.492043,11.5832258 29.8890323,12.0584946 C29.7853763,11.2722581 29.4180645,10.0030108 28.4662366,9.67397849 C27.2073118,9.23913978 26.1836559,9.48946237 25.3810753,10.2172043 C25.3492473,10.2460215 25.3174194,10.2821505 25.2851613,10.3135484 C25.3101075,10.0645161 25.3131183,9.81892473 25.2868817,9.59311828 C25.1750538,8.64430108 24.7896774,7.96344086 23.775914,7.47096774 C22.8464516,7.01935484 21.2950538,7.22623656 20.4098925,7.7827957 C20.2941935,7.0111828 19.9298925,5.84473118 19.031828,5.53376344 C17.8021505,5.1083871 16.8012903,5.35354839 16.0167742,6.06451613 C15.9974194,6.08172043 15.9784946,6.10408602 15.9591398,6.12215054 C15.9406452,5.93763441 15.911828,5.75655914 15.8602151,5.58537634 C15.5531183,4.56860215 14.2468817,3.35053763 13.1303226,3.19569892 C12.0137634,3.04086022 11.3148387,3.39225806 10.6946237,4.11870968 C10.6834409,4.1316129 10.6735484,4.14795699 10.6627957,4.16172043 C10.6443011,4.05419355 10.6253763,3.94666667 10.6008602,3.84860215 C10.3445161,2.82107527 9.64989247,2.06150538 8.39053763,1.73032258 C7.5544086,1.51053763 6.6911828,2.12602151 6.14623656,2.67354839 C5.79182796,1.67655914 4.53806452,0.52688172 3.45505376,0.377204301 C2.33849462,0.222795699 1.63913978,0.573763441 1.01892473,1.30021505 C0.400860215,2.02623656 0.0688172043,3.29032258 0.211182796,4.01204301 Z" id="Shape" fill="#04586B" fill-rule="nonzero"></path>
                <path d="M1.50021505,39.1453763 C1.50021505,39.1453763 3.88344086,39.3913978 6.28,39.8073118 C8.59096774,40.208172 10.1122581,40.6868817 10.5548387,40.7793548 C10.5337634,40.8417204 10.5225806,40.8778495 10.5225806,40.8778495 C10.5225806,40.8778495 13.4210753,41.9410753 14.3217204,42.3565591 C14.9462366,42.6447312 16.7651613,43.5875269 17.6464516,44.0468817 C17.6309677,44.0795699 17.6090323,44.1105376 17.5952688,44.1432258 C17.5604301,44.224086 19.9952688,45.8825806 21.9862366,47.8262366 C23.7393548,49.5376344 25.1827957,51.6567742 25.1827957,51.6567742 C25.1827957,51.6567742 28.5569892,49.4941935 27.8619355,45.968172 C27.3664516,43.4550538 25.6425806,42.0404301 24.163871,41.5333333 C22.848172,41.0821505 20.7346237,41.5466667 19.2266667,42.471828 C19.88,41.1470968 20.4752688,39.3578495 19.8636559,37.9901075 C19.0365591,36.1419355 16.7935484,35.212043 15.3212903,35.4941935 C13.3470968,35.8726882 12.0301075,37.6864516 11.2825806,39.1053763 C11.7939785,37.1729032 11.8443011,34.6787097 9.6288172,32.7698925 C7.83053763,31.2202151 5.52860215,31.3858065 3.5711828,33.0387097 C1.61505376,34.6907527 1.50021505,39.1453763 1.50021505,39.1453763 Z" id="Path" fill="#FFFFFF"></path>
                <g transform="translate(30.107527, 13.333333)" fill="#FFFFFF" id="Path">
                    <path d="M18.1015054,12.4984946 C17.867957,12.0197849 18.0653763,11.6275269 18.4619355,11.2086022 C18.8696774,10.7784946 19.4868817,11.0950538 19.8468817,11.3703226 C20.2064516,11.6430108 20.28,12.6017204 19.7062366,13.055914 C19.24,13.4245161 18.4253763,13.16 18.1015054,12.4984946 Z"></path>
                    <path d="M14.3896774,9.47956989 C14.1565591,9.00086022 14.3539785,8.60860215 14.7505376,8.18967742 C15.1578495,7.75956989 15.7754839,8.07612903 16.1354839,8.35139785 C16.4950538,8.62408602 16.5686022,9.5827957 15.9948387,10.0369892 C15.5286022,10.4060215 14.7139785,10.1410753 14.3896774,9.47956989 Z"></path>
                    <path d="M9.66064516,7.07139785 C9.42752688,6.59268817 9.62494624,6.20043011 10.0219355,5.78193548 C10.4292473,5.35182796 11.0468817,5.6683871 11.4064516,5.94322581 C11.7660215,6.21591398 11.8395699,7.17462366 11.2658065,7.6288172 C10.7995699,7.99784946 9.98494624,7.73290323 9.66064516,7.07139785 Z"></path>
                    <path d="M5.44473118,3.97591398 C5.2116129,3.4972043 5.40903226,3.10494624 5.8055914,2.68602151 C6.21290323,2.25591398 6.83053763,2.57247312 7.19053763,2.84774194 C7.55010753,3.12043011 7.62365591,4.07870968 7.04989247,4.53333333 C6.58408602,4.90193548 5.76903226,4.63741935 5.44473118,3.97591398 Z"></path>
                    <path d="M0.371612903,1.65462366 C0.138494624,1.17591398 0.335913978,0.783655914 0.732473118,0.364731183 C1.13978495,-0.0653763441 1.75741935,0.251182796 2.11741935,0.526451613 C2.47698925,0.799139785 2.55053763,1.75741935 1.97677419,2.21204301 C1.51096774,2.58107527 0.695483871,2.31612903 0.371612903,1.65462366 Z"></path>
                </g>
                <path d="M7.0916129,5.48989247 C6.80602151,5.04086022 6.95784946,4.6288172 7.30537634,4.16817204 C7.66193548,3.69505376 8.31096774,3.94021505 8.69935484,4.17333333 C9.08688172,4.40387097 9.26795699,5.34795699 8.7488172,5.86408602 C8.32731183,6.28215054 7.48817204,6.11096774 7.0916129,5.48989247 Z" id="Path" fill="#FFFFFF"></path>
                <path d="M21.4223656,10.7255914 C21.1367742,10.2765591 21.2886022,9.86451613 21.6356989,9.40387097 C21.9926882,8.93075269 22.6412903,9.17591398 23.0301075,9.40903226 C23.4176344,9.63956989 23.5982796,10.5836559 23.0791398,11.0997849 C22.6580645,11.5178495 21.8184946,11.3466667 21.4223656,10.7255914 Z" id="Path" fill="#FFFFFF"></path>
                <path d="M24.4529032,48.5522581 C24.4529032,48.5522581 25.8619355,46.9866667 25.7922581,45.707957 C25.7225806,44.4292473 24.8176344,43.5630108 24.0511828,43.4103226 C23.2847312,43.2580645 21.1866667,43.8941935 20.7737634,44.8498925 C20.7565591,44.8903226 21.8589247,45.6653763 22.8546237,46.6369892 C23.7311828,47.4924731 24.4529032,48.5522581 24.4529032,48.5522581 Z" id="Path" fill="#E2231A"></path>
                <path d="M4.00731183,37.7053763 C4.00731183,37.7053763 3.96,35.4275269 4.93849462,34.6008602 C5.91698925,33.7746237 7.06795699,33.692043 7.96731183,34.4666667 C9.43913978,35.7350538 8.91096774,37.5208602 8.49849462,38.4765591 C8.48129032,38.5169892 7.66365591,38.2232258 6.29247312,37.9853763 C5.09462366,37.7776344 4.00731183,37.7053763 4.00731183,37.7053763 Z" id="Path" fill="#E2231A"></path>
                <path d="M16.6421505,41.88 C16.6421505,41.88 18.3286022,40.0378495 17.7763441,38.8034409 C17.3630108,37.8795699 16.2417204,37.4146237 15.5053763,37.5556989 C13.836129,37.8756989 13.168172,40.2774194 13.168172,40.2774194 C13.168172,40.2774194 14.5552688,40.7789247 15.0051613,40.9866667 C15.4236559,41.1793548 16.6421505,41.88 16.6421505,41.88 Z" id="Path" fill="#E2231A"></path>
                <path d="M14.6262366,42.2374194 C14.8791398,42.3595699 15.1311828,42.4864516 15.3819355,42.6180645 C21.7182796,45.9423656 25.1630108,51.3754839 25.3062366,51.6055914 L24.2176344,52.2864516 C24.184086,52.2331183 20.8034409,46.9122581 14.7849462,43.7556989 C8.70795699,40.5698925 1.52387097,40.2116129 1.45204301,40.208172 L1.50967742,38.9251613 C1.80258065,38.9380645 8.4916129,39.2705376 14.6262366,42.2374194 Z" id="Path" fill="#002E44"></path>
                <path d="M20.7987097,52.2490323 C20.5905376,51.8219355 20.7668817,51.471828 21.1208602,51.0984946 C21.4843011,50.7144086 22.0352688,50.9974194 22.356129,51.2425806 C22.6769892,51.4855914 22.7427957,52.3410753 22.2309677,52.7466667 C21.8154839,53.0756989 21.088172,52.8395699 20.7987097,52.2490323 Z" id="Path" fill="#FFFFFF"></path>
                <path d="M52.6150538,29.0606452 C52.3815054,28.5823656 52.5789247,28.1896774 52.975914,27.7711828 C53.3832258,27.3410753 54.0008602,27.6576344 54.3608602,27.9324731 C54.7204301,28.2051613 54.7939785,29.163871 54.2197849,29.6180645 C53.7544086,29.9870968 52.9389247,29.7221505 52.6150538,29.0606452 Z" id="Path" fill="#FFFFFF"></path>
                <path d="M26.0030108,13.147957 C25.7174194,12.6989247 25.8692473,12.2868817 26.2163441,11.8262366 C26.5729032,11.3531183 27.2219355,11.5982796 27.6103226,11.8313978 C27.9978495,12.0619355 28.1789247,13.0060215 27.6597849,13.5221505 C27.2387097,13.9406452 26.3991398,13.7690323 26.0030108,13.147957 Z" id="Path" fill="#FFFFFF"></path>
                <path d="M16.6034409,8.94021505 C16.3182796,8.4911828 16.4696774,8.07913978 16.8172043,7.61806452 C17.1737634,7.14494624 17.8227957,7.39053763 18.2111828,7.62322581 C18.5987097,7.85376344 18.7797849,8.79784946 18.2606452,9.31397849 C17.8395699,9.73247312 16.9995699,9.56086022 16.6034409,8.94021505 Z" id="Path" fill="#FFFFFF"></path>
                <path d="M12.0210753,6.76688172 C11.7354839,6.31784946 11.8873118,5.90580645 12.2348387,5.44516129 C12.5913978,4.97204301 13.2404301,5.2172043 13.6288172,5.45032258 C14.0167742,5.68086022 14.1974194,6.62494624 13.6782796,7.14107527 C13.2567742,7.55956989 12.4176344,7.38795699 12.0210753,6.76688172 Z" id="Path" fill="#FFFFFF"></path>
                <path d="M2.34623656,3.94795699 C2.06064516,3.49892473 2.21247312,3.08688172 2.55956989,2.62623656 C2.91655914,2.15311828 3.5655914,2.39827957 3.95397849,2.63139785 C4.34150538,2.86193548 4.52258065,3.80602151 4.00301075,4.32215054 C3.58193548,4.74021505 2.74236559,4.56903226 2.34623656,3.94795699 Z" id="Path" fill="#FFFFFF"></path>
                <path d="M19.071828,12.9944086 C18.9445161,12.7333333 19.0524731,12.5187097 19.2692473,12.2903226 C19.4916129,12.0554839 19.8288172,12.2283871 20.0253763,12.3784946 C20.2219355,12.5273118 20.2619355,13.0507527 19.9483871,13.2989247 C19.6937634,13.5006452 19.2490323,13.356129 19.071828,12.9944086 Z" id="Path" fill="#FFFFFF"></path>
                <g transform="translate(12.903226, 12.903226)" id="Path">
                    <g transform="translate(1.720430, 0.000000)">
                        <path d="M6.67225806,0.415913978 C6.67225806,0.415913978 8.77806452,5.47526882 7.60774194,8.18709677 C6.43655914,10.8993548 0.876129032,15.6795699 0.876129032,15.6795699 C0.876129032,15.6795699 -0.659354839,9.5144086 0.400860215,6.19483871 C1.46021505,2.87569892 6.67225806,0.415913978 6.67225806,0.415913978 Z" fill="#FFFFFF"></path>
                        <path d="M5.15870968,4.20430108 C5.15870968,4.20430108 6.21204301,6.73376344 5.62666667,8.08989247 C5.04129032,9.44602151 2.26064516,11.836129 2.26064516,11.836129 C2.26064516,11.836129 1.49333333,8.75354839 2.0227957,7.09376344 C2.55311828,5.4344086 5.15870968,4.20430108 5.15870968,4.20430108 Z" fill="#E2231A"></path>
                    </g>
                    <path d="M4.20258065,1.73978495 C4.07483871,1.47827957 4.1827957,1.26408602 4.39913978,1.03526882 C4.62193548,0.800430108 4.95913978,0.973333333 5.15569892,1.12387097 C5.35182796,1.27268817 5.39225806,1.79612903 5.07870968,2.04430108 C4.82451613,2.24602151 4.37978495,2.10107527 4.20258065,1.73978495 Z" fill="#FFFFFF"></path>
                    <path d="M2.81376344,2.87741935 C2.68645161,2.61634409 2.79397849,2.40215054 3.01075269,2.17333333 C3.23354839,1.93849462 3.57032258,2.11139785 3.76688172,2.26150538 C3.96344086,2.41032258 4.00387097,2.93376344 3.69032258,3.18193548 C3.43569892,3.38365591 2.99053763,3.23913978 2.81376344,2.87741935 Z" fill="#FFFFFF"></path>
                    <path d="M1.57505376,4.48903226 C1.44774194,4.22752688 1.55526882,4.01333333 1.77204301,3.78451613 C1.99483871,3.54967742 2.33204301,3.72258065 2.52860215,3.87311828 C2.72473118,4.02193548 2.76516129,4.54537634 2.4511828,4.79354839 C2.19698925,4.99483871 1.75182796,4.84989247 1.57505376,4.48903226 Z" fill="#FFFFFF"></path>
                    <path d="M0.716989247,6.50924731 C0.589677419,6.24817204 0.697204301,6.03397849 0.913978495,5.80516129 C1.13677419,5.57032258 1.47354839,5.74322581 1.67010753,5.89333333 C1.86666667,6.04215054 1.90709677,6.5655914 1.59311828,6.81376344 C1.33892473,7.01505376 0.893763441,6.87053763 0.716989247,6.50924731 Z" fill="#FFFFFF"></path>
                    <path d="M0.303225806,8.70666667 C0.175483871,8.4455914 0.28344086,8.23096774 0.500215054,8.00215054 C0.723010753,7.76731183 1.06021505,7.94021505 1.25677419,8.09075269 C1.45290323,8.23956989 1.49290323,8.76301075 1.17935484,9.0111828 C0.92516129,9.21247312 0.48,9.06795699 0.303225806,8.70666667 Z" fill="#FFFFFF"></path>
                    <path d="M0.222795699,10.84 C0.095483871,10.5789247 0.20344086,10.3643011 0.419784946,10.1354839 C0.642580645,9.90064516 0.979784946,10.0735484 1.17634409,10.224086 C1.37247312,10.3729032 1.41290323,10.8963441 1.09892473,11.1445161 C0.844731183,11.3458065 0.4,11.2012903 0.222795699,10.84 Z" fill="#FFFFFF"></path>
                    <path d="M0.530752688,13.0911828 C0.40344086,12.8296774 0.511397849,12.6154839 0.728172043,12.3866667 C0.950967742,12.151828 1.28774194,12.3247312 1.48430108,12.4748387 C1.68043011,12.624086 1.72086022,13.1470968 1.40731183,13.3956989 C1.15354839,13.5965591 0.707956989,13.452043 0.530752688,13.0911828 Z" fill="#FFFFFF"></path>
                    <path d="M0.904086022,14.9122581 C0.776774194,14.6507527 0.884731183,14.4365591 1.10150538,14.2077419 C1.32430108,13.9729032 1.66107527,14.1458065 1.85763441,14.2963441 C2.05419355,14.4451613 2.09419355,14.9686022 1.78064516,15.2167742 C1.52645161,15.4184946 1.08129032,15.2735484 0.904086022,14.9122581 Z" fill="#FFFFFF"></path>
                    <path d="M1.56086022,16.7995699 C1.43354839,16.5384946 1.54150538,16.323871 1.75827957,16.0954839 C1.98064516,15.8606452 2.31784946,16.0335484 2.5144086,16.1836559 C2.71053763,16.3324731 2.75096774,16.855914 2.43741935,17.104086 C2.1827957,17.3053763 1.73806452,17.1608602 1.56086022,16.7995699 Z" fill="#FFFFFF"></path>
                    <path d="M3.33419355,16.0873118 C3.20645161,15.8262366 3.3144086,15.6116129 3.53075269,15.3827957 C3.75354839,15.147957 4.09075269,15.3208602 4.28731183,15.4713978 C4.48344086,15.6202151 4.52387097,16.1436559 4.21032258,16.391828 C3.95569892,16.5935484 3.51096774,16.4490323 3.33419355,16.0873118 Z" fill="#FFFFFF"></path>
                    <path d="M4.67053763,14.8184946 C4.54322581,14.5569892 4.6511828,14.3427957 4.86795699,14.1139785 C5.09075269,13.8791398 5.42752688,14.052043 5.62408602,14.2025806 C5.82064516,14.3513978 5.86064516,14.8748387 5.54709677,15.1230108 C5.29333333,15.3243011 4.84774194,15.1793548 4.67053763,14.8184946 Z" fill="#FFFFFF"></path>
                    <path d="M5.94451613,13.5264516 C5.8172043,13.2653763 5.92473118,13.0511828 6.14150538,12.8223656 C6.36430108,12.5875269 6.70150538,12.7604301 6.89806452,12.9105376 C7.09419355,13.0593548 7.13462366,13.5827957 6.82107527,13.8309677 C6.56688172,14.0322581 6.12129032,13.888172 5.94451613,13.5264516 Z" fill="#FFFFFF"></path>
                    <path d="M7.19784946,12.0412903 C7.07053763,11.7797849 7.17806452,11.5655914 7.39483871,11.3367742 C7.61763441,11.1019355 7.95483871,11.2748387 8.15139785,11.4253763 C8.34752688,11.5741935 8.38795699,12.0976344 8.0744086,12.3458065 C7.82021505,12.5470968 7.37505376,12.4025806 7.19784946,12.0412903 Z" fill="#FFFFFF"></path>
                    <path d="M8.52086022,10.6486022 C8.39311828,10.3875269 8.50107527,10.1729032 8.71784946,9.94408602 C8.94064516,9.70924731 9.27741935,9.88215054 9.47397849,10.0326882 C9.67053763,10.1815054 9.71053763,10.7049462 9.39698925,10.9531183 C9.1427957,11.1544086 8.69763441,11.0098925 8.52086022,10.6486022 Z" fill="#FFFFFF"></path>
                    <path d="M9.52860215,9.05548387 C9.40129032,8.79397849 9.5088172,8.57978495 9.7255914,8.35096774 C9.9483871,8.11612903 10.2855914,8.28903226 10.4821505,8.43956989 C10.6782796,8.5883871 10.7187097,9.11182796 10.4047312,9.36 C10.1509677,9.56129032 9.70537634,9.41677419 9.52860215,9.05548387 Z" fill="#FFFFFF"></path>
                    <path d="M10.2215054,6.92645161 C10.0941935,6.66537634 10.2017204,6.4511828 10.4184946,6.22236559 C10.6412903,5.98752688 10.9780645,6.16043011 11.1746237,6.31053763 C11.3711828,6.45935484 11.4116129,6.9827957 11.0980645,7.23096774 C10.8434409,7.43268817 10.3982796,7.28817204 10.2215054,6.92645161 Z" fill="#FFFFFF"></path>
                    <path d="M10.2645161,4.84989247 C10.1367742,4.5883871 10.2447312,4.37419355 10.4615054,4.14580645 C10.6843011,3.91096774 11.0215054,4.08344086 11.2176344,4.23397849 C11.4141935,4.3827957 11.4541935,4.90623656 11.1406452,5.1544086 C10.8868817,5.35569892 10.4412903,5.2111828 10.2645161,4.84989247 Z" fill="#FFFFFF"></path>
                    <path d="M9.73978495,2.84215054 C9.61204301,2.58107527 9.71956989,2.36645161 9.93634409,2.13806452 C10.1591398,1.90322581 10.4963441,2.07612903 10.6929032,2.22623656 C10.8890323,2.37505376 10.9294624,2.89849462 10.615914,3.14666667 C10.3612903,3.34795699 9.91655914,3.20344086 9.73978495,2.84215054 Z" fill="#FFFFFF"></path>
                    <path d="M9.23311828,0.934623656 C9.10580645,0.673548387 9.21376344,0.458924731 9.43010753,0.230537634 C9.65290323,-0.00430107527 9.99010753,0.168602151 10.1866667,0.318709677 C10.3827957,0.467526882 10.4232258,0.990967742 10.1096774,1.23913978 C9.85505376,1.44086022 9.41032258,1.29634409 9.23311828,0.934623656 Z" fill="#FFFFFF"></path>
                </g>
                <g transform="translate(22.795699, 18.064516)" id="Path">
                    <g transform="translate(1.290323, 1.290323)">
                        <path d="M9.55569892,0.00215053763 C9.55569892,0.00215053763 10.3806452,6.84043011 7.89763441,10.0008602 C6.27139785,12.0701075 3.07096774,14.4572043 0.851182796,14.9815054 C0.660645161,15.0266667 -0.421505376,9.28817204 1.4516129,6.15870968 C4.27354839,1.44344086 9.55569892,0.00215053763 9.55569892,0.00215053763 Z" fill="#FFFFFF"></path>
                        <path d="M7.29591398,3.71182796 C7.29591398,3.71182796 7.7083871,7.1311828 6.46666667,8.71096774 C5.65333333,9.74537634 4.05376344,10.9393548 2.94365591,11.2012903 C2.84817204,11.224086 2.30752688,8.35483871 3.24387097,6.78967742 C4.65462366,4.43225806 7.29591398,3.71182796 7.29591398,3.71182796 Z" fill="#E2231A"></path>
                    </g>
                    <path d="M8.16602151,1.06580645 C8.03870968,0.804301075 8.14666667,0.590107527 8.36301075,0.361290323 C8.58580645,0.126451613 8.92301075,0.299354839 9.11956989,0.449462366 C9.31569892,0.598709677 9.35612903,1.12172043 9.04258065,1.37032258 C8.7883871,1.5716129 8.34322581,1.42666667 8.16602151,1.06580645 Z" fill="#FFFFFF"></path>
                    <path d="M6.42365591,1.9027957 C6.29634409,1.64129032 6.40387097,1.42709677 6.62064516,1.19827957 C6.84344086,0.96344086 7.18064516,1.13634409 7.3772043,1.28645161 C7.57333333,1.43569892 7.61376344,1.95870968 7.30021505,2.20731183 C7.0455914,2.40860215 6.60043011,2.26408602 6.42365591,1.9027957 Z" fill="#FFFFFF"></path>
                    <path d="M4.56258065,3.17419355 C4.43526882,2.91268817 4.5427957,2.69849462 4.75956989,2.46967742 C4.98236559,2.23483871 5.31913978,2.40774194 5.51569892,2.55827957 C5.71225806,2.70709677 5.75268817,3.23053763 5.43870968,3.47870968 C5.18494624,3.68043011 4.73978495,3.53548387 4.56258065,3.17419355 Z" fill="#FFFFFF"></path>
                    <path d="M3.20387097,4.64172043 C3.07655914,4.38021505 3.18408602,4.16602151 3.40086022,3.9372043 C3.62365591,3.70236559 3.96086022,3.87526882 4.15741935,4.02580645 C4.35354839,4.17462366 4.39397849,4.69806452 4.08,4.94623656 C3.82623656,5.14752688 3.38107527,5.00301075 3.20387097,4.64172043 Z" fill="#FFFFFF"></path>
                    <path d="M1.94623656,6.4227957 C1.81892473,6.16129032 1.92645161,5.94709677 2.14322581,5.71827957 C2.36602151,5.48344086 2.70322581,5.65634409 2.89978495,5.80688172 C3.09591398,5.95569892 3.13634409,6.47913978 2.8227957,6.72731183 C2.56860215,6.92860215 2.12387097,6.78365591 1.94623656,6.4227957 Z" fill="#FFFFFF"></path>
                    <path d="M0.902795699,8.33505376 C0.775483871,8.07354839 0.883010753,7.85935484 1.09978495,7.63053763 C1.32258065,7.39569892 1.65978495,7.56860215 1.85634409,7.71913978 C2.05247312,7.86795699 2.09290323,8.39139785 1.77935484,8.63956989 C1.52473118,8.84129032 1.07956989,8.69634409 0.902795699,8.33505376 Z" fill="#FFFFFF"></path>
                    <path d="M0.345806452,10.3470968 C0.218494624,10.0860215 0.326021505,9.87139785 0.542795699,9.64301075 C0.765591398,9.40817204 1.1027957,9.58107527 1.29935484,9.7311828 C1.49548387,9.88 1.53591398,10.4034409 1.22236559,10.6516129 C0.967741935,10.8529032 0.522580645,10.7083871 0.345806452,10.3470968 Z" fill="#FFFFFF"></path>
                    <path d="M0.111827957,12.5109677 C-0.015483871,12.2494624 0.0920430108,12.0352688 0.308817204,11.8064516 C0.531612903,11.5716129 0.868817204,11.7445161 1.06537634,11.8946237 C1.26150538,12.043871 1.30193548,12.5668817 0.987956989,12.8154839 C0.733763441,13.0167742 0.288602151,12.8722581 0.111827957,12.5109677 Z" fill="#FFFFFF"></path>
                    <path d="M0.175913978,14.8215054 C0.0486021505,14.5604301 0.156129032,14.3462366 0.372903226,14.1174194 C0.595698925,13.8825806 0.932473118,14.0554839 1.12903226,14.2055914 C1.3255914,14.3544086 1.36602151,14.8778495 1.05247312,15.1260215 C0.797849462,15.3273118 0.352688172,15.1827957 0.175913978,14.8215054 Z" fill="#FFFFFF"></path>
                    <path d="M1.00129032,17.1922581 C0.873548387,16.9311828 0.981075269,16.7169892 1.19784946,16.488172 C1.42064516,16.2533333 1.75784946,16.4262366 1.9544086,16.5763441 C2.15053763,16.7251613 2.19096774,17.2486022 1.87741935,17.4967742 C1.6227957,17.6980645 1.17806452,17.5535484 1.00129032,17.1922581 Z" fill="#FFFFFF"></path>
                    <path d="M3.47870968,16.7501075 C3.35139785,16.4890323 3.45892473,16.2748387 3.67569892,16.0460215 C3.89849462,15.8111828 4.23569892,15.984086 4.43225806,16.1341935 C4.6283871,16.2830108 4.6688172,16.8064516 4.35483871,17.0546237 C4.10064516,17.2563441 3.65548387,17.111828 3.47870968,16.7501075 Z" fill="#FFFFFF"></path>
                    <path d="M5.2172043,15.9823656 C5.08989247,15.7208602 5.19741935,15.5066667 5.41419355,15.2778495 C5.63698925,15.0430108 5.97419355,15.215914 6.17075269,15.3664516 C6.36688172,15.5152688 6.40731183,16.0387097 6.09376344,16.2868817 C5.83913978,16.488172 5.3944086,16.3436559 5.2172043,15.9823656 Z" fill="#FFFFFF"></path>
                    <path d="M6.70322581,14.7853763 C6.57591398,14.523871 6.68344086,14.3096774 6.90021505,14.0808602 C7.12301075,13.8460215 7.45978495,14.0189247 7.65634409,14.1690323 C7.85290323,14.3182796 7.89333333,14.8412903 7.57978495,15.0898925 C7.32516129,15.2911828 6.88,15.1466667 6.70322581,14.7853763 Z" fill="#FFFFFF"></path>
                    <path d="M8.30580645,13.5578495 C8.17849462,13.2963441 8.28645161,13.0821505 8.5027957,12.8533333 C8.7255914,12.6184946 9.0627957,12.7913978 9.25935484,12.9419355 C9.45548387,13.0907527 9.49591398,13.6141935 9.18236559,13.8623656 C8.92774194,14.0636559 8.48301075,13.9191398 8.30580645,13.5578495 Z" fill="#FFFFFF"></path>
                    <path d="M9.64946237,11.9264516 C9.52215054,11.6649462 9.62967742,11.4507527 9.84645161,11.2219355 C10.0692473,10.9870968 10.4064516,11.16 10.6030108,11.3101075 C10.7991398,11.4589247 10.8395699,11.9823656 10.5260215,12.2309677 C10.2713978,12.4322581 9.82623656,12.2877419 9.64946237,11.9264516 Z" fill="#FFFFFF"></path>
                    <path d="M10.5191398,10.1277419 C10.391828,9.86666667 10.4993548,9.65204301 10.716129,9.42365591 C10.9389247,9.1888172 11.276129,9.36172043 11.4726882,9.51182796 C11.6688172,9.66064516 11.7092473,10.184086 11.3952688,10.4322581 C11.1410753,10.6339785 10.6963441,10.4894624 10.5191398,10.1277419 Z" fill="#FFFFFF"></path>
                    <path d="M11.1165591,8.03698925 C10.9892473,7.77591398 11.0972043,7.56172043 11.3139785,7.33290323 C11.5363441,7.09806452 11.8735484,7.27096774 12.0701075,7.42107527 C12.2662366,7.56989247 12.3066667,8.09333333 11.9931183,8.34150538 C11.7384946,8.5427957 11.2937634,8.39827957 11.1165591,8.03698925 Z" fill="#FFFFFF"></path>
                    <path d="M11.4529032,5.99956989 C11.3255914,5.73806452 11.4331183,5.52387097 11.6498925,5.29548387 C11.8726882,5.06064516 12.2098925,5.23354839 12.4060215,5.38365591 C12.6025806,5.53247312 12.6430108,6.05591398 12.3294624,6.30408602 C12.0748387,6.50537634 11.6296774,6.36086022 11.4529032,5.99956989 Z" fill="#FFFFFF"></path>
                    <path d="M11.5793548,3.75741935 C11.452043,3.49634409 11.56,3.28215054 11.7763441,3.05333333 C11.9991398,2.81849462 12.3363441,2.99139785 12.5329032,3.14150538 C12.7290323,3.29032258 12.7694624,3.81376344 12.455914,4.06193548 C12.2012903,4.26322581 11.7565591,4.11870968 11.5793548,3.75741935 Z" fill="#FFFFFF"></path>
                </g>
                <g transform="translate(2.580645, 8.172043)" id="Path">
                    <g transform="translate(1.720430, 0.430108)">
                        <path d="M4.65634409,0.0890322581 C4.65634409,0.0890322581 6.74021505,5.41849462 6.17075269,8.25032258 C5.60129032,11.0821505 2.19268817,15.6262366 2.19268817,15.6262366 C2.19268817,15.6262366 -0.769032258,11.0369892 0.240430108,6.64645161 C1.05505376,3.10064516 4.65634409,0.0890322581 4.65634409,0.0890322581 Z" fill="#FFFFFF"></path>
                        <path d="M3.88,3.90408602 C3.88,3.90408602 4.92215054,6.56860215 4.63698925,7.98451613 C4.35225806,9.40043011 2.64817204,11.6722581 2.64817204,11.6722581 C2.64817204,11.6722581 1.16774194,9.37763441 1.67182796,7.18236559 C2.08,5.40989247 3.88,3.90408602 3.88,3.90408602 Z" fill="#E2231A"></path>
                    </g>
                    <path d="M7.37806452,1.96129032 C7.25075269,1.70021505 7.35870968,1.4855914 7.57548387,1.2572043 C7.79827957,1.02236559 8.13505376,1.19526882 8.3316129,1.34537634 C8.52817204,1.49419355 8.56817204,2.01763441 8.25462366,2.26580645 C8.00086022,2.46709677 7.55526882,2.32215054 7.37806452,1.96129032 Z" fill="#FFFFFF"></path>
                    <path d="M8.29333333,4.6283871 C8.16602151,4.36731183 8.27354839,4.15311828 8.49032258,3.92430108 C8.71311828,3.68946237 9.05032258,3.86236559 9.24688172,4.01247312 C9.44301075,4.16129032 9.48344086,4.68473118 9.16989247,4.93290323 C8.91569892,5.13419355 8.47010753,4.98967742 8.29333333,4.6283871 Z" fill="#FFFFFF"></path>
                    <path d="M8.62537634,6.99870968 C8.49806452,6.7372043 8.6055914,6.52301075 8.82236559,6.29419355 C9.04516129,6.05935484 9.38193548,6.23225806 9.57849462,6.38236559 C9.77505376,6.5316129 9.81548387,7.05462366 9.50193548,7.30322581 C9.24731183,7.50494624 8.80215054,7.36 8.62537634,6.99870968 Z" fill="#FFFFFF"></path>
                    <path d="M8.51827957,9.38236559 C8.39053763,9.12086022 8.49849462,8.90666667 8.71483871,8.67784946 C8.93763441,8.44301075 9.27483871,8.61591398 9.47139785,8.76645161 C9.66752688,8.91526882 9.70795699,9.43870968 9.3944086,9.68688172 C9.13978495,9.88817204 8.69505376,9.74365591 8.51827957,9.38236559 Z" fill="#FFFFFF"></path>
                    <path d="M7.53935484,11.4060215 C7.4116129,11.1445161 7.51956989,10.9303226 7.73634409,10.7015054 C7.95913978,10.4666667 8.29591398,10.6395699 8.49247312,10.7896774 C8.68860215,10.9389247 8.72903226,11.4619355 8.41548387,11.7105376 C8.16172043,11.911828 7.71612903,11.7668817 7.53935484,11.4060215 Z" fill="#FFFFFF"></path>
                    <path d="M6.38580645,13.5458065 C6.25849462,13.2843011 6.36602151,13.0701075 6.5827957,12.8417204 C6.8055914,12.6068817 7.1427957,12.7793548 7.33892473,12.9298925 C7.53548387,13.0787097 7.57591398,13.6021505 7.26236559,13.8503226 C7.00774194,14.0516129 6.56258065,13.9066667 6.38580645,13.5458065 Z" fill="#FFFFFF"></path>
                    <path d="M5.08129032,15.6692473 C4.95354839,15.408172 5.06150538,15.1935484 5.27827957,14.9651613 C5.50064516,14.7303226 5.83784946,14.9032258 6.0344086,15.0533333 C6.23053763,15.2021505 6.27096774,15.7255914 5.95741935,15.9737634 C5.70322581,16.1750538 5.25849462,16.0305376 5.08129032,15.6692473 Z" fill="#FFFFFF"></path>
                    <path d="M3.35655914,17.3711828 C3.22924731,17.1096774 3.33677419,16.8954839 3.55354839,16.6666667 C3.77634409,16.431828 4.11311828,16.6047312 4.30967742,16.7552688 C4.50623656,16.904086 4.54666667,17.4275269 4.23268817,17.6756989 C3.97849462,17.8769892 3.53333333,17.7324731 3.35655914,17.3711828 Z" fill="#FFFFFF"></path>
                    <path d="M1.70623656,15.4567742 C1.57892473,15.1952688 1.68688172,14.9810753 1.90365591,14.7522581 C2.12645161,14.5174194 2.46322581,14.6903226 2.65978495,14.8404301 C2.85634409,14.9896774 2.89634409,15.5126882 2.5827957,15.7612903 C2.32860215,15.9625806 1.88344086,15.8176344 1.70623656,15.4567742 Z" fill="#FFFFFF"></path>
                    <path d="M0.916989247,13.3806452 C0.789677419,13.1195699 0.897204301,12.9049462 1.11397849,12.6765591 C1.33677419,12.4417204 1.67397849,12.6146237 1.87053763,12.7647312 C2.06666667,12.9135484 2.10709677,13.4369892 1.79354839,13.6851613 C1.53892473,13.8864516 1.09419355,13.7419355 0.916989247,13.3806452 Z" fill="#FFFFFF"></path>
                    <path d="M0.152258065,11.1836559 C0.0249462366,10.9221505 0.132473118,10.707957 0.349247312,10.4791398 C0.572043011,10.2443011 0.908817204,10.4172043 1.10537634,10.5677419 C1.30193548,10.7165591 1.34236559,11.24 1.0288172,11.488172 C0.774623656,11.6898925 0.329462366,11.5449462 0.152258065,11.1836559 Z" fill="#FFFFFF"></path>
                    <path d="M0.258924731,8.95655914 C0.131182796,8.69505376 0.239139785,8.48086022 0.455913978,8.25247312 C0.678709677,8.01763441 1.01591398,8.19053763 1.21204301,8.34064516 C1.40860215,8.48946237 1.44860215,9.01290323 1.13505376,9.26107527 C0.880860215,9.46236559 0.435698925,9.31784946 0.258924731,8.95655914 Z" fill="#FFFFFF"></path>
                    <path d="M0.614623656,6.87870968 C0.48688172,6.61763441 0.59483871,6.40301075 0.811612903,6.17419355 C1.0344086,5.93935484 1.3711828,6.11225806 1.56774194,6.2627957 C1.76430108,6.4116129 1.80430108,6.93505376 1.49075269,7.18322581 C1.23655914,7.38451613 0.791397849,7.24 0.614623656,6.87870968 Z" fill="#FFFFFF"></path>
                    <path d="M1.37634409,4.77032258 C1.24903226,4.5088172 1.35655914,4.29462366 1.57333333,4.06580645 C1.79612903,3.83096774 2.13290323,4.00387097 2.32946237,4.1544086 C2.52602151,4.30322581 2.56645161,4.82666667 2.25290323,5.07483871 C1.99827957,5.27655914 1.55311828,5.13204301 1.37634409,4.77032258 Z" fill="#FFFFFF"></path>
                    <path d="M2.55956989,2.69247312 C2.43182796,2.43096774 2.53978495,2.21677419 2.75655914,1.9883871 C2.97935484,1.75354839 3.31655914,1.92602151 3.51268817,2.07655914 C3.70924731,2.22537634 3.74924731,2.7488172 3.43569892,2.99698925 C3.18150538,3.19870968 2.73634409,3.05376344 2.55956989,2.69247312 Z" fill="#FFFFFF"></path>
                    <path d="M4.08172043,0.88688172 C3.9544086,0.625376344 4.06236559,0.411182796 4.27913978,0.182365591 C4.50150538,-0.0524731183 4.83870968,0.120430108 5.03526882,0.270537634 C5.23139785,0.419784946 5.27182796,0.942795699 4.95827957,1.19139785 C4.70408602,1.39268817 4.25892473,1.24774194 4.08172043,0.88688172 Z" fill="#FFFFFF"></path>
                </g>
                <g transform="translate(32.688172, 25.806452)" id="Path">
                    <g transform="translate(1.720430, 1.720430)">
                        <path d="M12.2494624,0.0494623656 C12.2494624,0.0494623656 11.2795699,5.22580645 7.90451613,8.15182796 C5.13763441,10.5509677 0.132043011,11.0391398 0.132043011,11.0391398 C0.132043011,11.0391398 0.172903226,6.48731183 2.2972043,3.90666667 C5.3711828,0.172903226 12.2494624,0.0494623656 12.2494624,0.0494623656 Z" fill="#FFFFFF"></path>
                        <path d="M9.04516129,2.72129032 C9.04516129,2.72129032 8.56,5.30967742 6.87268817,6.77247312 C5.48903226,7.97204301 2.98623656,8.21591398 2.98623656,8.21591398 C2.98623656,8.21591398 3.00688172,5.93978495 4.06924731,4.64989247 C5.60602151,2.7827957 9.04516129,2.72129032 9.04516129,2.72129032 Z" fill="#E2231A"></path>
                    </g>
                    <path d="M10.3634409,0.849892473 C10.236129,0.588817204 10.3436559,0.374193548 10.5604301,0.145806452 C10.7832258,-0.0890322581 11.12,0.0838709677 11.3165591,0.233978495 C11.5131183,0.382795699 11.5535484,0.906236559 11.2395699,1.1544086 C10.9853763,1.35569892 10.5402151,1.2111828 10.3634409,0.849892473 Z" fill="#FFFFFF"></path>
                    <path d="M8.16989247,1.32215054 C8.04258065,1.06107527 8.15010753,0.84688172 8.36688172,0.618064516 C8.58967742,0.383225806 8.92645161,0.556129032 9.12301075,0.706236559 C9.31956989,0.855053763 9.36,1.37849462 9.04645161,1.62666667 C8.79182796,1.82795699 8.34666667,1.68387097 8.16989247,1.32215054 Z" fill="#FFFFFF"></path>
                    <path d="M6.02107527,2.17032258 C5.89376344,1.9088172 6.00129032,1.69462366 6.21806452,1.46580645 C6.44086022,1.23096774 6.77763441,1.40387097 6.97419355,1.5544086 C7.17075269,1.70322581 7.2111828,2.22666667 6.8972043,2.47483871 C6.64301075,2.67655914 6.19784946,2.5316129 6.02107527,2.17032258 Z" fill="#FFFFFF"></path>
                    <path d="M4.07096774,3.51870968 C3.94322581,3.25763441 4.0511828,3.04344086 4.26795699,2.81462366 C4.49075269,2.57978495 4.82795699,2.75268817 5.02451613,2.9027957 C5.22064516,3.0516129 5.26064516,3.57505376 4.94709677,3.82365591 C4.69290323,4.02451613 4.24774194,3.88 4.07096774,3.51870968 Z" fill="#FFFFFF"></path>
                    <path d="M2.48387097,5.45806452 C2.35612903,5.19655914 2.46408602,4.98236559 2.68086022,4.75397849 C2.90365591,4.51913978 3.24086022,4.6916129 3.43698925,4.84215054 C3.63354839,4.99096774 3.67354839,5.5144086 3.36,5.76258065 C3.10623656,5.96387097 2.66107527,5.81935484 2.48387097,5.45806452 Z" fill="#FFFFFF"></path>
                    <path d="M1.27741935,7.21548387 C1.15010753,6.9544086 1.25763441,6.73978495 1.4744086,6.51139785 C1.6972043,6.27655914 2.0344086,6.44903226 2.23096774,6.59956989 C2.42709677,6.7483871 2.46752688,7.27182796 2.15397849,7.52 C1.89935484,7.72129032 1.45419355,7.57677419 1.27741935,7.21548387 Z" fill="#FFFFFF"></path>
                    <path d="M0.56172043,9.18752688 C0.433978495,8.92645161 0.541935484,8.71225806 0.758709677,8.48344086 C0.981505376,8.24860215 1.31827957,8.42150538 1.51483871,8.5716129 C1.71139785,8.72043011 1.75182796,9.24387097 1.43784946,9.49247312 C1.18365591,9.69333333 0.738494624,9.5488172 0.56172043,9.18752688 Z" fill="#FFFFFF"></path>
                    <path d="M4.97247312,13.3419355 C4.84516129,13.0808602 4.95311828,12.8666667 5.16989247,12.6378495 C5.39268817,12.4030108 5.72946237,12.575914 5.92602151,12.7260215 C6.12215054,12.8748387 6.16258065,13.3982796 5.84903226,13.6464516 C5.59483871,13.8477419 5.14967742,13.7032258 4.97247312,13.3419355 Z" fill="#FFFFFF"></path>
                    <path d="M7.06322581,12.6141935 C6.93548387,12.3531183 7.04344086,12.1389247 7.26021505,11.9101075 C7.48301075,11.6752688 7.82021505,11.848172 8.01634409,11.9982796 C8.21290323,12.1470968 8.25290323,12.6705376 7.93935484,12.9191398 C7.68516129,13.12 7.24,12.9754839 7.06322581,12.6141935 Z" fill="#FFFFFF"></path>
                    <path d="M8.88430108,11.5324731 C8.75655914,11.2709677 8.86451613,11.0567742 9.08086022,10.8283871 C9.30365591,10.5935484 9.64086022,10.7664516 9.83741935,10.9165591 C10.0335484,11.0653763 10.0739785,11.5888172 9.76043011,11.8369892 C9.50623656,12.0387097 9.06107527,11.8937634 8.88430108,11.5324731 Z" fill="#FFFFFF"></path>
                    <path d="M10.7316129,10.0851613 C10.603871,9.82365591 10.711828,9.60946237 10.9286022,9.38064516 C11.1513978,9.14580645 11.488172,9.31870968 11.6847312,9.4688172 C11.8808602,9.61806452 11.9212903,10.1410753 11.6077419,10.3896774 C11.3531183,10.5909677 10.9083871,10.4464516 10.7316129,10.0851613 Z" fill="#FFFFFF"></path>
                    <path d="M12.1909677,8.40989247 C12.0632258,8.1483871 12.1711828,7.93419355 12.387957,7.70537634 C12.6107527,7.47053763 12.9475269,7.64344086 13.144086,7.79397849 C13.3406452,7.9427957 13.3806452,8.46623656 13.0670968,8.7144086 C12.8124731,8.91569892 12.3677419,8.7711828 12.1909677,8.40989247 Z" fill="#FFFFFF"></path>
                    <path d="M13.2167742,6.28903226 C13.0890323,6.02752688 13.1969892,5.81333333 13.4137634,5.58451613 C13.6365591,5.34967742 13.9737634,5.52258065 14.1703226,5.67268817 C14.3664516,5.82193548 14.4064516,6.34494624 14.0929032,6.59354839 C13.8387097,6.79483871 13.3935484,6.64989247 13.2167742,6.28903226 Z" fill="#FFFFFF"></path>
                    <path d="M14.1380645,3.95268817 C14.0107527,3.6916129 14.1187097,3.47741935 14.3350538,3.24860215 C14.5582796,3.01376344 14.8950538,3.18666667 15.0916129,3.33677419 C15.2877419,3.4855914 15.328172,4.00903226 15.0146237,4.2572043 C14.76,4.45849462 14.3152688,4.31397849 14.1380645,3.95268817 Z" fill="#FFFFFF"></path>
                    <path d="M0.286451613,11.344086 C0.159139785,11.0825806 0.266666667,10.8683871 0.48344086,10.6395699 C0.706236559,10.4047312 1.04344086,10.5776344 1.24,10.728172 C1.43612903,10.8769892 1.47655914,11.4004301 1.16301075,11.6486022 C0.908387097,11.8498925 0.463655914,11.7053763 0.286451613,11.344086 Z" fill="#FFFFFF"></path>
                    <path d="M0.48344086,13.6210753 C0.356129032,13.36 0.463655914,13.1453763 0.680430108,12.9169892 C0.903225806,12.6821505 1.24,12.8550538 1.43655914,13.0051613 C1.63311828,13.1539785 1.67354839,13.6774194 1.36,13.9255914 C1.10537634,14.1268817 0.660215054,13.9823656 0.48344086,13.6210753 Z" fill="#FFFFFF"></path>
                    <path d="M2.94021505,13.9045161 C2.81290323,13.6434409 2.92086022,13.4288172 3.1372043,13.2004301 C3.36,12.9655914 3.6972043,13.1384946 3.89376344,13.2886022 C4.08989247,13.4374194 4.13032258,13.9608602 3.81677419,14.2090323 C3.56215054,14.4103226 3.11741935,14.2658065 2.94021505,13.9045161 Z" fill="#FFFFFF"></path>
                </g>
                <path d="M18.4619355,50.0756989 C18.2537634,49.6486022 18.4301075,49.2984946 18.7836559,48.9251613 C19.1475269,48.5410753 19.6984946,48.824086 20.0193548,49.0692473 C20.3402151,49.3122581 20.4055914,50.1677419 19.8937634,50.5733333 C19.4782796,50.9023656 18.7509677,50.6658065 18.4619355,50.0756989 Z" id="Path" fill="#FFFFFF"></path>
                <path d="M15.7122581,47.8941935 C15.504086,47.4670968 15.6804301,47.1169892 16.0344086,46.7436559 C16.3978495,46.3595699 16.9488172,46.6421505 17.2696774,46.8877419 C17.5905376,47.1311828 17.6563441,47.9866667 17.1445161,48.391828 C16.7290323,48.7204301 16.0017204,48.4843011 15.7122581,47.8941935 Z" id="Path" fill="#FFFFFF"></path>
                <path d="M12.7290323,46.123871 C12.5208602,45.6967742 12.6967742,45.3466667 13.0507527,44.9733333 C13.4146237,44.5896774 13.9651613,44.8722581 14.2864516,45.1174194 C14.6073118,45.3608602 14.6726882,46.215914 14.1608602,46.6215054 C13.7453763,46.9505376 13.0180645,46.7144086 12.7290323,46.123871 Z" id="Path" fill="#FFFFFF"></path>
                <path d="M9.61677419,44.6193548 C9.40860215,44.1922581 9.58494624,43.8421505 9.93892473,43.4688172 C10.3023656,43.0847312 10.8533333,43.3677419 11.1746237,43.6129032 C11.4950538,43.8563441 11.5608602,44.711828 11.0490323,45.1169892 C10.6335484,45.4460215 9.90623656,45.2094624 9.61677419,44.6193548 Z" id="Path" fill="#FFFFFF"></path>
                <path d="M6.11397849,43.3707527 C5.90580645,42.9436559 6.08172043,42.5935484 6.43569892,42.2202151 C6.79956989,41.8365591 7.35010753,42.1191398 7.67139785,42.3643011 C7.99225806,42.6077419 8.05763441,43.4627957 7.54580645,43.8683871 C7.12989247,44.1974194 6.40301075,43.9612903 6.11397849,43.3707527 Z" id="Path" fill="#FFFFFF"></path>
                <path d="M2.79096774,42.4972043 C2.58322581,42.0701075 2.75913978,41.72 3.11311828,41.3462366 C3.47698925,40.9625806 4.02752688,41.2451613 4.3488172,41.4903226 C4.66924731,41.7337634 4.73505376,42.5892473 4.2227957,42.9944086 C3.80774194,43.323871 3.08043011,43.0877419 2.79096774,42.4972043 Z" id="Path" fill="#FFFFFF"></path>
            </g>
            <path d="M112.715699,102.146237 C107.806022,92.4903226 96.6511828,85.932043 85.7935484,86.6645161 C76.7363441,87.2756989 69.1402151,92.5294624 64.9217204,100.074839 C65.5182796,90.107957 66.8055914,80.1896774 69.2498925,70.4907527 C71.1531183,62.9384946 73.9569892,55.7316129 76.4701075,48.3776344 C77.3630108,45.7651613 73.2292473,44.6430108 72.3419355,47.2395699 C69.7772043,54.744086 66.9212903,62.0976344 65.0060215,69.8124731 C63.1612903,77.2447312 61.9655914,84.8146237 61.2283871,92.4335484 C60.655914,88.8709677 59.8408602,85.3582796 58.5307527,82.0034409 C55.8017204,75.0167742 50.9316129,69.5905376 44.0266667,66.5453763 C42.1535484,65.7191398 40.5174194,68.4847312 42.4055914,69.3178495 C48.6210753,72.0589247 53.1002151,76.772043 55.5329032,83.1169892 C57.8623656,89.1909677 58.5380645,95.7587097 59.1634409,102.184946 C59.6554839,107.234839 60.0210753,112.283441 60.255914,117.335914 C58.9230108,115.386667 56.7793548,113.014194 53.3341935,110.59957 C48.8176344,107.434409 45.6890323,107.744946 43.9634409,108.291613 C42.2378495,108.83828 41.4929032,110.095054 41.9926882,111.525161 C42.7260215,113.621935 45.415914,116.659785 49.7505376,119.012903 C53.1935484,120.882151 57.8322581,121.573763 60.4266667,121.824946 C60.587957,127.256774 60.5862366,132.694194 60.3823656,138.144516 C58.9789247,135.924301 56.4262366,132.953978 51.8283871,130.002581 C46.852043,126.808172 43.5135484,127.276989 41.6886022,127.938065 C39.8636559,128.59871 39.12,129.977204 39.7178495,131.488172 C40.5944086,133.702796 43.6090323,136.84 48.3552688,139.172473 C52.2705376,141.096344 57.5105376,141.603441 60.2262366,141.735914 C59.9810753,146.686452 59.6266667,151.628817 59.2597849,156.570323 C58.5526882,155.563871 57.7260215,154.507957 56.827957,153.604301 C54.1475269,150.907097 50.7836559,148.269677 48.5221505,147.002151 C46.2369892,145.72129 44.6210753,145.186237 42.9333333,145.050753 C41.2451613,144.915269 38.3870968,145.957849 40.3148387,149.751828 C42.1793548,153.419785 45.3883871,155.910968 48.751828,158.010753 C52.683871,160.465806 56.1350538,161.018065 58.2068817,161 C58.4524731,160.997849 58.695914,160.982796 58.9333333,160.96 C58.612043,165.305806 58.3053763,169.652903 58.08,174.006452 C56.9647312,171.886452 55.0275269,169.192688 51.6645161,166.315699 C47.4735484,162.730753 44.3290323,162.739355 42.5591398,163.117419 C40.7888172,163.495914 39.9264516,164.674409 40.2864516,166.146237 C40.8146237,168.304516 43.2,171.586237 47.288172,174.345376 C50.643871,176.610323 55.3892473,177.745376 57.8916129,178.218065 C57.8765591,178.618925 57.8589247,179.019355 57.8455914,179.420645 C57.7204301,183.152688 57.6275269,186.885161 57.556129,190.618495 C57.1273118,189.733763 56.5552688,188.830108 55.7939785,187.966022 C53.1268817,184.938925 48.9569892,181.232688 43.7776344,179.832688 C40.6967742,179 38.8051613,179.057204 37.147957,181.232688 C35.4903226,183.408172 36.7819355,186.11957 38.3909677,188.250323 C40.3591398,190.856774 45.504086,194.230108 49.4404301,195.491183 C52.5711828,196.493763 55.7316129,196.67914 57.4602151,196.693763 C57.3763441,203.458495 57.3604301,210.224086 57.3870968,216.988817 C57.4146237,224.028387 57.4752688,231.070108 57.6296774,238.108817 C57.6748387,240.172043 60.8855914,240.178925 60.8404301,238.108817 C60.5376344,224.277849 60.4550538,210.428387 60.655914,196.589677 C63.0537634,196.876989 67.7247312,196.778495 74.224086,193.615054 C79.5544086,191.020215 80.8941935,187.917849 81.2795699,186.010753 C81.6653763,184.103226 80.8731183,182.747527 79.267957,182.471398 C76.9148387,182.067527 72.6567742,183.011613 68.1845161,185.858495 C65.1217204,187.808602 62.4180645,191.050753 60.7126882,193.386667 C60.775914,189.786237 60.8533333,186.186237 60.9574194,182.588387 C61.0068817,180.861505 61.0739785,179.136774 61.1526882,177.412473 C62.7131183,178.084731 67.1711828,179.452043 74.6352688,177.458495 C79.8129032,176.075269 81.5367742,173.553548 82.208172,171.928172 C82.8795699,170.302366 82.4098925,168.962581 81.0335484,168.44086 C79.0154839,167.676129 75.0739785,167.779785 70.6141935,169.534624 C66.587957,171.11957 62.728172,174.803871 61.2034409,176.371613 C61.4460215,171.396989 61.7870968,166.430968 62.1445161,161.466237 C64.6331183,161.941075 69.5010753,162.630968 73.476129,161.743226 C78.2890323,160.667957 81.7092473,158.483871 82.9888172,156.667527 C83.8615054,155.429247 83.4890323,154.016774 81.9793548,153.018065 C80.4696774,152.019355 77.5458065,150.863226 72.3346237,152.669677 C67.0834409,154.489892 64.0331183,156.862796 62.3492473,158.630108 C62.732043,153.349247 63.1109677,148.067097 63.3845161,142.775054 C64.7565591,143.691183 67.1290323,144.869247 70.1737634,144.771613 C73.9647312,144.650323 79.147957,143.846022 83.2632258,140.928602 C85.7105376,139.193978 86.8021505,137.787957 86.2172043,135.284301 C85.6322581,132.780645 82.8929032,132.094194 80.3853763,131.984946 C77.3174194,131.851183 71.7922581,133.56172 68.5221505,135.661075 C66.3913978,137.028817 64.6490323,138.736774 63.5131183,139.994839 C63.7049462,135.539355 63.7797849,131.090323 63.7337634,126.645591 C63.7651613,126.52043 63.7862366,126.387097 63.787957,126.24129 C63.8051613,124.737634 63.8245161,123.211613 63.8653763,121.67957 C66.1436559,122.16 70.5608602,122.453333 76.9410753,120.070108 C82.2408602,118.090323 83.796129,115.264946 84.3363441,113.488172 C84.876129,111.711828 84.2468817,110.351828 82.7475269,109.943656 C80.5488172,109.344946 76.4172043,109.854624 71.9105376,112.152258 C68.7346237,113.771183 65.7974194,116.722151 63.9733333,118.797419 C64.4894624,108.430968 66.5965591,98.1797849 76.6352688,92.6206452 C88.4946237,86.0533333 103.954409,91.9935484 109.941075,103.767742 C110.88,105.609462 113.651183,103.986237 112.715699,102.146237 Z" id="Path" fill="#04586B"></path>
            <g transform="translate(99.784946, 91.182796)" id="Path">
                <path d="M4.00043011,37.5578495 C4.00043011,37.5578495 3.1944086,26.4077419 2.33978495,22.7823656 C1.48516129,19.1569892 -0.0984946237,10.7750538 0.270537634,7.79268817 C0.64,4.81032258 0.762150538,3.88516129 2.65376344,2.06752688 C4.54623656,0.249892473 9,-0.793978495 11.9574194,0.812043011 C14.9144086,2.41763441 20.255914,5.39784946 23.2133333,7.00387097 C26.1703226,8.60946237 35.4326882,11.9862366 37.1436559,12.4752688 C37.9019355,12.6916129 27.283871,22.2563441 21.8967742,26.8365591 C16.455914,31.4610753 4.00043011,37.5578495 4.00043011,37.5578495 Z" fill="#E2231A"></path>
                <g transform="translate(0.430108, 2.580645)">
                    <path d="M18.0593548,3.21892473 C17.64,1.5255914 14.9552688,0.112258065 14.9552688,0.112258065 C14.9552688,0.112258065 14.0860215,1.49333333 13.1101075,2.83096774 C12.1625806,4.12946237 11.4124731,4.91139785 11.227957,5.1488172 C11.1987097,5.11956989 11.1772043,5.09892473 11.1772043,5.09892473 C11.1772043,5.09892473 9.65419355,6.54795699 9.12946237,6.97247312 C8.76473118,7.26709677 7.63913978,8.09419355 7.09333333,8.49376344 C7.07870968,8.4744086 7.06666667,8.45075269 7.0511828,8.43225806 C7.01247312,8.38666667 5.26580645,9.37333333 3.47827957,10.0025806 C1.90494624,10.5569892 0.175913978,10.7991398 0.175913978,10.7991398 C0.175913978,10.7991398 1.23784946,13.464086 2.84129032,14.1501075 C4.44473118,14.836129 6.04774194,14.2537634 6.69634409,13.4094624 C7.15053763,12.8184946 7.59010753,11.1462366 7.49935484,9.82494624 C8.11010753,10.6473118 9.05763441,11.631828 10.123871,11.6722581 C11.5015054,11.7247312 12.7453763,10.6356989 13.0172043,9.6516129 C13.3827957,8.32731183 12.6670968,6.97505376 12.0236559,6.0916129 C13.0494624,6.9888172 14.5595699,7.77634409 16.3965591,6.99784946 C17.8851613,6.36774194 18.4782796,4.91225806 18.0593548,3.21892473 Z" fill="#FFFFFF"></path>
                    <path d="M2.2916129,11.2898925 C2.2916129,11.2898925 2.82236559,12.6223656 3.62451613,12.9655914 C4.42666667,13.3088172 5.22795699,13.0176344 5.55182796,12.5952688 C5.87569892,12.1729032 6.12043011,10.7006452 5.66107527,10.1604301 C5.64172043,10.1376344 4.83612903,10.5772043 3.9427957,10.892043 C3.15612903,11.1686022 2.2916129,11.2898925 2.2916129,11.2898925 Z" fill="#04586B"></path>
                    <path d="M15.0787097,2.07784946 C15.0787097,2.07784946 16.483871,2.73591398 16.6933333,3.58236559 C16.9027957,4.42924731 16.6064516,5.15698925 15.8619355,5.47225806 C14.643871,5.9883871 13.7126882,5.12774194 13.2537634,4.58795699 C13.2344086,4.56516129 13.6602151,4.1544086 14.2189247,3.3888172 C14.7066667,2.71956989 15.0787097,2.07784946 15.0787097,2.07784946 Z" fill="#04586B"></path>
                    <path d="M8.72043011,8.53290323 C8.72043011,8.53290323 9.33677419,10.1178495 10.2567742,10.1526882 C10.9458065,10.1789247 11.5673118,9.6344086 11.7032258,9.14236559 C12.0111828,8.02666667 10.7458065,6.89462366 10.7458065,6.89462366 C10.7458065,6.89462366 10.0210753,7.59010753 9.75870968,7.80258065 C9.51526882,8.00043011 8.72043011,8.53290323 8.72043011,8.53290323 Z" fill="#04586B"></path>
                </g>
                <path d="M12.4077419,38.7767742 C12.6202151,38.9462366 13.8012903,39.5286022 14.4597849,39.0107527 C15.1174194,38.4933333 15.3329032,37.8666667 15.2215054,37.1948387 C15.1092473,36.5230108 14.6670968,35.5896774 13.9483871,35.1737634 C13.2296774,34.7582796 12.3552688,35.2576344 11.9655914,35.6972043 C11.5944086,36.1156989 11.4107527,36.9303226 11.5780645,37.4752688 C11.744086,38.0197849 12.0275269,38.4744086 12.4077419,38.7767742 Z" fill="#E2231A"></path>
                <path d="M26.6219355,29.1750538 C26.8296774,29.3402151 27.984086,29.9096774 28.6270968,29.403871 C29.2701075,28.8976344 29.4804301,28.2855914 29.3707527,27.6292473 C29.2615054,26.9729032 28.8292473,26.0602151 28.1268817,25.6541935 C27.4245161,25.248172 26.5698925,25.7363441 26.1888172,26.1655914 C25.8262366,26.5746237 25.6464516,27.3703226 25.8098925,27.9032258 C25.9737634,28.4348387 26.2503226,28.8791398 26.6219355,29.1750538 Z" fill="#E2231A"></path>
                <path d="M40.8417204,15.8804301 C40.9711828,16.111828 41.3475269,17.3427957 40.7445161,17.8963441 C40.1419355,18.4494624 39.5032258,18.5587097 38.8731183,18.3449462 C38.2425806,18.1311828 37.412043,17.5578495 37.123871,16.7995699 C36.836129,16.0408602 37.4554839,15.276129 37.9406452,14.9690323 C38.4021505,14.6769892 39.2167742,14.627957 39.716129,14.8744086 C40.215914,15.1212903 40.6094624,15.4662366 40.8417204,15.8804301 Z" fill="#E2231A"></path>
                <path d="M4.95741935,40.8550538 C5.02236559,41.3126882 5.5772043,41.9556989 6.11698925,42.2189247 C6.65634409,42.4825806 7.14752688,42.5101075 7.75225806,42.1410753 C8.35741935,41.7729032 8.8055914,40.7432258 8.72817204,40.08 C8.65075269,39.4167742 8.16645161,38.7208602 7.38193548,38.4967742 C6.59741935,38.2726882 5.60860215,38.5827957 5.26666667,39.1974194 C4.92516129,39.812043 4.88989247,40.3827957 4.95741935,40.8550538 Z" fill="#E2231A"></path>
                <path d="M18.4972043,33.0916129 C18.5625806,33.5492473 19.1174194,34.1922581 19.6567742,34.4554839 C20.196129,34.7191398 20.6873118,34.7466667 21.2924731,34.3776344 C21.8972043,34.0094624 22.3453763,32.9797849 22.267957,32.3165591 C22.1905376,31.6533333 21.7066667,30.9574194 20.9217204,30.7333333 C20.1372043,30.5092473 19.1483871,30.8193548 18.8068817,31.4339785 C18.4649462,32.0490323 18.4301075,32.6193548 18.4972043,33.0916129 Z" fill="#E2231A"></path>
                <path d="M33.8907527,21.1470968 C34.3316129,21.2851613 34.8769892,21.9363441 35.0498925,22.5109677 C35.2232258,23.0855914 35.1711828,23.5746237 34.7101075,24.1126882 C34.2490323,24.6507527 33.1608602,24.9273118 32.5187097,24.7436559 C31.8769892,24.5604301 31.2675269,23.9707527 31.1724731,23.1604301 C31.0774194,22.3496774 31.5427957,21.424086 32.2047312,21.1858065 C32.8666667,20.9475269 33.4348387,21.0047312 33.8907527,21.1470968 Z" fill="#E2231A"></path>
                <path d="M9.54021505,9.77505376 C9.38924731,9.89247312 9.23569892,10.008172 9.08043011,10.1217204 C5.14021505,12.9883871 0.784086022,13.4529032 0.600860215,13.4713978 L0.51311828,12.6012903 C0.556129032,12.5969892 4.82365591,12.1367742 8.5655914,9.41462366 C12.3432258,6.66494624 14.728172,2.38666667 14.751828,2.34408602 L15.5178495,2.76602151 C15.4210753,2.94064516 13.2008602,6.92387097 9.54021505,9.77505376 Z" fill="#6D1112"></path>
                <g transform="translate(4.301075, 22.795699)">
                    <path d="M3.98365591,10.9694624 C3.98365591,10.9694624 1.11569892,8.81677419 0.346236559,5.87397849 C-0.283870968,3.46150538 0.927311828,0.257634409 0.927311828,0.257634409 C0.927311828,0.257634409 3.69419355,1.65548387 4.6288172,3.73032258 C5.98150538,6.73290323 3.98365591,10.9694624 3.98365591,10.9694624 Z" fill="#FFFFFF"></path>
                    <path d="M3.31827957,8.20731183 C3.31827957,8.20731183 1.88430108,7.1311828 1.49978495,5.65935484 C1.18451613,4.45333333 1.79010753,2.8516129 1.79010753,2.8516129 C1.79010753,2.8516129 3.17376344,3.55053763 3.64086022,4.58795699 C4.31741935,6.08903226 3.31827957,8.20731183 3.31827957,8.20731183 Z" fill="#04586B"></path>
                </g>
                <g transform="translate(9.892473, 18.494624)">
                    <path d="M6.9883871,10.0709677 C6.9883871,10.0709677 2.56473118,8.51268817 1.38408602,6.04430108 C0.610752688,4.42752688 0.118709677,1.75354839 0.467526882,0.240430108 C0.497204301,0.110537634 4.32731183,1.18021505 5.67354839,3.26709677 C7.70064516,6.4116129 6.9883871,10.0709677 6.9883871,10.0709677 Z" fill="#FFFFFF"></path>
                    <path d="M5.40473118,7.57290323 C5.40473118,7.57290323 3.19268817,6.79354839 2.60215054,5.55913978 C2.21591398,4.75096774 1.96946237,3.41419355 2.14451613,2.6572043 C2.15913978,2.59225806 4.07397849,3.12688172 4.74752688,4.17075269 C5.76129032,5.74322581 5.40473118,7.57290323 5.40473118,7.57290323 Z" fill="#04586B"></path>
                </g>
                <g transform="translate(17.204301, 13.763441)">
                    <path d="M7.8916129,8.4572043 C7.8916129,8.4572043 4.16817204,8.21763441 2.86494624,6.68516129 C1.56215054,5.15268817 0.32,0.316129032 0.32,0.316129032 C0.32,0.316129032 4.54709677,1.23741935 6.25419355,2.8855914 C7.96129032,4.53376344 7.8916129,8.4572043 7.8916129,8.4572043 Z" fill="#FFFFFF"></path>
                    <path d="M6.03483871,6.39139785 C6.03483871,6.39139785 4.17290323,6.27139785 3.52129032,5.50537634 C2.86967742,4.73892473 2.24903226,2.32086022 2.24903226,2.32086022 C2.24903226,2.32086022 4.36215054,2.78150538 5.21548387,3.6055914 C6.06967742,4.42924731 6.03483871,6.39139785 6.03483871,6.39139785 Z" fill="#04586B"></path>
                </g>
                <g transform="translate(22.795699, 9.462366)">
                    <path d="M8.84602151,6.62064516 C8.84602151,6.62064516 4.96387097,6.28602151 3.40688172,5.08473118 C1.84946237,3.88344086 0.102795699,0.432258065 0.102795699,0.432258065 C0.102795699,0.432258065 3.79784946,0.00774193548 6.17376344,1.94752688 C8.09290323,3.51397849 8.84602151,6.62064516 8.84602151,6.62064516 Z" fill="#FFFFFF"></path>
                    <path d="M6.75053763,4.99655914 C6.75053763,4.99655914 4.80946237,4.82924731 4.03096774,4.2283871 C3.25247312,3.62795699 2.37892473,1.90236559 2.37892473,1.90236559 C2.37892473,1.90236559 4.22666667,1.68989247 5.41505376,2.66021505 C6.37419355,3.44344086 6.75053763,4.99655914 6.75053763,4.99655914 Z" fill="#04586B"></path>
                </g>
                <path d="M1.56645161,10.5251613 C1.88989247,10.5268817 2.05075269,10.7397849 2.1716129,11.0688172 C2.29677419,11.4064516 1.95784946,11.6576344 1.71139785,11.7797849 C1.46623656,11.9023656 0.924301075,11.6843011 0.830967742,11.2494624 C0.755268817,10.8963441 1.11870968,10.5234409 1.56645161,10.5251613 Z" fill="#6D1112"></path>
                <path d="M3.59784946,9.75354839 C3.92129032,9.75526882 4.08215054,9.96817204 4.20344086,10.2972043 C4.32774194,10.6348387 3.98924731,10.8860215 3.7427957,11.008172 C3.49763441,11.1307527 2.95569892,10.9131183 2.86236559,10.4782796 C2.78666667,10.1247312 3.15010753,9.75182796 3.59784946,9.75354839 Z" fill="#6D1112"></path>
                <path d="M5.75913978,8.73247312 C6.08258065,8.73419355 6.24344086,8.94752688 6.36430108,9.27612903 C6.48946237,9.61376344 6.15053763,9.86494624 5.90408602,9.98666667 C5.65892473,10.1092473 5.11698925,9.8916129 5.02365591,9.45677419 C4.94795699,9.10408602 5.31182796,8.7311828 5.75913978,8.73247312 Z" fill="#6D1112"></path>
                <path d="M7.73935484,7.44473118 C8.0627957,7.44645161 8.22322581,7.65978495 8.34451613,7.9883871 C8.46924731,8.32602151 8.13075269,8.5772043 7.88387097,8.69935484 C7.63870968,8.82193548 7.09677419,8.60387097 7.00344086,8.16903226 C6.92774194,7.81591398 7.2916129,7.44344086 7.73935484,7.44473118 Z" fill="#6D1112"></path>
                <path d="M9.59612903,5.99827957 C9.92,6 10.0804301,6.21333333 10.2017204,6.54193548 C10.3264516,6.87956989 9.98795699,7.13075269 9.74150538,7.25290323 C9.49634409,7.37548387 8.95397849,7.15741935 8.86107527,6.72258065 C8.78537634,6.36989247 9.1488172,5.99698925 9.59612903,5.99827957 Z" fill="#6D1112"></path>
                <path d="M11.4146237,4.23612903 C11.7380645,4.23784946 11.8989247,4.45075269 12.0202151,4.77978495 C12.1445161,5.11741935 11.8060215,5.36860215 11.5595699,5.49075269 C11.3144086,5.61333333 10.772043,5.39526882 10.6791398,4.96043011 C10.6034409,4.60731183 10.9668817,4.2344086 11.4146237,4.23612903 Z" fill="#6D1112"></path>
                <path d="M12.9496774,2.47096774 C13.2731183,2.47268817 13.4339785,2.68602151 13.5548387,3.01462366 C13.68,3.35268817 13.3410753,3.60344086 13.0946237,3.7255914 C12.8494624,3.84817204 12.3075269,3.63010753 12.2141935,3.19569892 C12.1389247,2.84215054 12.5019355,2.46924731 12.9496774,2.47096774 Z" fill="#6D1112"></path>
            </g>
            <g transform="translate(0.000000, 51.612903)" id="Path">
                <path d="M7.37075269,0.819354839 C7.37075269,0.819354839 20.5372043,5.49548387 25.116129,6.33763441 C29.6950538,7.17978495 40.0843011,9.57634409 43.3122581,11.4967742 C46.5402151,13.4172043 47.5380645,14.0210753 48.667957,17.0993548 C49.7978495,20.1780645 48.7565591,25.8 45.4331183,28.3784946 C42.1101075,30.9569892 36.0172043,35.5741935 32.6941935,38.1526882 C29.3711828,40.7311828 20.8550538,49.6365591 19.4365591,51.3496774 C18.808172,52.1088172 13.1922581,35.1526882 10.655914,26.6864516 C8.09376344,18.1372043 7.37075269,0.819354839 7.37075269,0.819354839 Z" fill="#E2231A"></path>
                <g transform="translate(30.107527, 9.032258)">
                    <path d="M6.33677419,24.3187097 C8.48516129,24.6894624 11.4507527,22.3260215 11.4507527,22.3260215 C11.4507527,22.3260215 10.3066667,20.6378495 9.26580645,18.8490323 C8.25548387,17.1126882 7.73677419,15.8610753 7.55784946,15.5307527 C7.60645161,15.511828 7.64043011,15.4976344 7.64043011,15.4976344 C7.64043011,15.4976344 6.74666667,13.0266667 6.52430108,12.2129032 C6.37032258,11.6477419 5.9883871,9.94451613 5.80516129,9.11870968 C5.83526882,9.11139785 5.86795699,9.10967742 5.89677419,9.10107527 C5.96817204,9.07956989 5.71655914,6.58494624 5.89333333,4.22322581 C6.04860215,2.14408602 6.64,0.0434408602 6.64,0.0434408602 C6.64,0.0434408602 3.05634409,-0.0795698925 1.46623656,1.4116129 C-0.123870968,2.9027957 -0.263225806,5.03010753 0.377634409,6.19612903 C0.826236559,7.01247312 2.51913978,8.35569892 4.07741935,8.91526882 C2.83010753,9.20129032 1.22709677,9.79139785 0.645591398,10.9913978 C-0.105806452,12.5415054 0.515698925,14.5126882 1.50537634,15.3169892 C2.83784946,16.4004301 4.74451613,16.2602151 6.07913978,15.968172 C4.5372043,16.6916129 2.87784946,18.0249462 2.84602151,20.5182796 C2.82064516,22.5380645 4.1883871,23.947957 6.33677419,24.3187097 Z" fill="#FFFFFF"></path>
                    <path d="M5.0172043,2.21849462 C5.0172043,2.21849462 3.22537634,2.15698925 2.43010753,2.9027957 C1.63483871,3.64860215 1.5655914,4.71182796 1.8855914,5.29505376 C2.20602151,5.87784946 3.76903226,6.8972043 4.61806452,6.64301075 C4.65376344,6.63225806 4.55526882,5.48946237 4.64387097,4.3083871 C4.72215054,3.2688172 5.0172043,2.21849462 5.0172043,2.21849462 Z" fill="#04586B"></path>
                    <path d="M9.14021505,21.48 C9.14021505,21.48 7.68129032,22.7578495 6.60731183,22.5729032 C5.53333333,22.3870968 4.84903226,21.6825806 4.86150538,20.6726882 C4.88258065,19.0193548 6.33505376,18.3858065 7.18365591,18.1311828 C7.21935484,18.1204301 7.47569892,18.8141935 8.07096774,19.8378495 C8.59225806,20.732043 9.14021505,21.48 9.14021505,21.48 Z" fill="#04586B"></path>
                    <path d="M4.94408602,10.9608602 C4.94408602,10.9608602 2.82064516,10.8705376 2.31870968,11.9058065 C1.9427957,12.6812903 2.25376344,13.6662366 2.7483871,14.0688172 C3.87053763,14.9815054 5.80172043,14.1019355 5.80172043,14.1019355 C5.80172043,14.1019355 5.36946237,12.9234409 5.25806452,12.5165591 C5.1544086,12.1384946 4.94408602,10.9608602 4.94408602,10.9608602 Z" fill="#04586B"></path>
                </g>
                <path d="M1.75311828,9.82967742 C1.45290323,9.98795699 0.19311828,11.0477419 0.455053763,12.0606452 C0.716989247,13.0735484 1.32602151,13.6348387 2.15096774,13.843871 C2.97591398,14.0529032 4.26666667,14.015914 5.10322581,13.4021505 C5.93978495,12.7883871 5.80731183,11.5367742 5.50021505,10.8696774 C5.20774194,10.2348387 4.36731183,9.61548387 3.66021505,9.53333333 C2.95311828,9.45032258 2.29032258,9.54666667 1.75311828,9.82967742 Z" fill="#E2231A"></path>
                <path d="M5.60602151,30.9208602 C5.31225806,31.0752688 4.08086022,32.1109677 4.3372043,33.1010753 C4.59354839,34.0907527 5.1883871,34.6391398 5.99483871,34.843871 C6.80129032,35.048172 8.06236559,35.012043 8.88,34.412043 C9.6972043,33.812043 9.56817204,32.5888172 9.26752688,31.9372043 C8.98150538,31.3169892 8.16086022,30.711828 7.46924731,30.6309677 C6.77763441,30.5501075 6.13075269,30.6443011 5.60602151,30.9208602 Z" fill="#E2231A"></path>
                <path d="M13.6821505,53.8722581 C13.351828,53.9045161 11.7539785,53.7165591 11.4236559,52.7488172 C11.0929032,51.7810753 11.2890323,50.996129 11.8494624,50.3819355 C12.4107527,49.7677419 13.4843011,49.1045161 14.4967742,49.1556989 C15.5092473,49.2073118 16.0735484,50.3002151 16.1815054,51.0098925 C16.283871,51.6851613 15.9311828,52.6421505 15.3982796,53.0894624 C14.8649462,53.5376344 14.2726882,53.8150538 13.6821505,53.8722581 Z" fill="#E2231A"></path>
                <path d="M3.11569892,0.258924731 C2.55913978,0.103655914 1.54494624,0.416344086 0.972473118,0.901505376 C0.4,1.38623656 0.122150538,1.93505376 0.240430108,2.81247312 C0.358709677,3.68989247 1.31139785,4.72 2.10967742,4.96387097 C2.90752688,5.20774194 3.94709677,5.00387097 4.59784946,4.21849462 C5.24860215,3.43268817 5.38967742,2.14537634 4.85763441,1.4455914 C4.3255914,0.745376344 3.69075269,0.419354839 3.11569892,0.258924731 Z" fill="#E2231A"></path>
                <path d="M5.20258065,19.6546237 C4.6455914,19.4993548 3.63182796,19.8116129 3.05935484,20.2967742 C2.48688172,20.7819355 2.20860215,21.3298925 2.32688172,22.2077419 C2.44473118,23.0851613 3.39784946,24.1152688 4.19655914,24.3591398 C4.9944086,24.6030108 6.03397849,24.3991398 6.68473118,23.6137634 C7.33505376,22.827957 7.47655914,21.5406452 6.94451613,20.8408602 C6.41204301,20.1410753 5.7772043,19.8150538 5.20258065,19.6546237 Z" fill="#E2231A"></path>
                <path d="M11.144086,43.2713978 C10.7643011,43.7075269 9.74537634,44.0043011 9.00086022,43.9135484 C8.25634409,43.8232258 7.72215054,43.5182796 7.33849462,42.7204301 C6.9544086,41.9230108 7.18408602,40.5384946 7.71655914,39.8954839 C8.24860215,39.2529032 9.22924731,38.8516129 10.2047312,39.1501075 C11.1802151,39.4486022 12.0060215,40.4460215 11.9466667,41.3230108 C11.8868817,42.2 11.535914,42.8219355 11.144086,43.2713978 Z" fill="#E2231A"></path>
                <path d="M36.3888172,21.1113978 C36.3298925,20.8795699 36.2744086,20.6455914 36.2232258,20.4107527 C34.9208602,14.4615054 36.575914,9.24258065 36.6473118,9.02322581 L37.6868817,9.36 C37.6705376,9.4111828 36.0537634,14.5273118 37.2907527,20.1767742 C38.5406452,25.8812903 42.2404301,30.7591398 42.2774194,30.8077419 L41.4094624,31.4722581 C41.2580645,31.2744086 37.8133333,26.7333333 36.3888172,21.1113978 Z" fill="#6D1112"></path>
                <g transform="translate(9.462366, 5.591398)">
                    <path d="M0.0980645161,2.03569892 C0.0980645161,2.03569892 4.00215054,-0.165591398 7.75698925,0.431827957 C10.8348387,0.92172043 13.8937634,3.91698925 13.8937634,3.91698925 C13.8937634,3.91698925 10.9049462,6.38193548 8.06021505,6.40989247 C3.94365591,6.45075269 0.0980645161,2.03569892 0.0980645161,2.03569892 Z" fill="#FFFFFF"></path>
                    <path d="M3.59311828,2.66150538 C3.59311828,2.66150538 5.54537634,1.56086022 7.42236559,1.85935484 C8.96129032,2.10408602 10.4907527,3.60172043 10.4907527,3.60172043 C10.4907527,3.60172043 8.99612903,4.8344086 7.57419355,4.84817204 C5.51612903,4.8688172 3.59311828,2.66150538 3.59311828,2.66150538 Z" fill="#04586B"></path>
                </g>
                <g transform="translate(11.182796, 15.483871)">
                    <path d="M0.0116129032,4.59354839 C0.0116129032,4.59354839 4.01677419,0.312688172 7.43526882,0.201290323 C9.67397849,0.128602151 12.9819355,0.907096774 14.5389247,2.06666667 C14.6726882,2.16602151 11.5251613,6.01247312 8.46021505,6.50494624 C3.84301075,7.24688172 0.0116129032,4.59354839 0.0116129032,4.59354839 Z" fill="#FFFFFF"></path>
                    <path d="M3.66580645,4.03569892 C3.66580645,4.03569892 5.6683871,1.89505376 7.37806452,1.83956989 C8.4972043,1.80301075 10.1509677,2.19268817 10.9294624,2.77247312 C10.996129,2.82236559 9.4227957,4.74537634 7.89032258,4.99182796 C5.58193548,5.36215054 3.66580645,4.03569892 3.66580645,4.03569892 Z" fill="#04586B"></path>
                </g>
                <g transform="translate(14.193548, 27.526882)">
                    <path d="M0.138064516,5.13978495 C0.138064516,5.13978495 2.28215054,0.997849462 4.69075269,0.276129032 C7.09892473,-0.445591398 13.2584946,0.56172043 13.2584946,0.56172043 C13.2584946,0.56172043 10.0808602,4.9372043 7.33763441,6.06365591 C4.5944086,7.18967742 0.138064516,5.13978495 0.138064516,5.13978495 Z" fill="#FFFFFF"></path>
                    <path d="M3.43483871,4.05204301 C3.43483871,4.05204301 4.50709677,1.98107527 5.71139785,1.62021505 C6.91569892,1.25935484 9.99526882,1.76301075 9.99526882,1.76301075 C9.99526882,1.76301075 8.40688172,3.95053763 7.03483871,4.51397849 C5.66322581,5.07698925 3.43483871,4.05204301 3.43483871,4.05204301 Z" fill="#04586B"></path>
                </g>
                <g transform="translate(18.064516, 36.129032)">
                    <path d="M0.00516129032,7.11182796 C0.00516129032,7.11182796 2.33763441,2.83655914 4.49462366,1.65763441 C6.65204301,0.478709677 11.4787097,0.212473118 11.4787097,0.212473118 C11.4787097,0.212473118 10.1092473,4.65505376 6.69548387,6.40043011 C3.93892473,7.80989247 0.00516129032,7.11182796 0.00516129032,7.11182796 Z" fill="#FFFFFF"></path>
                    <path d="M2.91612903,5.52903226 C2.91612903,5.52903226 4.08258065,3.39139785 5.16086022,2.80215054 C6.23956989,2.21247312 8.65333333,2.07956989 8.65333333,2.07956989 C8.65333333,2.07956989 7.96817204,4.30064516 6.26150538,5.17333333 C4.88344086,5.87827957 2.91612903,5.52903226 2.91612903,5.52903226 Z" fill="#04586B"></path>
                </g>
                <path d="M39.5341935,11.608172 C39.3698925,11.9776344 39.0451613,12.0546237 38.608172,12.0283871 C38.1587097,12.0012903 38.0417204,11.4877419 38.0258065,11.144086 C38.0086022,10.8021505 38.5303226,10.2907527 39.0744086,10.4025806 C39.5165591,10.4929032 39.7604301,11.0963441 39.5341935,11.608172 Z" fill="#6D1112"></path>
                <path d="M39.3969892,14.3208602 C39.2326882,14.6903226 38.907957,14.7673118 38.4709677,14.7410753 C38.0219355,14.7139785 37.9045161,14.2008602 37.8886022,13.8567742 C37.871828,13.5148387 38.3935484,13.0034409 38.9376344,13.1152688 C39.3793548,13.2060215 39.6232258,13.8094624 39.3969892,14.3208602 Z" fill="#6D1112"></path>
                <path d="M39.48,17.3070968 C39.3156989,17.6765591 38.9909677,17.7535484 38.5539785,17.7273118 C38.1049462,17.7002151 37.9875269,17.1866667 37.9716129,16.8430108 C37.9544086,16.5006452 38.476129,15.9896774 39.0202151,16.1015054 C39.4623656,16.1922581 39.7066667,16.7952688 39.48,17.3070968 Z" fill="#6D1112"></path>
                <path d="M39.96,20.2202151 C39.7956989,20.5896774 39.4709677,20.6666667 39.0339785,20.6404301 C38.5845161,20.6133333 38.4675269,20.0997849 38.4516129,19.756129 C38.4348387,19.4141935 38.956129,18.9027957 39.5002151,19.0146237 C39.9423656,19.1053763 40.1866667,19.7088172 39.96,20.2202151 Z" fill="#6D1112"></path>
                <path d="M40.6825806,23.0722581 C40.5182796,23.4417204 40.1939785,23.5187097 39.7565591,23.4924731 C39.3075269,23.4653763 39.1905376,22.951828 39.1741935,22.608172 C39.1569892,22.2658065 39.6787097,21.7548387 40.2227957,21.8666667 C40.6649462,21.9569892 40.9088172,22.5604301 40.6825806,23.0722581 Z" fill="#6D1112"></path>
                <path d="M41.7866667,26.0387097 C41.6223656,26.408172 41.2976344,26.4851613 40.8606452,26.4589247 C40.4116129,26.431828 40.2941935,25.9182796 40.2782796,25.5746237 C40.2615054,25.2322581 40.7832258,24.7212903 41.3273118,24.8331183 C41.7690323,24.9234409 42.0137634,25.5268817 41.7866667,26.0387097 Z" fill="#6D1112"></path>
                <path d="M43.0365591,28.6821505 C42.8722581,29.0516129 42.5475269,29.1286022 42.1105376,29.1023656 C41.6610753,29.0752688 41.544086,28.5617204 41.528172,28.2180645 C41.5113978,27.8756989 42.0326882,27.3647312 42.5772043,27.4765591 C43.0189247,27.5673118 43.2627957,28.1703226 43.0365591,28.6821505 Z" fill="#6D1112"></path>
            </g>
        </g>
    </g>
</svg>