<?xml version="1.0" encoding="UTF-8"?>
<svg width="240px" height="360px" viewBox="0 0 240 360" version="1.1" xmlns="http://www.w3.org/2000/svg" xmlns:xlink="http://www.w3.org/1999/xlink">
    <!-- Generator: Sketch 52.5 (67469) - http://www.bohemiancoding.com/sketch -->
    <title>card10</title>
    <desc>Created with Sketch.</desc>
    <g id="card10" stroke="none" stroke-width="1" fill="none" fill-rule="evenodd">
        <rect fill="#FFFFFF" x="0" y="0" width="240" height="360"></rect>
        <g id="Heart" transform="translate(16.000000, 86.000000)">
            <g transform="translate(16.000000, 18.000000)" id="Path">
                <path d="M88.3570382,164.94458 C79.4932214,159.321985 65.5405191,149.70916 53.7119084,138.737374 C32.6214656,119.175176 20.352855,102.060855 10.4877863,83.9301679 C0.0349312977,64.7192977 -3.63789313,41.8359389 4.27236641,24.3202443 C12.182626,6.80454962 31.4321221,-3.16867176 53.4294351,1.71935878 C75.0414962,6.52207634 88.104458,32.2305038 88.104458,32.2305038 C88.104458,32.2305038 100.657893,6.97215267 122.570901,1.71935878 C144.963206,-3.64830534 163.81771,6.80454962 171.727969,24.3202443 C179.638229,41.8359389 175.965405,64.7192977 165.51255,83.9301679 C155.647481,102.060519 143.379206,119.175176 122.288427,138.737374 C110.736916,149.451542 97.226229,159.286046 88.3570382,164.94458 Z" fill="#E2231A"></path>
                <path d="M169.770473,40.6103206 C169.085954,40.111542 167.76226,39.5187176 165.414137,40.3147481 C163.64171,40.9156336 162.433557,41.6804275 161.618046,42.3736794 C161.413496,39.3695878 160.795817,36.3832977 159.633008,33.459145 C159.121466,32.1723969 158.510504,30.9766718 157.821618,29.8632366 C158.381191,29.7389618 158.975695,29.5948702 159.37942,29.4638779 C161.016153,28.9321832 162.355634,28.3796641 163.458656,27.3596031 C164.813252,26.1071145 165.119237,24.2480305 164.522718,23.5363053 C163.926198,22.824916 162.349252,23.1893435 161.698321,23.3972519 C161.047389,23.6051603 159.26287,24.5647634 158.265313,26.2035115 C157.903908,26.7976794 157.411511,27.7945649 157.010809,28.641313 C154.64287,25.3305649 151.493679,22.9038473 147.926992,21.4290076 C148.33374,21.1015267 148.755267,20.748855 149.031695,20.4801527 C150.191145,19.3526107 151.091634,18.3301985 151.598473,17.0122137 C152.220855,15.3936183 151.706962,13.6984427 150.908916,13.3461069 C150.110534,12.9934351 148.931939,13.9553893 148.469099,14.4010992 C148.006595,14.8468092 146.899878,16.3965496 146.738992,18.1931603 C146.676183,18.8921221 146.679542,20.0431756 146.696,20.9591145 C142.854565,19.637771 138.600672,19.3811603 134.357863,20.2608244 C134.447206,19.9676031 134.525466,19.6881527 134.575176,19.4647939 C134.907695,17.9788702 135.090748,16.7095878 134.810962,15.4104122 C134.467359,13.8146565 133.189344,12.7438779 132.37887,12.8772214 C131.568397,13.0105649 131.13545,14.3755725 131.000427,14.965374 C130.865405,15.5548397 130.792183,17.3460763 131.590901,18.8440916 C131.846504,19.3243969 132.29658,20.0240305 132.718443,20.6544733 C131.936855,20.8714504 131.157618,21.1250382 130.383084,21.4209466 C129.122198,21.9029313 129.669344,23.952458 130.946351,23.4640916 C131.591237,23.2175573 132.244519,22.9948702 132.903847,22.797374 C132.712397,23.3394809 132.535389,23.8752061 132.43429,24.2671756 C132.011084,25.9112977 132.503817,27.6350229 132.773863,28.1761221 C133.043573,28.7172214 133.786198,29.9418321 134.605069,29.8807023 C135.424275,29.8195725 136.414107,28.4784122 136.372458,26.8460458 C136.338534,25.517313 135.861924,24.3269618 135.188824,22.9612824 C135.096122,22.7721832 134.967817,22.5421069 134.826748,22.3012824 C138.285954,21.5458931 141.858687,21.529771 145.278595,22.5323664 C144.662931,22.8309618 144.044244,23.1460153 143.631786,23.3952366 C142.088092,24.3276336 141.18055,26.0023206 140.983389,26.6136183 C140.785893,27.224916 140.438595,28.7058015 141.105313,29.2687328 C141.772366,29.8313282 143.520611,29.5495267 144.702229,28.2802443 C145.664519,27.2467481 146.187817,25.9888855 146.692641,24.4525802 C146.804824,24.1103206 146.928092,23.622626 147.037924,23.1446718 C147.066473,23.1564275 147.095695,23.1658321 147.12458,23.1775878 C150.49545,24.5661069 153.265099,26.9162443 155.304214,29.8262901 C154.385924,29.8105038 153.319511,29.8098321 152.647084,29.8679389 C150.735603,30.032855 149.083084,31.2047328 148.607145,31.6954504 C148.131542,32.1861679 147.104092,33.4369771 147.47658,34.287084 C147.848733,35.1375267 149.650046,35.6897099 151.374107,35.0334046 C152.77774,34.4990229 153.868336,33.544458 155.072122,32.3148092 C155.370718,32.0098321 155.766046,31.5385954 156.12745,31.0908702 C156.848244,32.2983511 157.453832,33.5834198 157.93145,34.9245802 C158.832275,37.4540763 159.327023,40.020855 159.505374,42.5983817 C158.501771,42.000855 157.173374,41.3432061 155.893344,41.120855 C153.70913,40.7416489 151.910504,41.1064122 151.064092,41.6888244 C150.486718,42.0861679 150.395695,42.7834504 150.848794,43.4992061 C151.301893,44.2149618 152.314229,45.2531603 154.790656,45.3767634 C156.991328,45.4865954 158.552489,45.0986565 159.581618,44.6704122 C159.600092,48.5763359 158.936061,52.4886412 157.869313,56.3142901 C157.401771,55.3530076 156.834809,54.2348702 156.417985,53.5647939 C155.249802,51.6875725 153.182473,50.6016794 152.429435,50.3692519 C151.677069,50.1371603 149.855267,49.7347786 149.176122,50.5617099 C148.496977,51.3883053 149.001466,53.3861069 150.683206,54.6684885 C152.059969,55.7181069 153.843481,56.6850992 155.403969,57.0821069 C155.969588,57.2261985 156.783084,57.4801221 157.463237,57.7011298 C156.36458,61.3024122 154.938779,64.8153588 153.421618,68.158687 C153.351756,68.312855 153.277527,68.4656794 153.206992,68.6195115 C153.057863,68.3662595 152.907389,68.1025954 152.769344,67.8486718 C151.924947,66.2935573 151.366046,65.439084 150.119939,64.1526718 C148.393191,62.3698321 146.323176,62.834687 145.384397,63.915542 C144.397252,65.0521527 144.709618,67.1487023 147.458107,68.6554504 C148.563145,69.261374 151.009008,69.6815573 152.607786,69.9035725 C150.909924,73.4490992 148.977282,76.8992366 146.823969,80.2059542 C146.545527,79.0287023 146.06455,77.5078473 145.271206,76.3678779 C143.988824,74.5255878 142.445466,73.4904122 141.423389,73.2959389 C140.726107,73.1632672 140.159481,73.5945344 139.967023,74.4301985 C139.774565,75.2658626 139.748366,76.7339847 141.422382,78.6048244 C143.143756,80.5280611 144.739511,81.3654046 145.808611,81.7301679 C143.582748,84.9955725 141.132855,88.1041221 138.468336,91.0067786 C138.134473,89.8584122 137.598076,88.4326107 136.790626,87.3695573 C135.421924,85.5672366 133.823817,84.5888244 132.78629,84.4356641 C132.078595,84.3308702 131.52574,84.7890076 131.366534,85.6387786 C131.207328,86.4885496 131.241924,87.9687634 133.006626,89.7831756 C134.539237,91.3591145 135.945221,92.1538015 137.00458,92.5585344 C136.832947,92.7352061 136.664672,92.9152366 136.491695,93.0898931 C133.989069,95.6197252 131.397435,98.0639084 128.752397,100.451328 C128.581771,99.4017099 128.103481,98.004458 126.884916,96.4745344 C125.485649,94.718229 124.048763,94.6718779 123.185893,94.8216794 C122.323023,94.9714809 121.75942,95.5135878 121.712733,96.2128855 C121.643542,97.2379847 122.261557,98.8229924 123.732031,100.188336 C124.646962,101.037435 126.017008,101.592305 127.096519,101.926504 C124.125344,104.562809 121.100092,107.139664 118.061405,109.689985 C118.009344,108.480153 117.823603,106.917985 117.269405,105.66113 C116.356489,103.590107 115.029435,102.267756 114.055725,101.877466 C113.391695,101.61145 112.747481,101.928519 112.395817,102.718168 C112.043481,103.508153 111.733802,104.95545 113.029282,107.130595 C114.273038,109.218748 115.588,110.343267 116.561038,110.945832 C116.159328,111.28171 115.757954,111.618595 115.356244,111.954137 C112.547298,114.300916 109.718198,116.624183 106.883053,118.939725 C106.817557,117.766504 106.62174,116.318534 106.102473,115.140611 C105.189893,113.069588 103.862504,111.746901 102.888794,111.356947 C102.224763,111.090931 101.58055,111.407664 101.22855,112.197649 C100.87655,112.987634 100.566534,114.434931 101.862015,116.60974 C103.026504,118.565221 104.255145,119.677649 105.206015,120.306076 C100.300855,124.299328 95.3741985,128.266382 90.4505649,132.23713 C90.439145,129.865832 90.4371298,127.58287 90.4569466,126.125496 L90.3531603,116.423664 C91.1297099,116.511664 92.0167634,116.542565 92.7093435,116.364885 C94.5046107,115.906748 96.1960916,114.796672 96.6041832,113.644611 C97.1741679,112.038443 95.7157863,110.909221 93.94,111.496336 C91.9274198,112.160702 91.3873282,112.791817 90.3256183,113.930443 L90.2094046,105.149924 C97.5836031,100.406992 104.522504,94.8065649 110.942809,88.7785649 C111.726076,89.7838473 112.972855,91.1915115 114.36574,92.0140763 C116.375298,93.2014046 118.262931,93.5547481 119.292397,93.3421374 C119.994718,93.1970382 120.323542,92.5890992 120.12571,91.7551145 C119.928214,90.9218015 119.293069,89.5762748 116.909344,88.5125496 C115.06974,87.692 113.575084,87.4038168 112.455603,87.3416794 C113.470626,86.3659542 114.472885,85.3801527 115.461038,84.3862901 C116.497893,83.3430534 117.50116,82.2759695 118.473863,81.1887328 C119.298107,82.0821679 120.427328,83.1381679 121.636824,83.7709618 C123.704824,84.8534962 125.608244,85.1087634 126.625282,84.8437557 C127.319206,84.6627176 127.616122,84.0386565 127.375634,83.2160916 C127.135481,82.3938626 126.431817,81.0825954 123.996702,80.143145 C122.470809,79.5543511 121.192794,79.307145 120.163328,79.2309008 C121.823908,77.2431756 123.368947,75.179542 124.781313,73.0329466 C125.773496,73.8148702 127.221802,74.8047023 128.673802,75.2594809 C130.901344,75.9567634 132.819542,75.8701069 133.773435,75.4284275 C134.424366,75.127145 134.60574,74.4597557 134.22284,73.6932824 C133.839939,72.9268092 132.914931,71.7616489 130.351511,71.2699237 C128.519298,70.9185954 127.079725,70.9447939 125.999206,71.1050076 C127.371267,68.8395115 128.594534,66.4823206 129.647511,64.0243664 C130.756244,64.6511145 132.433282,65.4619237 134.022656,65.686626 C136.333832,66.0130992 138.212733,65.6160916 139.081985,65.0252824 C139.675145,64.622229 139.745679,63.9343511 139.243542,63.2404275 C138.741405,62.5465038 137.639389,61.5465954 135.029954,61.4777405 C132.988824,61.4236641 131.482076,61.7393893 130.422046,62.1179237 C130.954076,60.7320916 131.438748,59.3183817 131.860275,57.8680611 C132.303634,56.3414962 132.644885,54.8014962 132.883695,53.2581374 C134.09487,53.5123969 135.700702,53.7313893 137.110046,53.5261679 C139.419878,53.1899542 141.111359,52.2803969 141.77942,51.468916 C142.235206,50.9153893 142.109924,50.2355725 141.432794,49.7105954 C140.755664,49.1856183 139.417191,48.5360305 136.89374,49.2037557 C135.263389,49.6350229 134.058595,50.2053435 133.17255,50.7635725 C133.372733,48.1464122 133.240397,45.534626 132.713069,42.9718779 C133.641435,43.0081527 134.789802,42.9668397 135.767206,42.6675725 C137.506718,42.135542 138.701771,41.2350534 139.120611,40.5310534 C139.406443,40.0507481 139.229099,39.542229 138.645679,39.217771 C138.06226,38.8936489 136.953863,38.5517252 135.089405,39.3642137 C133.790229,39.9301679 132.886382,40.5632977 132.263664,41.1312672 C131.865985,39.7323359 131.350748,38.3512061 130.693435,36.9969466 C130.09826,35.7706565 128.270412,36.8434504 128.863908,38.0663817 C129.364702,39.0975267 129.773466,40.1451298 130.102626,41.2048244 C129.41374,40.763145 128.588489,40.3265038 127.77029,40.1232977 C126.072427,39.701771 124.63655,39.8875115 123.937252,40.2982901 C123.460641,40.5784122 123.349466,41.1221985 123.665863,41.7109924 C123.981924,42.2994504 124.720519,43.1737405 126.662565,43.4108702 C128.473618,43.6318779 129.763053,43.3816489 130.595023,43.0833893 C131.190534,45.7912366 131.296336,48.5612214 131.020244,51.3291908 C130.147634,50.4562443 128.837038,49.3166107 127.461618,48.7422595 C125.39026,47.8770382 123.532519,47.8330382 122.565863,48.2179542 C121.906534,48.4806107 121.660336,49.1486718 121.94684,49.9567939 C122.233344,50.764916 122.999481,52.0177405 125.416794,52.6962137 C127.912366,53.3965191 129.713008,53.2416794 130.808977,52.9729771 C130.357221,55.9374351 129.500733,58.8834198 128.38058,61.7313282 C127.788092,60.6501374 126.854351,59.1974656 125.701282,58.2640611 C123.956733,56.8513588 122.186321,56.2867481 121.150137,56.3844885 C120.443786,56.4509924 120.019573,57.0226565 120.067267,57.879145 C120.114962,58.7356336 120.498198,60.1530382 122.627328,61.4837863 C124.841435,62.8679389 126.621252,63.2196031 127.747786,63.2659542 C126.617557,65.8884885 125.28513,68.4132824 123.862351,70.7724885 C123.473069,69.5962443 122.751267,67.8019847 121.668397,66.5847634 C120.176427,64.9073893 118.520885,64.0629924 117.483359,63.9911145 C116.775328,63.9420763 116.263786,64.4374962 116.171756,65.2902901 C116.079725,66.143084 116.227847,67.6038168 118.112458,69.2627176 C120.252,71.1459847 122.080855,71.7320916 123.163389,71.9060763 C123.00284,72.1613435 122.84229,72.4159389 122.680397,72.6668397 C121.232092,74.9111756 119.56916,77.0470229 117.774229,79.0975573 C117.652641,77.981771 117.289893,75.6349924 116.284611,73.9895267 C115.114412,72.0740153 113.635542,70.9484885 112.626901,70.6935573 C111.939023,70.5192366 111.347542,70.9159084 111.105374,71.7384733 C110.863206,72.561374 110.749008,74.0254656 112.308824,75.9927023 C114.293863,78.4963359 116.183847,79.3269618 117.153863,79.601374 C117.166962,79.6195115 117.190473,79.6520916 117.235481,79.7122137 C115.180916,82.0045802 112.961099,84.185771 110.67713,86.2776183 C110.548824,85.0469618 110.245863,83.3034198 109.523389,81.9709924 C108.453282,79.9977099 107.034198,78.7976183 106.040336,78.4909618 C105.361863,78.2817099 104.751237,78.647145 104.466748,79.4566107 C104.182931,80.2657405 103.993496,81.7221069 105.450198,83.7669313 C106.953588,85.8775878 108.452275,86.8865649 109.474015,87.3655267 C107.161832,89.4352061 104.804305,91.4199084 102.504214,93.3411298 C98.5532824,96.6411298 94.4686718,99.8020763 90.1741374,102.646626 L90.021313,91.0803359 C90.994687,91.632855 92.5229313,92.1736183 94.6772519,92.0167634 C96.9286412,91.852855 97.7606107,90.5990229 98.1102595,89.7368244 C98.4599084,88.8742901 98.3148092,88.0369466 97.751542,87.5633588 C96.9262901,86.8687634 95.2502595,86.4415267 93.2890687,86.9107481 C92.0792366,87.1999389 90.8670534,88.0675115 89.9917557,88.8198779 L89.8580763,78.6965191 C94.4344122,75.1862595 99.1262901,71.6121832 102.653008,67.0072977 C103.133649,67.8352366 103.935389,68.7945038 105.285618,69.6372214 C107.028153,70.7247939 108.31255,70.2498626 109.032672,69.8034809 C109.752458,69.3570992 110.094718,68.6638473 109.935176,68.0135878 C109.701405,67.0600305 108.698809,65.8468397 107.005313,65.1388092 C106.175695,64.7921832 105.14858,64.7132519 104.235664,64.7367634 C105.903634,62.0504122 107.015389,59.1423817 107.724092,56.1211603 C108.461008,56.916855 109.627511,57.8018931 111.44058,58.360458 C113.597588,59.0251603 114.827908,58.1589313 115.467084,57.4821374 C116.105924,56.8056794 116.274534,55.9727023 115.921863,55.3268092 C115.404611,54.3799695 113.998626,53.3736794 112.000489,53.0985954 C110.757405,52.9276336 109.297679,53.3038168 108.20574,53.6904122 C108.586962,51.3520305 108.758595,48.9649466 108.773374,46.5731603 C108.781771,45.2094962 106.663053,45.2078168 106.654321,46.5731603 C106.64055,48.7889466 106.487389,50.9889466 106.147817,53.1422595 C105.539878,52.2515115 104.453985,51.1303511 102.542168,50.2621069 C100.497344,49.3337405 99.1964885,49.9460458 98.4958473,50.4716947 C97.7958779,50.9976794 97.5399389,51.7362748 97.8160305,52.3804885 C98.2207634,53.3249771 99.4917252,54.455542 101.422351,55.0033588 C102.863939,55.4121221 104.697496,55.1454351 105.828733,54.9022595 C105.151603,58.1058626 103.997191,61.1778015 102.182779,64.0079084 C101.825405,63.1117863 101.131817,61.9748397 99.7698321,60.8614046 C98.1875115,59.5679389 96.9004275,59.8030534 96.1614962,60.1023206 C95.4225649,60.4015878 95.0258931,60.9917252 95.1185954,61.6228397 C95.2542901,62.5478473 96.1087634,63.8389618 97.6793282,64.7710229 C98.6627786,65.3544427 99.9999084,65.5835115 101.026687,65.6721832 C97.9567634,69.74 93.8567023,72.9761832 89.8238168,76.0726412 L89.5772824,57.4267176 C90.3699542,57.871084 91.561313,58.4249466 92.6445191,58.4682748 C94.2147481,58.531084 95.436,57.9990534 95.9673588,57.3948092 C96.329771,56.9823511 96.3193588,56.3707176 95.9260458,55.8087939 C95.5327328,55.2468702 94.7135267,54.4743511 92.9659542,54.6674809 C91.3120916,54.8501985 90.2251908,55.4316031 89.5581374,55.9512061 L89.4496489,47.7332824 C90.0505344,47.2979847 90.7286718,46.7612519 91.3409771,46.1936183 C93.0774656,44.5827481 94.0877863,43.1737405 94.9002748,41.6807634 C95.7611298,40.0991145 96.063084,38.2145038 95.4118168,36.7722443 C94.7605496,35.3299847 93.2077863,34.4694656 91.3641527,34.911145 C89.5598168,35.3437557 88.5263206,37.4235115 88.5263206,37.4235115 C88.5263206,37.4235115 87.4505038,35.3064733 85.6710229,34.911145 C83.8596336,34.5087634 82.274626,35.3299847 81.6233588,36.7722443 C80.9720916,38.2145038 81.2743817,40.0987786 82.1349008,41.6807634 C82.9470534,43.1737405 83.957374,44.5827481 85.6941985,46.1936183 C86.2722443,46.7300153 86.9107481,47.2244275 87.4877863,47.6365496 L87.5643664,55.1370382 C86.9984122,54.7863817 86.3639389,54.4807328 85.7408855,54.367542 C84.1871145,54.0857405 82.8953282,54.4921527 82.28,55.0708702 C81.8601527,55.4655267 81.7829008,56.1265344 82.0935878,56.7855267 C82.4042748,57.444855 83.1089466,58.3890076 84.8763359,58.4195725 C86.0055573,58.4393893 86.9003359,58.225771 87.592916,57.9419542 L87.7766412,75.9896794 C83.7790229,72.9184122 79.7249771,69.7043969 76.6825954,65.672855 C77.709374,65.5841832 79.0465038,65.3551145 80.0296183,64.7716947 C81.6005191,63.8399695 82.4546565,62.548855 82.590687,61.6235115 C82.6833893,60.9923969 82.2863817,60.4022595 81.5477863,60.1029924 C80.8091908,59.8037252 79.521771,59.5686107 77.9394504,60.8620763 C76.5774656,61.9751756 75.8838779,63.112458 75.5265038,64.0085802 C73.7114198,61.1778015 72.5573435,58.1061985 71.8802137,54.9029313 C73.0111145,55.1461069 74.8453435,55.4127939 76.2869313,55.0040305 C78.2175573,54.4565496 79.4881832,53.3256489 79.892916,52.3811603 C80.1690076,51.7369466 79.9137405,50.9983511 79.2134351,50.4723664 C78.5131298,49.9467176 77.2119389,49.3344122 75.1671145,50.2627786 C73.2549618,51.130687 72.1690687,52.2518473 71.5614656,53.1429313 C71.2215573,50.9896183 71.0683969,48.7896183 71.0549618,46.5738321 C71.0465649,45.2108397 68.9278473,45.2078168 68.9362443,46.5738321 C68.9510229,48.9656183 69.1223206,51.3527023 69.5038779,53.691084 C68.4116031,53.3044885 66.9522137,52.9283053 65.7091298,53.0992672 C63.7109924,53.3743511 62.3050076,54.3806412 61.7877557,55.3274809 C61.435084,55.973374 61.6036947,56.8063511 62.2425344,57.4828092 C62.881374,58.1596031 64.1116947,59.0254962 66.2690382,58.3611298 C68.0821069,57.802229 69.2482748,56.9171908 69.9851908,56.1218321 C70.6935573,59.1430534 71.805313,62.0514198 73.4736183,64.7374351 C72.5610382,64.7139237 71.5335878,64.792855 70.7039695,65.1394809 C69.0104733,65.8471756 68.0078779,67.0607023 67.773771,68.0142595 C67.614229,68.6645191 67.9564885,69.357771 68.6766107,69.8041527 C69.3967328,70.2505344 70.6807939,70.7254656 72.4236641,69.6378931 C73.7738931,68.7951756 74.5759695,67.8359084 75.0559389,67.0079695 C78.5709008,71.5974046 83.2429618,75.1627481 87.8045191,78.6615878 L87.9042748,88.4695573 C87.0313282,87.873374 85.8960611,87.2456183 84.8094962,87.0911145 C82.9138015,86.8214046 81.3674198,87.3739237 80.6489771,88.1034504 C80.1589313,88.6008855 80.0954504,89.405313 80.5025344,90.1895878 C80.9096183,90.9738626 81.807084,92.0852824 83.9496489,92.0406107 C85.753313,92.0033282 87.0494656,91.4974962 87.9301374,90.9624427 L88.049374,102.686595 C80.96,98.089771 74.3190229,92.6828092 68.1338321,86.8959695 C69.1528855,86.4005496 70.6058931,85.3932519 72.0656183,83.3437252 C73.5223206,81.2985649 73.3332214,79.8425344 73.0490687,79.0334046 C72.7652519,78.2242748 72.1539542,77.8585038 71.4761527,78.0677557 C70.4819542,78.3747481 69.0625344,79.5745038 67.9924275,81.5477863 C67.3018626,82.8210992 66.9941985,84.4712672 66.8564885,85.6894962 C66.0997557,84.9683664 65.3477252,84.2425344 64.6050992,83.5113282 C63.172916,82.101313 61.7494656,80.6614046 60.3763969,79.1748092 C61.3511145,78.8956947 63.2327023,78.0603664 65.2069924,75.5701679 C66.7668092,73.6029313 66.6526107,72.1388397 66.4104427,71.3159389 C66.1682748,70.493374 65.5771298,70.0967023 64.888916,70.2710229 C63.8806107,70.5262901 62.4014046,71.6514809 61.2312061,73.5673282 C60.2742901,75.1338626 59.9001221,77.3338626 59.7614046,78.5050687 C58.2926107,76.8777405 56.8936794,75.1896183 55.629771,73.4108092 C55.1854046,72.7854046 54.7585038,72.1405191 54.3406718,71.486229 C55.4218626,71.3145954 57.2567634,70.7308397 59.4040305,68.8411908 C61.2886412,67.1822901 61.4367634,65.7212214 61.3447328,64.8687634 C61.2527023,64.0159695 60.7411603,63.5208855 60.0331298,63.5699237 C58.9952672,63.6418015 57.3397252,64.4861985 55.8477557,66.1635725 C54.7588397,67.3875115 54.0356947,69.1935267 53.6477557,70.3694351 C52.203145,67.9709313 50.9298321,65.4246412 49.8459542,62.8410687 C50.9758473,62.7819542 52.7244275,62.4158473 54.8888244,61.0629313 C57.0179542,59.7321832 57.4011908,58.3147786 57.4488855,57.4582901 C57.4965802,56.6021374 57.0723664,56.0301374 56.3656794,55.9636336 C55.3298321,55.8658931 53.5594198,56.4305038 51.8148702,57.8432061 C50.6963969,58.7487328 49.7848244,60.1429618 49.1903206,61.2123969 C48.9323664,60.5476947 48.6844885,59.8819847 48.4517252,59.2179542 C47.6876031,57.037771 47.096458,54.8061985 46.7407634,52.5598473 C47.8400916,52.8235115 49.6283053,52.9689466 52.0993588,52.2753588 C54.5166718,51.5965496 55.283145,50.3440611 55.5696489,49.5359389 C55.8561527,48.7274809 55.6096183,48.0594198 54.9502901,47.7970992 C53.9836336,47.4121832 52.1258931,47.4561832 50.0541985,48.3214046 C48.6935573,48.8897099 47.3953893,50.0118779 46.5231145,50.8807939 C46.2376183,48.1279389 46.3326718,45.3670229 46.9234809,42.663542 C47.7554504,42.9614656 49.0442137,43.210687 50.8535878,42.9900153 C52.7956336,42.7532214 53.5338931,41.8789313 53.8502901,41.2901374 C54.166687,40.7013435 54.0555115,40.1575573 53.5789008,39.8774351 C52.8796031,39.4666565 51.4437252,39.280916 49.7458626,39.7024427 C48.9323664,39.9043053 48.1114809,40.3375878 47.4249466,40.776916 C47.7530992,39.7205802 48.1527939,38.6746565 48.6525802,37.6455267 C49.2457405,36.4239389 47.4189008,35.348458 46.8230534,36.5760916 C46.1603664,37.9410992 45.6458015,39.3208855 45.2518168,40.7094046 C44.6287634,40.1421069 43.7255878,39.5089771 42.4267481,38.9433588 C40.5619542,38.1308702 39.4538931,38.4727939 38.8704733,38.796916 C38.2870534,39.121374 38.1097099,39.630229 38.395542,40.1105344 C38.8147176,40.8145344 40.009771,41.714687 41.7489466,42.2470534 C42.7263511,42.5463206 43.8750534,42.5876336 44.803084,42.5513588 C44.2754198,45.1426565 44.1612214,47.7574656 44.3755115,50.3628702 C43.4871145,49.7985954 42.2719084,49.219542 40.6227481,48.7832366 C38.0992977,48.1158473 36.7604885,48.7650992 36.0836947,49.2900763 C35.4069008,49.8150534 35.2812824,50.4948702 35.7370687,51.0483969 C36.4054656,51.8598779 38.0969466,52.7694351 40.4064427,53.1056489 C41.8322443,53.3132214 43.4589008,53.0868397 44.6747786,52.8288855 C45.1503817,55.8353282 46.0199695,58.8145649 47.1461679,61.7148702 C46.0834504,61.3286107 44.5599084,61.0028092 42.4868702,61.0575573 C39.8774351,61.1267481 38.7754198,62.1263206 38.2732824,62.8202443 C37.7714809,63.5141679 37.8420153,64.2020458 38.4351756,64.6050992 C39.3047634,65.1959084 41.1833282,65.592916 43.4945038,65.2664427 C45.102687,65.0390534 46.8012214,64.2111145 47.9092824,63.5816794 C48.9568855,66.0221679 50.1660458,68.3961527 51.4487634,70.6734046 C50.3763053,70.5225954 48.9575573,70.5058015 47.1656489,70.8497405 C44.602229,71.3414656 43.6768855,72.506626 43.2943206,73.2730992 C42.9117557,74.0395725 43.0927939,74.706626 43.7437252,75.0082443 C44.6976183,75.4499237 46.6161527,75.5365802 48.8433588,74.8392977 C50.248,74.3992977 51.6452519,73.460855 52.6334046,72.6920305 C53.9695267,74.8648244 55.5441221,76.8908397 57.2285496,78.8197863 C56.2212519,78.9067786 54.9845496,79.1580153 53.5207939,79.722626 C51.0856794,80.6620763 50.3820153,81.9733435 50.1418626,82.7955725 C49.901374,83.6178015 50.198626,84.2421985 50.8922137,84.4232366 C51.9095878,84.6882443 53.8130076,84.4326412 55.8810076,83.3504427 C57.0767328,82.7247023 58.1945344,81.6851603 59.0160916,80.7981069 C59.4890076,81.3069618 59.9642748,81.812458 60.4418931,82.3115725 C61.9472977,83.8844885 63.4936794,85.4191145 65.0726412,86.9201527 C63.9521527,86.9816183 62.4531298,87.2691298 60.6084885,88.0920305 C58.2247634,89.1557557 57.5896183,90.5012824 57.3921221,91.3345954 C57.1942901,92.1682443 57.5231145,92.7765191 58.2254351,92.9216183 C59.2549008,93.134229 61.1425344,92.7808855 63.1520916,91.5935573 C64.5527023,90.7659542 65.8061985,89.3472061 66.588458,88.3405802 C68.7656183,90.3558473 70.9992061,92.3113282 73.271084,94.2147481 C77.9344122,98.1223511 82.775084,101.859664 87.9156947,105.122046 C87.9690992,105.156305 88.0221679,105.179145 88.0752366,105.202321 L88.1645802,113.947237 C87.8176183,113.554931 87.4387481,113.193527 87.0514809,112.949679 C85.9165496,112.230901 84.6180458,111.858076 83.572458,111.762015 C82.8714809,111.697527 81.4130992,111.790901 81.2851298,113.404794 C81.1823511,114.698931 82.8530076,115.388489 83.6167939,115.663237 C85.274687,116.259084 85.8352672,116.335328 87.4095267,116.369924 C87.6503511,116.374626 87.9254351,116.363542 88.2018626,116.344397 C88.2018626,116.344397 88.4305954,125.906168 88.3949924,128.526687 L88.423542,132.419511 C83.4260153,128.395359 78.3868397,124.395725 73.3741985,120.358137 C74.3341374,119.738779 75.597374,118.61829 76.7917557,116.612763 C78.0869008,114.437954 77.7772214,112.990656 77.4252214,112.200672 C77.0732214,111.410687 76.4290076,111.093954 75.765313,111.359969 C74.7916031,111.749924 73.4642137,113.072611 72.5512977,115.143634 C72.0145649,116.360855 71.8231145,117.866595 71.764,119.059298 C68.4814656,116.405527 65.2153893,113.728916 61.9839084,111.015359 C62.9656794,110.430595 64.3337099,109.300366 65.6241527,107.133282 C66.9192977,104.958137 66.6099542,103.51084 66.2576183,102.720855 C65.9056183,101.931206 65.2617405,101.614137 64.5977099,101.880153 C63.624,102.270443 62.2966107,103.592794 61.3840305,105.663817 C60.8069924,106.972397 60.629313,108.612824 60.5863206,109.840794 C57.5254656,107.25084 54.502229,104.620244 51.5280305,101.938595 C52.6115725,101.605405 53.9980763,101.048183 54.9210687,100.191359 C56.391542,98.8260153 57.0095573,97.2410076 56.9407023,96.2159084 C56.8936794,95.5166107 56.3304122,94.9748397 55.467542,94.8247023 C54.6046718,94.6749008 53.1674504,94.720916 51.7685191,96.4775573 C50.5469313,98.0108397 50.069313,99.4117863 49.8996947,100.462076 C47.9620153,98.6899847 46.0468397,96.8947176 44.1615573,95.0688855 C43.3127939,94.2466565 42.4821679,93.4076336 41.6686718,92.5538321 C42.7256794,92.1464122 44.1236031,91.3527328 45.647145,89.7861985 C47.4115115,87.9717863 47.4461069,86.4915725 47.2872366,85.6418015 C47.1283664,84.7920305 46.5751756,84.3338931 45.8674809,84.438687 C44.8299542,84.5918473 43.2318473,85.5702595 41.863145,87.3725802 C41.065771,88.4228702 40.5317252,89.8281832 40.196855,90.9691603 C37.5508092,88.0510534 35.1096489,84.961313 32.8821069,81.7197557 C33.9505344,81.3486107 35.5288244,80.5102595 37.2313893,78.6078473 C38.9057405,76.7370076 38.879542,75.2688855 38.6867481,74.4332214 C38.4939542,73.5975573 37.9276641,73.1662901 37.2303817,73.2989618 C36.2083053,73.493771 34.6649466,74.5286107 33.382229,76.3709008 C32.5982901,77.4974351 32.1193282,78.996458 31.839542,80.168 C30.035542,77.4188397 28.3803359,74.5672366 26.8880305,71.6175573 C26.6025344,71.0529466 26.3193893,70.482626 26.0385954,69.9076031 C27.6370382,69.6859237 30.0889466,69.2654046 31.1953282,68.6584733 C33.9441527,67.1517252 34.2561832,65.0551756 33.2690382,63.9185649 C32.3302595,62.8377099 30.2602443,62.372855 28.5334962,64.1556947 C27.2877252,65.4424427 26.7284885,66.2965802 25.8840916,67.8516947 C25.7416794,68.1140153 25.5858321,68.3864122 25.4323359,68.6470534 C23.776458,65.1512366 22.2592977,61.4851298 21.1220153,57.7263206 C21.8152672,57.5006107 22.6643664,57.2342595 23.2491298,57.0854656 C24.8096183,56.688458 26.5934656,55.7214656 27.9698931,54.6718473 C29.6516336,53.3898015 30.1561221,51.392 29.4769771,50.5650687 C28.7978321,49.7384733 26.9763664,50.1405191 26.2236641,50.3726107 C25.4709618,50.6050382 23.4036336,51.6905954 22.2351145,53.5681527 C21.8055267,54.2587176 21.2167328,55.4252214 20.7411298,56.4056489 C19.6760611,52.5541374 19.0368855,48.6166412 19.0758473,44.6754504 C20.1049771,45.1030229 21.6647939,45.4899542 23.8624427,45.3801221 C26.3392061,45.2561832 27.351542,44.2183206 27.8043053,43.5025649 C28.2574046,42.7868092 28.1667176,42.0895267 27.5890076,41.6921832 C26.7425954,41.109771 24.9439695,40.7450076 22.7597557,41.1242137 C21.4854351,41.3455573 20.1627481,41.9985038 19.1604885,42.5936794 C19.2548702,41.2945038 19.4238168,39.9970076 19.6847939,38.7032061 C20.2272366,36.0151756 21.1747481,33.4272366 22.5407634,31.1130382 C22.8978015,31.5550534 23.2864122,32.0172214 23.5806412,32.3178321 C24.7840916,33.5474809 25.8750229,34.5017099 27.2786565,35.0364275 C29.0027176,35.6930687 30.8040305,35.1405496 31.1761832,34.2901069 C31.5483359,33.4396641 30.5208855,32.1891908 30.0452824,31.6984733 C29.5693435,31.2077557 27.9168244,30.0358779 26.0053435,29.8709618 C25.3379542,29.8131908 24.2822901,29.8135267 23.3680305,29.8289771 C24.9832672,27.4989924 27.0680611,25.5109313 29.6580153,24.0834504 C30.2992061,23.7301069 30.9538321,23.4254656 31.616855,23.1570992 C31.7260153,23.6320305 31.8482748,24.1156947 31.9597863,24.4556031 C32.4642748,25.9919084 32.9879084,27.249771 33.9501985,28.2832672 C35.1318168,29.5525496 36.8800611,29.834687 37.5471145,29.2717557 C38.2138321,28.7091603 37.8668702,27.2279389 37.6690382,26.6166412 C37.471542,26.0053435 36.564,24.3306565 35.0206412,23.3982595 C34.6125496,23.1517252 34.0029313,22.8403664 33.393313,22.5447939 C36.7792977,21.5616794 40.3537099,21.565374 43.8203053,22.3137099 C43.6812519,22.5515115 43.5552977,22.7778931 43.4636031,22.9643053 C42.7908397,24.3299847 42.3138931,25.5206718 42.2799695,26.8490687 C42.2379847,28.4810992 43.2281527,29.8225954 44.0473588,29.8837252 C44.8665649,29.944855 45.6085191,28.7202443 45.8785649,28.179145 C46.1486107,27.6380458 46.6413435,25.9143206 46.2181374,24.2701985 C46.1177099,23.8799084 45.9417099,23.3472061 45.7509313,22.8077863 C46.408916,23.0039389 47.0618626,23.2212519 47.7057405,23.4671145 C48.9807328,23.9544733 49.5322443,21.906626 48.2690076,21.4239695 C47.4985038,21.1294046 46.7179237,20.8778321 45.9319695,20.6598473 C46.3541679,20.0287328 46.804916,19.3277557 47.060855,18.8471145 C47.8595725,17.3490992 47.7863511,15.5578626 47.6513282,14.9683969 C47.5163053,14.3789313 47.0833588,13.0139237 46.2728855,12.8802443 C45.4624122,12.7465649 44.1843969,13.8176794 43.8407939,15.4134351 C43.5610076,16.7126107 43.7440611,17.9818931 44.0765802,19.4678168 C44.1262901,19.6901679 44.2038779,19.9679389 44.2925496,20.2598168 C40.1162443,19.3915725 35.8415267,19.5917557 31.9570992,20.8875725 C31.9722137,19.9843969 31.9738931,18.876 31.9127634,18.1958473 C31.7518779,16.3995725 30.6451603,14.8494962 30.1823206,14.4037863 C29.7198168,13.9580763 28.5408855,12.9961221 27.7425038,13.3487939 C26.944458,13.7011298 26.4305649,15.3963053 27.0529466,17.0149008 C27.5597863,18.3328855 28.4602748,19.3552977 29.6197252,20.4828397 C29.8796947,20.7357557 30.2686412,21.0635725 30.6528855,21.3739237 C27.1167634,22.8148397 23.9712672,25.2103206 21.6107176,28.580855 C21.2153893,27.7482137 20.7387786,26.7855878 20.3861069,26.2061985 C19.3885496,24.5674504 17.6040305,23.6078473 16.9530992,23.3999389 C16.3021679,23.1920305 14.7252214,22.8276031 14.1290382,23.5389924 C13.5325191,24.2507176 13.8385038,26.1094656 15.1930992,27.3622901 C16.2957863,28.3823511 17.6356031,28.9348702 19.2723359,29.4665649 C19.6639695,29.5938626 20.2352977,29.7332519 20.7797557,29.8548397 C18.4319695,33.7678168 17.3091298,38.0264122 17.0407634,42.3824122 C16.224916,41.6878168 15.015084,40.92 13.2379542,40.317771 C10.8898321,39.5217405 9.5661374,40.1145649 8.8819542,40.6133435 C8.19743511,41.1121221 8.02512977,41.7939542 8.41575573,42.3760305 C8.98876336,43.2291603 10.527084,44.2300763 12.6978626,44.6808244 C14.112916,44.9747176 15.782229,44.7899847 16.9762748,44.5709924 C16.9829924,48.7294962 17.7037863,52.9380458 18.8289771,56.9867176 C17.8730687,56.6041527 16.7858321,56.190687 16.0673893,55.9847939 C13.9416183,55.3758473 11.6798168,55.9575878 10.9660763,56.2901069 C10.252,56.622626 8.63138931,57.5462901 8.68210687,58.6150534 C8.73316031,59.6838168 10.4474809,60.8268092 12.5544427,60.6498015 C14.2795115,60.5050382 16.2511145,60.0257405 17.6745649,59.2730382 C18.1021374,59.0473282 18.7063817,58.7635115 19.2723359,58.5065649 C19.769771,60.136916 20.3256489,61.7370382 20.9221679,63.2908092 C21.7349924,65.4085191 22.6217099,67.5054046 23.5759389,69.5747481 C23.2833893,69.5643359 22.981771,69.5498931 22.6942595,69.5297405 C20.9288855,69.4061374 19.9081527,69.418229 18.1535267,69.7776183 C15.7221069,70.2753893 15.0016489,72.2711756 15.4087328,73.6439084 C15.8366412,75.0871756 17.7726412,75.9507176 20.520458,74.4422901 C21.5798168,73.8608855 23.1574351,72.1479084 24.2080611,70.9246412 C25.9364885,74.530626 27.8889466,78.0375267 30.0634198,81.3956336 C28.9288244,81.3083053 27.3454962,81.4073893 25.3161221,82.0542901 C22.8292824,82.8469618 22.0487023,84.1138931 21.7598473,84.92 C21.4709924,85.7264427 21.7299542,86.3676336 22.4117863,86.5896489 C23.4116947,86.9151145 25.3265344,86.773374 27.4556641,85.816458 C28.8982595,85.1678779 30.2646107,83.9483053 31.1567023,83.0414351 C33.3338626,86.2423511 35.7189313,89.2964885 38.3270229,92.1460763 C38.444916,92.2747176 38.5685191,92.3986565 38.687084,92.5269618 C37.5309924,92.4057099 35.8579847,92.4695267 33.6660458,93.1681527 C31.1587176,93.9672061 30.3717557,95.2445496 30.0805496,96.057374 C29.7893435,96.8705344 30.0506565,97.5167634 30.7381985,97.740458 C31.7458321,98.0686107 33.6767939,97.9258626 35.8230534,96.9612214 C37.4782595,96.2172519 39.0343817,94.7279695 39.8975878,93.8066565 C42.6370076,96.6777405 45.5225344,99.420855 48.4903511,102.077985 C47.3171298,102.217038 45.7247328,102.541832 44.6317863,103.303267 C42.9772519,104.456672 42.182229,105.992305 42.1523359,107.070809 C42.1318473,107.806046 42.6605191,108.47142 43.5374962,108.783786 C44.4141374,109.096153 45.9037557,109.308092 47.5230229,107.735176 C49.1916641,106.114565 49.7770992,104.493618 49.9705649,103.385557 C53.0747481,106.118931 56.2397252,108.781771 59.3838779,111.42916 C58.2388702,111.593405 56.6659542,112.051878 54.7564885,113.203267 C52.5034198,114.562565 52.0345344,115.987359 51.9398168,116.846198 C51.8450992,117.704702 52.2494962,118.272336 52.9699542,118.330443 C54.026626,118.415756 55.8712672,117.828641 57.7350534,116.392092 C59.067145,115.364977 60.1688244,113.733618 60.8210992,112.627237 C64.1288244,115.400916 67.4607328,118.145038 70.8054046,120.873374 C69.6449466,121.004702 67.9763053,121.445038 65.9240916,122.683084 C63.670687,124.042382 63.2018015,125.467176 63.1074198,126.325679 C63.0127023,127.184519 63.4167634,127.752153 64.1372214,127.81026 C65.1938931,127.895573 67.0385344,127.308458 68.9023206,125.871908 C70.3099847,124.787023 71.4590229,123.028702 72.0938321,121.926687 C77.4007023,126.245405 82.733771,130.53255 88.057771,134.830443 C88.1810382,134.929863 88.310687,134.994351 88.4416794,135.034321 L88.489374,141.500641 C87.0968244,140.20516 85.8863206,139.579084 83.9227786,138.935542 C83.4119084,138.768275 80.2566718,138.248336 80.2267786,140.437924 C80.2126718,141.496947 82.0798168,142.652366 83.0837557,143.017802 C84.2485802,143.441679 85.5749618,143.618015 86.4690687,143.789649 C87.0820458,143.90687 87.8337405,144.02174 88.5303511,143.995206 L88.5498321,155.274992 L90.5973435,155.30287 L90.5489771,143.68116 C91.2486107,143.726504 92.0469924,143.735237 92.6781069,143.622718 C94.7686107,143.252916 97.0979237,142.186168 97.515084,141.127145 C98.0974962,139.650962 96.7768244,138.551969 95.1054962,139.04 C93.1214656,139.619725 91.9700763,140.270321 90.5274809,141.642718 C90.5274809,141.642718 90.491542,138.502931 90.4660153,134.914076 C90.5086718,134.887542 90.5523359,134.863695 90.5939847,134.830107 C95.9179847,130.532214 101.251053,126.245069 106.557924,121.926015 C107.192733,123.028031 108.341771,124.786687 109.749435,125.871573 C111.613221,127.308122 113.458198,127.895237 114.514534,127.809924 C115.235328,127.751817 115.639389,127.184183 115.544672,126.325344 C115.449954,125.46684 114.981069,124.042046 112.727664,122.682748 C110.678137,121.446382 109.01084,121.005374 107.850718,120.87371 C110.451756,118.751969 113.04742,116.623847 115.627634,114.47658 C116.363542,113.864275 117.100122,113.250626 117.836366,112.636305 C118.489649,113.742687 119.588305,115.367664 120.916702,116.391756 C122.780489,117.827969 124.625466,118.415084 125.681802,118.330107 C126.402595,118.272 126.806656,117.704366 126.711939,116.845863 C126.617221,115.987023 126.148336,114.562229 123.895267,113.202931 C121.991847,112.054901 120.423298,111.596092 119.278962,111.430504 C122.442595,108.78345 125.590779,106.10684 128.678168,103.364061 C128.867267,104.472458 129.448672,106.103145 131.128397,107.73484 C132.747664,109.307756 134.237282,109.095817 135.113924,108.78345 C135.990901,108.471084 136.519573,107.806046 136.499084,107.070473 C136.469191,105.991969 135.674168,104.456336 134.019634,103.302931 C132.916611,102.534107 131.304733,102.210656 130.128489,102.073954 C132.928031,99.5481527 135.666779,96.9588702 138.302748,94.2721832 C138.454229,94.1176794 138.601008,93.9584733 138.750809,93.8029618 C139.613344,94.7236031 141.171145,96.2159084 142.828031,96.9605496 C144.97429,97.9251908 146.905252,98.0679389 147.912885,97.7397863 C148.600427,97.5160916 148.86174,96.8698626 148.570534,96.0567023 C148.278992,95.2438779 147.492366,93.9665344 144.985038,93.1674809 C142.788733,92.4675115 141.113374,92.4047023 139.956947,92.5269618 C142.692336,89.5604885 145.206046,86.3790534 147.489008,83.0350534 C148.380763,83.9422595 149.749802,85.1658626 151.19542,85.8154504 C153.324214,86.7723664 155.239389,86.9141069 156.239298,86.5886412 C156.920794,86.366626 157.180427,85.725771 156.891237,84.9189924 C156.602046,84.1128855 155.821802,82.8459542 153.334962,82.0532824 C151.302901,81.4057099 149.718229,81.3069618 148.582962,81.3952977 C150.766504,78.0378626 152.722992,74.5316336 154.449069,70.9310229 C155.499359,72.1539542 157.073282,73.8612214 158.13029,74.4416183 C160.878107,75.9500458 162.814107,75.0865038 163.242015,73.6432366 C163.649099,72.2708397 162.928305,70.2750534 160.497221,69.7769466 C158.742595,69.4178931 157.721863,69.4054656 155.956489,69.5290687 C155.672,69.5492214 155.373069,69.5633282 155.083542,69.5737405 C155.48458,68.7024733 155.876885,67.8281832 156.250718,66.9475115 C157.407817,64.2221985 158.489008,61.393771 159.37942,58.506229 C159.945374,58.7635115 160.548611,59.0466565 160.976183,59.2723664 C162.399634,60.0247328 164.371237,60.5040305 166.096305,60.6491298 C168.203267,60.8261374 169.917588,59.683145 169.968641,58.6143817 C170.019359,57.5456183 168.399084,56.6219542 167.684672,56.2894351 C166.970595,55.956916 164.70913,55.3751756 162.583359,55.9841221 C161.866595,56.1893435 160.783389,56.6011298 159.829496,56.9830229 C160.977527,52.9105038 161.705038,48.735542 161.693954,44.5740153 C162.886656,44.7913282 164.545221,44.9730382 165.953221,44.6804885 C168.124,44.2297405 169.661985,43.2284885 170.235328,42.3756947 C170.626962,41.7909313 170.454992,41.1094351 169.770473,40.6103206 Z" fill="#FDFBF9"></path>
            </g>
            <g id="Group" fill="#E2231A">
                <g id="Path">
                    <path d="M92.678535,182.662983 C93.5246844,183.887356 93.6205056,186.617774 92.9253962,188.420143 C92.2302869,190.222512 91.1340281,191.362222 88.9041564,191.816477 C86.6759088,192.269105 83.3741395,190.821674 82.1073515,189.086059 C80.8438117,187.350445 80.4621512,184.647705 81.8198881,182.402478 C83.1792491,180.157251 86.1854344,178.726101 88.3308536,179.429465 C90.4762728,180.132828 91.8064002,181.399534 92.678535,182.662983 Z"></path>
                    <path d="M110.525629,189.258644 C111.371778,190.483017 111.4676,193.215063 110.77249,195.015804 C110.077381,196.818173 108.979498,197.957882 106.75125,198.412138 C104.521379,198.864765 101.219609,197.417334 99.9528215,195.68172 C98.6892817,193.946105 98.3076212,191.243366 99.6669821,188.998139 C101.024719,186.752911 104.030904,185.321762 106.176324,186.025125 C108.321743,186.728489 109.65187,187.995194 110.525629,189.258644 Z"></path>
                    <path d="M76.9898528,171.357066 C77.8360022,172.579812 77.9318234,175.311858 77.2367141,177.112598 C76.5416048,178.914967 75.4453459,180.054677 73.2154742,180.508932 C70.9872266,180.963188 67.6854574,179.515757 66.4186694,177.778514 C65.1535054,176.044528 64.773469,173.34016 66.1312059,171.096561 C67.4889428,168.849706 70.4951282,167.418556 72.6421714,168.12192 C74.7908388,168.825283 76.117718,170.093617 76.9898528,171.357066 Z"></path>
                    <path d="M60.7197474,157.200248 C61.5658969,158.422993 61.661718,161.153411 60.9666087,162.95578 C60.2714994,164.758149 59.1736164,165.897858 56.9453688,166.352114 C54.7171212,166.80637 51.4137279,165.357311 50.148564,163.621696 C48.8834001,161.88771 48.5017396,159.183342 49.8611006,156.939743 C51.2188374,154.692887 54.2250228,153.261738 56.3720661,153.965102 C58.5191093,154.666837 59.8459885,155.936799 60.7197474,157.200248 Z"></path>
                    <path d="M46.4440211,142.887127 C47.2901705,144.1115 47.3859917,146.843546 46.6908824,148.644287 C45.9957731,150.446656 44.8995142,151.587994 42.6696425,152.040621 C40.4413949,152.494877 37.1380016,151.047446 35.8728377,149.310203 C34.6076737,147.576217 34.2260133,144.873477 35.5853742,142.626622 C36.9431111,140.381394 39.9492965,138.950245 42.0963397,139.653609 C44.243383,140.355344 45.5702622,141.625306 46.4440211,142.887127 Z"></path>
                    <path d="M34.0213783,125.653093 C34.8675277,126.875839 34.9633488,129.607885 34.2682395,131.410254 C33.5731302,133.210994 32.4768714,134.352332 30.2469997,134.804959 C28.0187521,135.259215 24.7169828,133.811784 23.4501948,132.074541 C22.186655,130.340555 21.8049945,127.637816 23.1627314,125.392588 C24.5220923,123.145733 27.5282777,121.714583 29.6736969,122.417947 C31.8191161,123.12131 33.1492435,124.389644 34.0213783,125.653093 Z"></path>
                    <path d="M23.1237533,106.932553 C23.9699027,108.155299 24.0657239,110.887345 23.3706145,112.689714 C22.6755052,114.490454 21.5776223,115.631792 19.3493747,116.084419 C17.119503,116.538675 13.8177337,115.091244 12.5525698,113.354001 C11.2874059,111.620015 10.9073695,108.917276 12.2651064,106.672048 C13.6228433,104.426821 16.6290286,102.994043 18.7744478,103.697407 C20.9247392,104.399142 22.2499944,105.669104 23.1237533,106.932553 Z"></path>
                    <path d="M14.119814,85.7730352 C14.9659634,86.9957805 15.0617845,89.7278266 14.3666752,91.5301955 C13.6715659,93.3309363 12.573683,94.4722738 10.3454353,94.9265293 C8.11556364,95.3791568 4.81379441,93.9317259 3.54863049,92.1944832 C2.28346658,90.4604969 1.90343018,87.7577576 3.26116706,85.5125302 C4.61890394,83.2673027 7.62508932,81.8345253 9.77213257,82.5378888 C11.9191758,83.2396241 13.246055,84.5095859 14.119814,85.7730352 Z"></path>
                    <path d="M12.1238108,62.3829431 C12.9699602,63.6056884 13.0657814,66.3377345 12.3706721,68.1384753 C11.6755627,69.9408442 10.5793039,71.0821817 8.3494322,71.5348091 C6.12118459,71.9890647 2.81779126,70.5416338 1.55262735,68.8043912 C0.287463431,67.0704048 -0.0925729693,64.3660373 1.26516391,62.1224381 C2.6229008,59.8755825 5.62908617,58.4444332 7.77450534,59.1477967 C9.92479676,59.849532 11.251676,61.1178657 12.1238108,62.3829431 Z"></path>
                    <path d="M14.119814,40.6845053 C14.9659634,41.9072506 15.0617845,44.6392967 14.3666752,46.4416656 C13.6715659,48.2440346 12.573683,49.3837439 10.3454353,49.8379995 C8.11556364,50.2906269 4.81379441,48.8431961 3.54863049,47.1075815 C2.28346658,45.371967 1.90343018,42.6692277 3.26116706,40.4240003 C4.61890394,38.1787729 7.62508932,36.7459954 9.77213257,37.4493589 C11.9191758,38.1510942 13.246055,39.4210561 14.119814,40.6845053 Z"></path>
                    <path d="M24.8712711,18.9844394 C25.7174205,20.2088128 25.8132417,22.9408589 25.1181323,24.7415997 C24.423023,26.5439686 23.3251401,27.6853061 21.0968925,28.1379336 C18.8670208,28.590561 15.5652515,27.1447583 14.3000876,25.4075156 C13.0349237,23.6735292 12.6548873,20.9707899 14.0126242,18.7239344 C15.3703611,16.478707 18.3765465,15.0475576 20.5219656,15.7509211 C22.672257,16.4542846 23.9975122,17.7226183 24.8712711,18.9844394 Z"></path>
                    <path d="M40.8457926,7.58734591 C41.691942,8.81009122 41.7877632,11.5421373 41.0926539,13.3445063 C40.3975445,15.145247 39.2996616,16.2865845 37.071414,16.7392119 C34.8431664,17.1934675 31.5397731,15.7460367 30.2746091,14.0104221 C29.0094452,12.2748076 28.6277847,9.57206832 29.9871457,7.32684091 C31.3448826,5.07998535 34.351068,3.64883604 36.4964871,4.35219952 C38.6467786,5.055563 39.9720337,6.32552485 40.8457926,7.58734591 Z"></path>
                    <path d="M60.8772839,3.89468763 C61.7234333,5.11743294 61.8192545,7.84947906 61.1241452,9.65184798 C60.4290358,11.4542169 59.332777,12.5939262 57.1029053,13.0481818 C54.8746577,13.5008093 51.5728884,12.0533784 50.3061004,10.3177639 C49.0425606,8.58214935 48.659276,5.87941004 50.018637,3.63418263 C51.3763739,1.38732707 54.3825593,-0.0438222383 56.5296025,0.659541243 C58.6782699,1.36127657 60.0051491,2.63286657 60.8772839,3.89468763 Z"></path>
                    <path d="M80.4491585,6.33366563 C81.2953079,7.55641094 81.3911291,10.2884571 80.6960198,12.090826 C80.0009105,13.8931949 78.9046516,15.0329042 76.6747799,15.4871598 C74.4465323,15.9397873 71.1447631,14.4923564 69.8779751,12.7551137 C68.6144352,11.0211273 68.2327747,8.31838804 69.5905116,6.07316063 C70.9498726,3.82630507 73.9544339,2.39515576 76.1014771,3.09851924 C78.2501445,3.80025457 79.5770237,5.07184457 80.4491585,6.33366563 Z"></path>
                    <path d="M95.5044467,14.9303304 C96.3505961,16.1547039 96.4464173,18.8851218 95.7513079,20.6874908 C95.0561986,22.4898597 93.9583157,23.629569 91.7300681,24.0838246 C89.5001964,24.536452 86.1984271,23.0890212 84.9332632,21.3534066 C83.6680993,19.6177921 83.2864388,16.9150528 84.6441757,14.6698254 C86.0035367,12.424598 89.0097221,10.9934487 91.1551412,11.6968122 C93.3005604,12.4001757 94.6306878,13.6685093 95.5044467,14.9303304 Z"></path>
                </g>
                <g transform="translate(111.255814, 0.000000)" id="Path">
                    <path d="M5.38640724,182.993019 C4.5393447,184.216175 4.44342016,186.949138 5.13927959,188.750483 C5.83513902,190.553456 6.93258088,191.693548 9.16485891,192.147956 C11.3955111,192.602364 14.7008434,191.152819 15.9689984,189.416622 C17.2371535,187.680425 17.6176,184.976779 16.2567721,182.732427 C14.89757,180.484818 11.8881406,179.053188 9.73878036,179.756788 C7.58779432,180.458758 6.2594832,181.727518 5.38640724,182.993019 Z"></path>
                    <path d="M19.9766935,171.412945 C19.129631,172.6361 19.0337065,175.369063 19.7295659,177.170408 C20.4270512,178.973382 21.524493,180.113474 23.7551452,180.567881 C25.9874233,181.022289 29.2927556,179.574373 30.5609106,177.836547 C31.825814,176.101979 32.2078863,173.396704 30.8486842,171.152352 C29.4878563,168.904743 26.4784269,167.473114 24.3306925,168.176713 C22.1829581,168.880313 20.8513953,170.149072 19.9766935,171.412945 Z"></path>
                    <path d="M36.2676083,157.251377 C35.4205457,158.474532 35.3246212,161.205866 36.0204806,163.00884 C36.7163401,164.811814 37.8137819,165.951905 40.0444341,166.406313 C42.2767121,166.860721 45.5820444,165.411176 46.8501995,163.674979 C48.1151028,161.940411 48.4971752,159.235136 47.1379731,156.990784 C45.7771452,154.743175 42.7677158,153.311546 40.6199814,154.015145 C38.472247,154.718744 37.1406842,155.987504 36.2676083,157.251377 Z"></path>
                    <path d="M50.5571142,142.933453 C49.7100517,144.158238 49.6141271,146.8912 50.3116124,148.692545 C51.0074718,150.495519 52.1049137,151.637239 54.3355659,152.090019 C56.5678439,152.544427 59.8731762,151.09651 61.1413313,149.358685 C62.4062346,147.624116 62.788307,144.92047 61.4291049,142.672861 C60.068277,140.42688 57.0588475,138.995251 54.9111132,139.69885 C52.7633788,140.40245 51.431816,141.671209 50.5571142,142.933453 Z"></path>
                    <path d="M62.991537,125.693638 C62.1444744,126.916793 62.0485499,129.649756 62.7444093,131.45273 C63.4402687,133.254074 64.5393364,134.395795 66.7699886,134.848574 C69.0006408,135.302982 72.307599,133.855066 73.5741282,132.11724 C74.8406574,130.382672 75.2227297,127.679026 73.8619018,125.433045 C72.5026997,123.185436 69.4932703,121.753806 67.3439101,122.457406 C65.1945499,123.159376 63.8662388,124.429764 62.991537,125.693638 Z"></path>
                    <path d="M73.9025478,106.966816 C73.0554853,108.189972 72.9595607,110.922935 73.6554202,112.725908 C74.3512796,114.527253 75.4487214,115.668974 77.6809995,116.121753 C79.9116517,116.576161 83.216984,115.128245 84.485139,113.390419 C85.7500424,111.655851 86.1321147,108.952205 84.7729127,106.706224 C83.4120848,104.458615 80.4042811,103.026985 78.2549209,103.730585 C76.1055607,104.432555 74.7756238,105.702943 73.9025478,106.966816 Z"></path>
                    <path d="M82.9162036,85.800199 C82.0691411,87.0233546 81.9732165,89.7563173 82.669076,91.559291 C83.3649354,93.3606359 84.4623773,94.5023564 86.6946553,94.9567644 C88.9253075,95.4095436 92.2306398,93.9616271 93.4987948,92.2238016 C94.7636982,90.4892335 95.1457705,87.7855873 93.7865685,85.5396066 C92.4257406,83.2919972 89.4163111,81.8603677 87.2685767,82.5639672 C85.1208424,83.2675667 83.7892796,84.5363259 82.9162036,85.800199 Z"></path>
                    <path d="M84.9143607,62.4022592 C84.0672982,63.6254148 83.9713736,66.3583775 84.6672331,68.1597225 C85.3630925,69.9626961 86.4605344,71.1044165 88.6928124,71.5571958 C90.9234646,72.0116038 94.2304227,70.5636873 95.4969519,68.8258618 C96.7634811,67.0912936 97.1455535,64.3860188 95.7847256,62.1416668 C94.4255235,59.8940574 91.4160941,58.4624279 89.2667339,59.1660274 C87.1157478,59.8679981 85.7874367,61.1367574 84.9143607,62.4022592 Z"></path>
                    <path d="M82.9162036,40.6965413 C82.0691411,41.9196968 81.9732165,44.6526596 82.669076,46.4556332 C83.3649354,48.2586069 84.4623773,49.3986986 86.6946553,49.8531066 C88.9253075,50.3058859 92.2306398,48.8579694 93.4987948,47.1217725 C94.7636982,45.3855757 95.1457705,42.6819296 93.7865685,40.4359489 C92.4257406,38.1883394 89.4163111,36.75671 87.2685767,37.4603094 C85.1208424,38.1639089 83.7892796,39.4326681 82.9162036,40.6965413 Z"></path>
                    <path d="M72.1531442,18.9891946 C71.3060817,20.2139789 71.2101571,22.9469416 71.9060165,24.7482866 C72.601876,26.5512602 73.6993178,27.6929807 75.9315959,28.1457599 C78.1622481,28.5985392 81.4675804,27.1522514 82.7357354,25.4144259 C84.0006388,23.6798577 84.384337,20.9762116 83.023509,18.7286022 C81.664307,16.4826215 78.6548775,15.050992 76.5055173,15.7545915 C74.3545313,16.4581909 73.0262202,17.7269502 72.1531442,18.9891946 Z"></path>
                    <path d="M56.161384,7.58827725 C55.3143214,8.81143281 55.2183969,11.5443956 55.9142563,13.3473692 C56.6101158,15.1487142 57.7075576,16.2904346 59.9398357,16.7432139 C62.1704879,17.1976219 65.4758202,15.7497054 66.7439752,14.0135085 C68.0088786,12.2773117 68.3909509,9.57366557 67.0317488,7.32768485 C65.6709209,5.08007543 62.6614915,3.64844595 60.5137571,4.35204542 C58.3660227,5.05564489 57.0344599,6.32603282 56.161384,7.58827725 Z"></path>
                    <path d="M36.1066501,3.89438002 C35.2595876,5.11753558 35.163663,7.85049835 35.8595225,9.65347199 C36.5553819,11.4564456 37.6544496,12.5965374 39.8851018,13.0509454 C42.1173798,13.5037247 45.4227121,12.0558081 46.6892413,10.3196113 C47.9557705,8.58341446 48.3378429,5.87976834 46.9786408,3.63378763 C45.6178129,1.3861782 42.6083835,-0.0454512762 40.4606491,0.658148195 C38.3129147,1.36174767 36.9813519,2.6321356 36.1066501,3.89438002 Z"></path>
                    <path d="M16.5136548,6.33417634 C15.6665922,7.5573319 15.5706677,10.2902947 16.2665271,12.0932683 C16.9623866,13.8962419 18.0614543,15.0363337 20.2921065,15.4907417 C22.5243845,15.943521 25.8297168,14.4956045 27.096246,12.7577789 C28.3627752,11.0232108 28.7448475,8.31956466 27.3840196,6.07358394 C26.0248176,3.82597452 23.0153881,2.39434504 20.8676537,3.09794451 C18.7166677,3.79991528 17.3883566,5.07193191 16.5136548,6.33417634 Z"></path>
                    <path d="M1.44537158,14.9337254 C0.598309044,16.1585097 0.502384496,18.8898438 1.19824393,20.6928174 C1.89410336,22.495791 2.99154522,23.6358828 5.22382326,24.0902908 C7.45447545,24.5430701 10.7614336,23.0951536 12.0279628,21.3589567 C13.294492,19.6227599 13.6765643,16.9191138 12.3157364,14.673133 C10.9565344,12.4271523 7.94710491,10.9955228 5.7977447,11.6991223 C3.64675866,12.4027218 2.31844755,13.671481 1.44537158,14.9337254 Z"></path>
                </g>
                <path d="M110.566119,27.4503506 C111.389765,28.6190103 111.483038,31.23021 110.806415,32.9528548 C110.129792,34.6754997 109.061108,35.7647963 106.892121,36.1989588 C104.723135,36.6315652 101.507596,35.2481585 100.27608,33.5877592 C99.0445633,31.9304721 98.6730532,29.3472829 99.9962615,27.2013685 C101.317889,25.0538979 104.244124,23.6860526 106.332485,24.3583042 C108.425589,25.0305559 109.715598,26.2443436 110.566119,27.4503506 Z" id="Path"></path>
            </g>
        </g>
    </g>
</svg>