<?xml version="1.0" encoding="UTF-8"?>
<svg width="240px" height="360px" viewBox="0 0 240 360" version="1.1" xmlns="http://www.w3.org/2000/svg" xmlns:xlink="http://www.w3.org/1999/xlink">
    <!-- Generator: Sketch 52.5 (67469) - http://www.bohemiancoding.com/sketch -->
    <title>card8</title>
    <desc>Created with Sketch.</desc>
    <g id="card8" stroke="none" stroke-width="1" fill="none" fill-rule="evenodd">
        <rect fill="#FFFFFF" x="0" y="0" width="240" height="360"></rect>
        <g id="Group" transform="translate(8.000000, 117.000000)">
            <path d="M59.1428736,55.9199422 C59.1428736,55.9199422 66.6707292,62.5222816 74.9457906,66.5417473 C84.0129386,70.9457329 96.6382094,72.5768087 106.292448,71.9820361 C121.836188,71.0241733 131.680866,64.2099639 142.561444,55.9199422 C156.320462,45.4368231 168.275755,32.4549314 176.239884,25.0912347 C184.827495,17.1513646 186.600895,11.2877401 196.188014,11.1017473 C207.328173,10.8858339 209.937733,19.6517545 211.472982,23.5365776 C214.581487,31.4036679 223.735567,34.4232202 223.735567,34.4232202 C223.735567,34.4232202 214.320289,38.7823249 212.768462,40.9855307 C208.890917,46.489704 204.218859,54.883639 199.555697,64.9870903 C194.892939,75.0905415 182.025473,98.0190036 168.986166,110.323235 C150.592693,127.680809 124.427148,131.048491 98.5207798,118.613256 C79.8349747,109.643957 70.1584982,94.2526498 66.9149458,87.2665993 C60.1791769,72.7591625 59.1428736,55.9199422 59.1428736,55.9199422 Z" id="Path" fill="#04586B"></path>
            <path d="M106.368462,71.9711191 C100.090801,72.358065 92.5787148,71.8372852 85.5833646,70.1912491 C85.5845776,70.1940794 85.5833646,70.1912491 85.5688087,70.1584982 C91.5270469,83.6296318 119.877199,98.8042166 142.921704,90.8635379 C161.224606,84.5567653 168.103509,65.2567798 169.548188,54.9273069 C170.609964,47.3355668 170.955264,38.7515957 169.764101,31.3333141 C162.374931,38.6028014 153.022729,47.9970542 142.637863,55.9094296 C131.756477,64.1990469 121.912606,71.0136606 106.368462,71.9711191 Z" id="Path" fill="#E2231A"></path>
            <g transform="translate(80.462094, 69.949458)" fill="#FEFAF8" id="Path">
                <path d="M5.12127076,0.241790614 C4.87220217,0.275754513 3.9766065,1.0294296 3.65920578,1.25545126 C0.57900361,3.4481444 -0.828476534,8.90864982 0.858801444,13.2976751 C4.35384838,22.3886787 18.4047942,19.8713069 20.2885776,16.3811119 C20.4478845,16.0863538 20.6633935,15.6711047 20.7551769,15.2995235 C13.6227581,10.9278845 7.70778339,5.35982671 5.12127076,0.241790614 Z"></path>
            </g>
            <g transform="translate(83.292419, 72.779783)" fill="#E2231A" id="Path">
                <path d="M4.03038267,0.253516245 C3.88320578,0.319018051 -1.48147292,4.35425271 0.864057762,9.51959567 C3.68265704,15.7277112 12.5625993,13.6999856 14.4649819,11.6783249 C14.6578484,11.4733285 15.0565199,10.8510614 15.1131264,10.6036101 C10.2663971,7.2246065 6.95976895,4.00976173 4.03038267,0.253516245 Z"></path>
            </g>
            <g transform="translate(87.740072, 76.014440)" fill="#FEFAF8" id="Path">
                <path d="M2.00831769,0.00283032491 C1.93472924,0.0355812274 -0.885487365,2.56306137 0.46134296,4.8839278 C2.66333574,8.67737184 7.41706859,5.16251264 7.44496751,5.03919134 C5.10873646,3.23344404 3.73602888,1.79806498 2.00831769,0.00283032491 Z"></path>
            </g>
            <g transform="translate(99.465704, 84.909747)" fill="#FEFAF8" id="Path">
                <path d="M1.75156679,0.339234657 C1.46287365,0.607711191 0.910151625,2.14336462 0.625906137,3.02076534 C-0.54099639,6.61729964 0.853949458,13.5220794 5.01371841,15.7147726 C13.4011841,20.1357401 22.3041733,14.6392491 22.7816895,9.61097473 C22.8823682,8.55202888 22.7970542,7.96534296 22.6644332,7.61114801 C18.3372708,7.05519134 14.0715668,5.66833213 10.4544116,4.38619495 C7.13484477,3.20958845 4.7391769,2.07988448 1.75156679,0.339234657 Z"></path>
            </g>
            <g transform="translate(102.700361, 86.527076)" fill="#E2231A" id="Path">
                <path d="M1.58659928,0.396245487 C1.46812996,0.546252708 0.831711191,1.69496029 0.59598556,2.37181227 C-0.275754513,4.87058484 0.723350181,9.78483755 3.66769675,11.2574152 C9.35664982,14.103509 15.5538484,10.4523899 15.8886354,6.93227437 C15.9589892,6.19113357 15.9808231,5.61455596 15.8878267,5.36629603 C11.4114657,4.16906859 10.1705704,3.81446931 7.6386426,2.91685199 C5.31454152,2.09322744 4.11731408,1.56880866 1.58659928,0.396245487 Z"></path>
            </g>
            <g transform="translate(106.743682, 88.144404)" fill="#FEFAF8" id="Path">
                <path d="M1.03832491,0.332765343 C0.979292419,0.407566787 0.710815884,0.961906137 0.592750903,1.2999278 C0.156880866,2.54931408 0.131407942,4.72987726 2.12840433,5.74272924 C4.98784116,7.19347292 8.07168231,5.34001444 8.23867148,3.58036101 C8.27425271,3.20958845 8.31549458,2.90270036 8.26940072,2.77897473 C6.08438989,2.14659928 5.5773574,1.99982671 4.31098917,1.55101805 C3.14974729,1.13900361 2.37302527,0.885487365 1.03832491,0.332765343 Z"></path>
            </g>
            <path d="M122.130137,92.5208953 C122.130137,92.5208953 120.737617,101.22374 128.766845,103.913357 C134.56335,105.854556 141.569617,103.87252 143.1267,97.889213 C144.289155,93.4197256 143.181285,90.7753935 143.181285,90.7753935 C143.181285,90.7753935 138.503567,92.5779061 132.674715,92.8856029 C126.223596,93.2256462 122.130137,92.5208953 122.130137,92.5208953 Z" id="Path" fill="#FEFAF8"></path>
            <path d="M125.261285,92.8043321 C125.261285,92.8043321 124.174845,99.0589458 129.795466,100.941516 C133.852939,102.300477 138.757487,100.913213 139.847162,96.7243321 C140.661083,93.5956101 139.760635,91.7441733 139.760635,91.7441733 C139.760635,91.7441733 136.554686,92.6830325 132.460419,92.8965199 C127.976375,93.1298195 125.261285,92.8043321 125.261285,92.8043321 Z" id="Path" fill="#E2231A"></path>
            <path d="M128.973458,92.9676823 C128.973458,92.9676823 128.429227,96.0721444 131.239336,97.0130253 C133.268274,97.6927076 135.720549,96.9988736 136.265588,94.9044332 C136.672347,93.3400722 136.288635,92.5043177 136.288635,92.5043177 C136.288635,92.5043177 134.620361,92.8152491 132.578888,92.8912635 C130.335653,92.9749603 128.973458,92.9676823 128.973458,92.9676823 Z" id="Path" fill="#FEFAF8"></path>
            <path d="M121.138715,84.2700939 C121.138715,84.2700939 120.125458,88.1630036 124.956823,89.3505271 C128.444996,90.2077112 131.642859,89.4681877 132.905588,87.6616318 C134.121415,85.9225993 133.883264,84.2696895 133.883264,84.2696895 C133.883264,84.2696895 130.932043,85.3444043 127.48026,85.2485776 C123.686816,85.1442599 121.138715,84.2700939 121.138715,84.2700939 Z" id="Path" fill="#FEFAF8"></path>
            <path d="M124.309487,85.9460505 C124.309487,85.9460505 123.812968,87.6118989 126.228852,88.2054585 C127.972736,88.6340505 129.572274,88.2640866 130.203437,87.361213 C130.811148,86.4918989 130.681762,85.9460505 130.681762,85.9460505 C130.681762,85.9460505 129.201906,86.3463394 127.475812,86.2986282 C125.579495,86.246065 124.309487,85.9460505 124.309487,85.9460505 Z" id="Path" fill="#04586B"></path>
            <path d="M161.668159,50.8520433 C161.668159,50.8520433 165.389227,52.0597834 166.992,47.716852 C168.148794,44.5816606 167.194166,41.6183105 165.51174,40.2480289 C163.891581,38.9290975 162.826166,39.5206354 162.826166,39.5206354 C162.826166,39.5206354 162.924823,42.0553935 162.527365,45.241935 C162.090282,48.7434513 161.668159,50.8520433 161.668159,50.8520433 Z" id="Path" fill="#FEFAF8"></path>
            <path d="M163.276996,48.2190325 C163.276996,48.2190325 165.137733,48.8231047 165.939119,46.6514368 C166.517718,45.0838412 166.040202,43.6019639 165.198787,42.9170253 C164.38891,42.2575596 163.856404,42.5531264 163.856404,42.5531264 C163.856404,42.5531264 163.905733,43.8207076 163.706801,45.4137762 C163.488462,47.1645343 163.276996,48.2190325 163.276996,48.2190325 Z" id="Path" fill="#04586B"></path>
            <path d="M94.7010542,72.0467292 C94.7010542,72.0467292 92.5289819,76.2497617 95.9884477,79.2042166 C98.782787,81.5909892 101.078585,81.525083 103.231249,80.8130542 C105.159913,80.1750181 105.386339,78.7824982 105.386339,78.7824982 C105.386339,78.7824982 102.514368,77.8492996 99.5485921,75.8628159 C96.2888664,73.6794224 94.7010542,72.0467292 94.7010542,72.0467292 Z" id="Path" fill="#FEFAF8"></path>
            <path d="M96.3927798,74.5911913 C96.3927798,74.5911913 94.9776173,76.5647365 96.7069458,78.0421661 C98.1043177,79.2357545 100.447018,79.9510181 101.52335,79.5948014 C102.487682,79.2757834 102.600895,78.5795235 102.600895,78.5795235 C102.600895,78.5795235 100.299032,77.4926787 98.8163466,76.4992347 C97.1864838,75.4079422 96.3927798,74.5911913 96.3927798,74.5911913 Z" id="Path" fill="#04586B"></path>
            <path d="M149.339264,74.712491 C149.339264,74.712491 152.800347,78.9240144 157.328866,73.7950614 C159.538946,71.2926498 159.096606,69.3660072 158.465444,67.1882744 C157.814874,64.9438267 156.465617,64.5431336 156.465617,64.5431336 C156.465617,64.5431336 155.354917,67.2909747 153.219639,70.1520289 C150.872895,73.2969242 149.339264,74.712491 149.339264,74.712491 Z" id="Path" fill="#FEFAF8"></path>
            <path d="M152.299783,72.9649675 C152.299783,72.9649675 153.670065,75.0707292 155.934325,72.5064549 C157.03896,71.2550469 157.178051,70.2915235 156.862671,69.2030614 C156.537184,68.0810397 155.862354,67.880491 155.862354,67.880491 C155.862354,67.880491 155.306801,69.2544116 154.239365,70.6849386 C153.066397,72.2569819 152.299783,72.9649675 152.299783,72.9649675 Z" id="Path" fill="#04586B"></path>
            <path d="M142.921704,90.8631336 C142.921704,90.8631336 146.745877,99.7697617 155.02943,98.0153646 C161.571119,96.6301227 164.884217,90.4426282 162.930888,84.5761733 C161.472462,80.1948303 159.476679,78.4703538 159.476679,78.4703538 C159.476679,78.4703538 156.161155,82.6394224 151.439769,86.0717978 C146.214585,89.8704982 142.921704,90.8631336 142.921704,90.8631336 Z" id="Path" fill="#FEFAF8"></path>
            <path d="M145.703913,89.6501372 C145.703913,89.6501372 148.378975,95.9237545 154.177906,94.6957978 C158.756968,93.7262094 161.235119,89.5591625 159.867668,85.4527653 C158.846729,82.3855018 157.101632,81.0706137 157.101632,81.0706137 C157.101632,81.0706137 154.936029,83.4650686 151.551365,85.9072347 C147.80078,88.6138339 145.703913,89.6501372 145.703913,89.6501372 Z" id="Path" fill="#E2231A"></path>
            <path d="M148.697993,87.8678412 C148.697993,87.8678412 149.969617,90.8647509 152.868679,90.2505704 C155.158007,89.7657762 156.397285,87.6822527 155.71356,85.6290542 C155.202888,84.0954224 154.51431,83.560491 154.51431,83.560491 C154.51431,83.560491 153.211148,84.6938339 151.558643,85.8951047 C149.730253,87.2249531 148.697993,87.8678412 148.697993,87.8678412 Z" id="Path" fill="#FEFAF8"></path>
            <path d="M159.109141,78.9139061 C159.109141,78.9139061 166.686729,84.5935596 173.347697,79.3655451 C177.363119,76.2137762 178.284188,70.1140217 173.90891,65.745213 C170.641097,62.4822527 167.73961,62.1559567 167.73961,62.1559567 C167.73961,62.1559567 167.133516,64.2516101 164.825588,69.2863538 C162.164274,75.0909458 159.109141,78.9139061 159.109141,78.9139061 Z" id="Path" fill="#FEFAF8"></path>
            <path d="M161.198325,75.7872058 C161.198325,75.7872058 166.057588,80.2583105 170.720347,76.598296 C173.530859,74.3918556 174.175769,70.1221083 171.113357,67.0641444 C168.825646,64.7800722 166.846845,64.5439422 166.846845,64.5439422 C166.846845,64.5439422 165.877256,67.0277545 164.580159,69.6292274 C161.898628,75.0060361 161.198325,75.7872058 161.198325,75.7872058 Z" id="Path" fill="#E2231A"></path>
            <path d="M162.941805,72.8828881 C162.941805,72.8828881 165.407827,75.1111625 167.738801,73.2811552 C169.144664,72.1777329 169.466513,70.0432635 167.935307,68.5140794 C166.791451,67.3718412 165.739379,67.2169819 165.739379,67.2169819 C165.739379,67.2169819 165.172505,68.5221661 164.501314,69.8326065 C163.155697,72.4644043 162.941805,72.8828881 162.941805,72.8828881 Z" id="Path" fill="#FEFAF8"></path>
            <path d="M167.739206,62.1559567 C167.739206,62.1559567 176.919162,66.6230181 180.662065,59.0272347 C182.315783,55.671278 181.86374,50.731148 177.176722,47.7673935 C173.273704,45.2993502 170.3427,46.1532996 170.3427,46.1532996 C170.3427,46.1532996 170.158325,48.5247076 169.687278,52.1843177 C168.862845,58.5913646 167.739206,62.1559567 167.739206,62.1559567 Z" id="Path" fill="#FEFAF8"></path>
            <path d="M168.525632,59.0260217 C168.525632,59.0260217 174.885776,62.1086498 177.505848,56.7916823 C178.663047,54.4425126 178.346859,50.9846643 175.066108,48.9096318 C172.333632,47.1819206 170.187437,47.8393646 170.187437,47.8393646 C170.187437,47.8393646 170.042686,49.4231336 169.712751,51.9849819 C169.135769,56.4702383 168.525632,59.0260217 168.525632,59.0260217 Z" id="Path" fill="#E2231A"></path>
            <path d="M169.096144,56.101083 C169.096144,56.101083 172.268534,57.6387581 173.578166,54.9802744 C174.15717,53.8056895 173.998671,52.0767653 172.358296,51.0392491 C170.992058,50.1751913 169.897531,50.4942094 169.897531,50.4942094 C169.897531,50.4942094 169.799682,51.296 169.634715,52.5769242 C169.346426,54.8193502 169.096144,56.101083 169.096144,56.101083 Z" id="Path" fill="#FEFAF8"></path>
            <path d="M170.326123,46.354657 C170.326123,46.354657 179.025329,47.4034946 181.259668,39.4696895 C182.915408,33.5907004 175.613978,27.1812274 169.788765,31.4897906 C169.788765,31.4897906 170.193906,33.7055307 170.37909,37.3861661 C170.700939,43.7790614 170.326123,46.354657 170.326123,46.354657 Z" id="Path" fill="#FEFAF8"></path>
            <path d="M170.461978,43.0108303 C170.461978,43.0108303 176.881155,44.5654874 178.445516,39.0115812 C179.604332,34.8962888 174.17496,30.7623971 170.097675,33.7783105 C170.097675,33.7783105 170.280838,35.070556 170.384347,37.7051841 C170.559422,42.1710325 170.461978,43.0108303 170.461978,43.0108303 Z" id="Path" fill="#E2231A"></path>
            <path d="M170.48543,40.2160866 C170.48543,40.2160866 173.669141,40.9879567 174.451119,38.2110036 C175.030931,36.1533574 172.239827,34.0103971 170.20078,35.518556 C170.20078,35.518556 170.312375,36.2698051 170.382325,37.5527509 C170.504838,39.8000289 170.48543,40.2160866 170.48543,40.2160866 Z" id="Path" fill="#FEFAF8"></path>
            <path d="M179.895451,72.793935 C179.998556,71.4135451 179.644361,69.9551191 179.123177,68.6919856 C178.809819,67.9322455 177.555581,68.2650108 177.874195,69.0364765 C178.357776,70.2086354 178.695798,71.5138195 178.600375,72.793935 C178.538108,73.6256462 179.833993,73.6216029 179.895451,72.793935 Z" id="Path" fill="#FFFFFF"></path>
            <path d="M174.901545,65.3566498 C176.037718,65.7743249 177.351798,65.8264838 178.538513,65.6898195 C179.356881,65.5956101 179.366585,64.2993213 178.538513,64.3943394 C177.450051,64.5196823 176.287191,64.4905704 175.245632,64.1076679 C174.46244,63.8193791 174.124419,65.070787 174.901545,65.3566498 Z" id="Path" fill="#FFFFFF"></path>
            <path d="M180.237516,46.5091119 C179.391653,46.039278 178.385675,45.8395379 177.42943,45.8047653 C176.595292,45.7744404 176.59691,47.0699206 177.42943,47.1002455 C178.156014,47.1265271 178.93961,47.270065 179.583711,47.6278989 C180.312722,48.0330397 180.966931,46.914657 180.237516,46.5091119 Z" id="Path" fill="#FFFFFF"></path>
            <path d="M177.419726,47.0974152 C178.388505,47.148361 179.372245,46.8612852 180.246816,46.4747437 C181.007769,46.1383394 180.349516,45.0219783 179.593011,45.356361 C178.925863,45.6511191 178.154801,45.8407509 177.419726,45.8023394 C176.586397,45.7582671 176.588823,47.0537473 177.419726,47.0974152 Z" id="Path" fill="#FFFFFF"></path>
            <g transform="translate(77.227437, 27.898917)" fill="#FFFFFF" id="Path">
                <path d="M3.41458484,42.3513646 C2.29418051,43.5425271 1.54697473,45.1218484 1.09371841,46.6736751 C0.86001444,47.4754657 2.10940072,47.817935 2.34310469,47.0181661 C2.73288087,45.682657 3.36404332,44.2949892 4.33039711,43.2671769 C4.90131408,42.6602744 3.98711913,41.7424404 3.41458484,42.3513646 Z"></path>
                <path d="M0.387754513,49.6596679 C0.0169819495,51.2624404 0.165776173,52.9954079 0.550296029,54.5767509 C0.747610108,55.3862238 1.99699639,55.0433502 1.79968231,54.2322599 C1.47136462,52.8846209 1.31933574,51.3752491 1.63673646,50.0037545 C1.82434657,49.1926643 0.575768953,48.846556 0.387754513,49.6596679 Z"></path>
                <path d="M1.38847653,57.5328231 C1.9820361,59.0591769 3.06119856,60.4205632 4.27257762,61.4997256 C4.89322744,62.0524477 5.81308303,61.1394657 5.18879422,60.583509 C4.41409386,59.8933141 3.73885921,59.1218484 3.19543682,58.2359567 C3.0365343,57.9767798 2.88733574,57.7111336 2.75390614,57.4378051 C2.70174729,57.3310614 2.59540794,57.0803755 2.63745848,57.1883321 C2.33825271,56.4201011 1.08563177,56.7540794 1.38847653,57.5328231 Z"></path>
                <path d="M7.14212274,63.5488809 C8.57548014,64.3478412 10.2866137,64.6810108 11.9079856,64.7465126 C12.7417184,64.7800722 12.7401011,63.4845921 11.9079856,63.4510325 C10.519509,63.3952347 9.02590614,63.1162455 7.79552347,62.4304982 C7.0673213,62.0241444 6.41270758,63.1425271 7.14212274,63.5488809 Z"></path>
                <path d="M20.5513935,70.5175451 C21.0988592,72.0588592 22.1489097,73.4505704 23.3247076,74.5636968 C23.9299928,75.1366354 24.8478267,74.2220361 24.2409242,73.6474801 C23.2333285,72.694065 22.272231,71.5004765 21.8007798,70.1730542 C21.5234079,69.3935018 20.2715957,69.7295018 20.5513935,70.5175451 Z"></path>
                <path d="M25.4381516,76.4721444 C26.8747437,77.265444 28.5866859,77.5929531 30.2084621,77.6519856 C31.0421949,77.6823105 31.0409819,76.3868303 30.2084621,76.3565054 C28.8199856,76.3059639 27.3247653,76.0342527 26.0919567,75.3533574 C25.3617329,74.9502383 24.7071191,76.0686209 25.4381516,76.4721444 Z"></path>
                <path d="M33.5935307,77.9334007 C35.1639567,78.0611697 36.8249531,77.6669458 38.2659928,77.0830903 C39.0285632,76.7741805 38.6953935,75.5207509 37.9215018,75.8341083 C36.5698195,76.381574 35.0648953,76.7576029 33.5935307,76.6379206 C32.7626282,76.5703971 32.7670758,77.8662816 33.5935307,77.9334007 Z"></path>
                <path d="M47.9525776,78.8330397 C49.0936029,79.7258051 50.5124043,80.2789314 51.9235235,80.5554946 C52.7378484,80.7152058 53.0863827,79.4670325 52.2680144,79.3065126 C51.3865704,79.1338628 50.5374729,78.8617473 49.741343,78.4420505 C49.5011697,78.3154946 49.2658484,78.1792347 49.0398267,78.0292274 C48.9735162,77.9855596 48.6217473,77.724361 48.8683899,77.9172274 C48.2190325,77.4093863 47.2959422,78.3199422 47.9525776,78.8330397 Z"></path>
                <path d="M54.978657,80.6230181 C56.4103971,80.8805776 57.9270469,80.6933718 59.3090542,80.2841877 C60.1068014,80.0480578 59.7671625,78.7974585 58.9645632,79.0352058 C57.8219206,79.3736318 56.4965199,79.5850975 55.3227437,79.3740361 C54.5080144,79.2272635 54.1578628,80.4754368 54.978657,80.6230181 Z"></path>
                <path d="M62.3100072,78.9143105 C63.6920144,78.4978484 64.96,77.6188303 65.9910469,76.6318556 C66.5943105,76.0544693 65.6776895,75.1390614 65.0748303,75.7160433 C64.2059206,76.5481588 63.1332274,77.3131552 61.9659206,77.6653285 C61.1697906,77.9055018 61.5090253,79.1561011 62.3100072,78.9143105 Z"></path>
                <path d="M68.1230903,74.3392924 C68.7037112,73.0070181 68.8808087,71.4952202 68.7999422,70.0553935 C68.753444,69.2265126 67.4579639,69.2212563 67.5044621,70.0553935 C67.5550036,70.9513935 67.5028448,71.8352635 67.2950181,72.7102383 C67.2355812,72.9625415 67.1656318,73.2128231 67.0823394,73.458657 C67.0596968,73.5253718 66.8838123,73.9624549 67.0047076,73.6858917 C66.6747726,74.4419928 67.7903249,75.1026715 68.1230903,74.3392924 Z"></path>
                <path d="M67.6277834,70.1318123 C68.4910325,71.2914368 69.7206065,72.2007798 71.006787,72.8339639 C71.7523755,73.2010975 72.4094152,72.0843321 71.6605921,71.7155812 C70.8535451,71.3185271 70.1079567,70.8300939 69.4492996,70.215509 C69.2544116,70.0331552 69.0663971,69.8435235 68.8892996,69.6429747 C68.8363321,69.5827292 68.5783682,69.2536029 68.7457617,69.4780072 C68.2540939,68.8169242 67.1288375,69.4618339 67.6277834,70.1318123 Z"></path>
                <path d="M73.4202455,73.5698484 C74.807509,74.0036968 76.3468014,73.9636679 77.7615596,73.7315812 C78.5823538,73.5969386 78.2342238,72.348361 77.4170686,72.4825993 C76.2299495,72.6774874 74.9247653,72.684361 73.7643321,72.3208664 C72.9673935,72.0709892 72.6261372,73.3211841 73.4202455,73.5698484 Z"></path>
                <path d="M81.0326065,72.6601011 C82.429574,72.2933718 83.7222238,71.4503394 84.7884477,70.5025848 C85.4127365,69.9474368 84.4936895,69.0344549 83.872231,69.5867726 C82.9713791,70.3873502 81.868361,71.1014007 80.6881155,71.4111191 C79.8826859,71.6221805 80.2243466,72.8719711 81.0326065,72.6601011 Z"></path>
                <path d="M87.3422094,67.3661805 C88.1334874,66.2340505 88.5725921,64.7982671 88.7638412,63.4477978 C88.8794801,62.6326643 87.6317112,62.2800866 87.5148592,63.1033069 C87.3373574,64.3587581 86.9593069,65.6598989 86.2238267,66.7119711 C85.7450975,67.3973141 86.8675235,68.0454585 87.3422094,67.3661805 Z"></path>
                <path d="M88.6858051,59.8439856 C88.8960578,58.4025415 88.6704404,56.8988303 88.2139495,55.5269314 C87.9519422,54.7396968 86.7005343,55.0773141 86.9649675,55.8714224 C87.2484043,56.7229458 87.4315668,57.5906426 87.4606787,58.4894729 C87.4691697,58.7361155 87.4679567,58.9835668 87.4534007,59.2298051 C87.4493574,59.3033935 87.3927509,59.8027437 87.4368231,59.4994946 C87.3179495,60.3150325 88.5657184,60.6672058 88.6858051,59.8439856 Z"></path>
                <path d="M87.2888375,56.1051264 C88.587148,56.5846643 90.0876245,56.6445054 91.4449675,56.4904549 C92.2637401,56.3974585 92.273444,55.1007653 91.4449675,55.1949747 C90.1850686,55.3381083 88.8370253,55.3009097 87.6329242,54.8561444 C86.8501372,54.5666426 86.5125199,55.8180505 87.2888375,56.1051264 Z"></path>
                <path d="M94.2259639,55.7804477 C95.6710469,55.6312491 97.0752924,55.0368809 98.2882888,54.2593502 C98.9873791,53.8109458 98.3388303,52.6893285 97.6344838,53.1409675 C96.876361,53.6269747 96.0794224,54.0127076 95.2129386,54.2625848 C94.9303105,54.3442599 94.3347292,54.4736462 94.2263682,54.4849675 C93.4051697,54.5698773 93.3962744,55.8661661 94.2259639,55.7804477 Z"></path>
                <path d="M100.330166,51.8054585 C101.362022,50.7970542 102.070816,49.4219206 102.52569,48.0718556 C102.792549,47.2801733 101.541949,46.9405343 101.276708,47.7273646 C100.891783,48.8687942 100.286498,50.0369097 99.4143538,50.8892419 C98.8171552,51.4730975 99.7329675,52.3889097 100.330166,51.8054585 Z"></path>
                <path d="M101.131957,38.648491 C100.370195,37.629574 99.2930542,36.8294007 98.1584982,36.2738484 C97.4125054,35.9087365 96.7554657,37.0255018 97.5050975,37.3926354 C98.2009531,37.7334874 98.8446498,38.1511625 99.4131408,38.6800289 C99.5833646,38.8381227 99.7471191,39.0030903 99.9011697,39.1769531 C99.9533285,39.2359856 100.187032,39.534787 100.01317,39.3027004 C100.506455,39.9621661 101.631711,39.316852 101.131957,38.648491 Z"></path>
                <path d="M103.571292,36.3090253 C104.943596,35.4886354 106.326412,34.1357401 106.62117,32.5111336 C106.768751,31.696 105.520578,31.3462527 105.372188,32.1666426 C105.135249,33.4738484 104.022123,34.5299639 102.917487,35.1906426 C102.203032,35.6180217 102.853199,36.7380217 103.571292,36.3090253 Z"></path>
                <path d="M107.251928,29.897935 C107.55922,28.6566354 107.461776,27.3085921 107.18117,26.0757834 C106.99639,25.2630758 105.747408,25.6071625 105.932188,26.4202744 C106.159827,27.4226137 106.253227,28.5422094 106.002946,29.5538484 C105.802397,30.3625126 107.051379,30.7078123 107.251928,29.897935 Z"></path>
                <path d="M106.62117,23.5810542 C106.335307,22.3421805 105.619235,21.1898339 104.815018,20.2271191 C104.280491,19.586657 103.368318,20.506917 103.899206,21.1429314 C104.56231,21.9366354 105.136866,22.9062238 105.372188,23.9251408 C105.559394,24.737444 106.80878,24.3937617 106.62117,23.5810542 Z"></path>
                <path d="M104.844534,16.8517545 C105.57961,16.2274657 106.095538,15.335509 106.458224,14.4581083 C106.592462,14.1322166 106.312664,13.7493141 106.005776,13.6611697 C105.635004,13.5552347 105.341863,13.791769 105.208838,14.1136173 C104.930657,14.787639 104.489531,15.4592347 103.928318,15.9355379 C103.291899,16.47613 104.212159,17.3883032 104.844534,16.8517545 Z"></path>
                <path d="M106.968087,11.9463971 C107.27457,11.0237112 107.25678,9.99751625 107.115264,9.04976173 C107.063105,8.70122744 106.627235,8.51604332 106.318325,8.59731408 C105.946744,8.69516245 105.814931,9.04976173 105.866282,9.39425271 C105.97343,10.1139639 105.949978,10.9056462 105.7187,11.6023105 C105.455076,12.3952058 106.705675,12.7352491 106.968087,11.9463971 Z"></path>
                <path d="M106.776029,6.2153935 C106.565776,5.2741083 106.027206,4.39913357 105.420708,3.66607942 C104.888606,3.02319134 103.976838,3.94425993 104.504491,4.5818917 C104.970686,5.14553069 105.365718,5.83815162 105.526643,6.55988448 C105.708188,7.37299639 106.957574,7.02890975 106.776029,6.2153935 Z"></path>
                <path d="M103.685718,2.08028881 C102.957516,1.44791336 102.026744,1.02902527 101.098397,0.800173285 C100.288924,0.600837545 99.9440289,1.84941516 100.753906,2.04915523 C101.294094,2.18218051 101.7987,2.37787726 102.27743,2.66293141 C102.422989,2.74945848 102.562888,2.84366787 102.701574,2.94151625 C102.850773,3.04704693 102.649415,2.89137906 102.769906,2.99610108 C103.396217,3.54073646 104.316072,2.62815884 103.685718,2.08028881 Z"></path>
                <path d="M99.1418339,0.347725632 C98.3541949,0.103509025 97.4836679,0.132216606 96.6818773,0.268880866 C95.8618917,0.408375451 96.2096173,1.65654874 97.0263682,1.51786282 C97.6005199,1.42041877 98.2353213,1.42284477 98.7977473,1.59711191 C99.5954946,1.84415884 99.9371552,0.593963899 99.1418339,0.347725632 Z"></path>
                <path d="M15.464491,64.8843899 C17.033704,65.0214585 18.6971264,64.63613 20.1414007,64.0611697 C20.9068014,63.7563032 20.5728231,62.5028736 19.7969097,62.8121877 C18.4415884,63.3515668 16.9346426,63.7174874 15.4640866,63.5893141 C14.6339928,63.5165343 14.6388448,64.8120144 15.464491,64.8843899 Z"></path>
                <path d="M19.2385271,63.388361 C18.8479422,64.9862816 18.9797545,66.7220794 19.3448664,68.3070614 C19.5320722,69.1189603 20.7814585,68.775278 20.5942527,67.9625704 C20.2825126,66.6100794 20.1535307,65.0994946 20.487509,63.732852 C20.6852274,62.9233791 19.4366498,62.5776751 19.2385271,63.388361 Z"></path>
            </g>
            <g transform="translate(117.256318, 99.870036)" fill="#FFFFFF" id="Path">
                <path d="M1.09250542,4.33363177 C2.60430325,3.69963899 3.93738628,2.59702527 4.98622383,1.35329964 C5.5207509,0.720115523 4.60857762,-0.200953069 4.07041155,0.437487365 C3.40285921,1.22876534 2.64716245,1.93109025 1.77825271,2.49594224 C1.51584116,2.6665704 1.24615162,2.82668592 0.967971119,2.97022383 C0.885891697,3.01227437 0.441935018,3.2128231 0.74801444,3.08424549 C-0.00889530686,3.40205054 0.323465704,4.65588448 1.09250542,4.33363177 Z"></path>
                <path d="M3.86784116,1.22714801 C4.26529964,2.81374729 5.2073935,4.28753791 6.26714801,5.50659928 C6.81501805,6.13695307 7.728,5.21750181 7.18336462,4.59038267 C6.26836101,3.53790614 5.46010108,2.25172563 5.11722744,0.88265704 C4.91465704,0.0743971119 3.66486643,0.416866426 3.86784116,1.22714801 Z"></path>
            </g>
            <g transform="translate(109.978339, 49.328520)" fill="#FFFFFF" id="Path">
                <path d="M0.384519856,23.9174585 C1.54050542,25.0188592 3.15257762,25.753935 4.55965343,26.4485776 C5.30483755,26.8165199 5.96187726,25.6993502 5.21345848,25.3301949 C3.91514801,24.6893285 2.34593502,23.9975162 1.30033213,23.0012419 C0.697472924,22.4262816 -0.220361011,23.3408809 0.384519856,23.9174585 Z"></path>
                <path d="M7.28323466,27.4812419 C9.17429603,28.5005632 11.3783105,29.0144693 13.4828592,29.3237834 C14.2983971,29.44387 14.6505704,28.1956968 13.8273502,28.0748014 C11.8372274,27.782065 9.72661372,27.3275957 7.93744404,26.3628592 C7.2031769,25.9670181 6.54815884,27.0849964 7.28323466,27.4812419 Z"></path>
                <path d="M16.790296,29.6395668 C18.8629025,29.8482022 20.9937329,29.799278 23.0412708,29.4147581 C23.8592347,29.2611119 23.5131264,28.0125343 22.6967798,28.1657762 C20.7677112,28.5276534 18.7420072,28.5405921 16.790296,28.3440866 C15.9618195,28.2607942 15.9674801,29.5566787 16.790296,29.6395668 Z"></path>
                <path d="M26.1279422,28.1459639 C28.2045921,27.2952491 30.3042888,26.201935 31.9369819,24.642426 C32.5410542,24.0658484 31.6244332,23.1508448 31.0207653,23.7266137 C29.561935,25.1203466 27.6421661,26.1356245 25.7834513,26.8969819 C25.0229025,27.2083177 25.3556679,28.4621516 26.1279422,28.1459639 Z"></path>
                <path d="M34.9876679,21.6511769 C36.3494585,20.1652563 37.6764765,18.5584404 38.6695162,16.8004043 C39.0803177,16.0738195 37.9615307,15.4200144 37.5507292,16.1465993 C36.6090397,17.8144693 35.3628881,19.3262671 34.0714513,20.7353646 C33.5094296,21.3491408 34.4228159,22.2673791 34.9876679,21.6511769 Z"></path>
                <path d="M39.9197112,13.9369242 C40.5840289,12.4550469 41.1108736,10.9060505 41.5297617,9.33845487 C41.7452708,8.53221661 40.4958845,8.1885343 40.2803755,8.9939639 C39.8910036,10.4511769 39.4187437,11.9047509 38.8009242,13.2827148 C38.4633069,14.0376029 39.5792635,14.6970686 39.9197112,13.9369242 Z"></path>
                <path d="M42.5304838,6.41877256 C42.799769,4.5568231 43.0892708,2.65444043 43.0840144,0.769848375 C43.0815884,-0.0638844765 41.7865126,-0.0650974729 41.7885343,0.769848375 C41.7933863,2.53920578 41.5342094,4.32554513 41.2810975,6.07428159 C41.1630325,6.89022383 42.4112058,7.24199278 42.5304838,6.41877256 Z"></path>
            </g>
            <path d="M136.344433,83.5750469 C136.344433,83.5750469 138.514079,87.461083 143.401646,85.9492852 C146.591422,84.9627148 148.145675,82.4485776 148.48774,80.2069603 C148.902585,77.490657 147.41909,76.839278 147.41909,76.839278 C147.41909,76.839278 145.220332,79.2753791 142.10374,81.0160289 C138.678643,82.9289242 136.344433,83.5750469 136.344433,83.5750469 Z" id="Path" fill="#FEFAF8"></path>
            <path d="M140.190036,83.2843321 C140.190036,83.2843321 141.275264,85.2275523 143.719047,84.4714513 C145.313733,83.9781661 146.090859,82.7210975 146.262296,81.6002888 C146.469718,80.2421372 145.727769,79.9162455 145.727769,79.9162455 C145.727769,79.9162455 144.62839,81.1344982 143.070498,82.0046209 C141.356939,82.9616751 140.190036,83.2843321 140.190036,83.2843321 Z" id="Path" fill="#04586B"></path>
            <path d="M157.814469,62.6233646 C157.814469,62.6233646 161.54039,63.9204621 163.848722,61.2522744 C165.35122,59.5152635 165.470903,57.0496462 164.244563,55.1428159 C163.452477,53.9104116 161.322859,53.1781661 161.322859,53.1781661 C161.322859,53.1781661 161.114628,54.5266137 159.887076,57.895509 C158.54348,61.5814007 157.814469,62.6233646 157.814469,62.6233646 Z" id="Path" fill="#FEFAF8"></path>
            <path d="M159.851899,60.8588592 C159.851899,60.8588592 161.714657,61.5074079 162.869025,60.1735162 C163.620274,59.3054152 163.680116,58.0722022 163.066744,57.118787 C162.670903,56.5025848 161.606296,56.1366643 161.606296,56.1366643 C161.606296,56.1366643 161.501978,56.8106859 160.888606,58.4951336 C160.216606,60.3380794 159.851899,60.8588592 159.851899,60.8588592 Z" id="Path" fill="#04586B"></path>
            <path d="M106.700419,79.6129964 C106.700419,79.6129964 104.46244,84.1843755 109.594224,86.6997256 C112.695856,88.2200144 115.317141,87.8290253 117.200924,86.2929675 C118.793993,84.9938484 118.79278,83.8338195 118.79278,83.8338195 C118.79278,83.8338195 115.841964,83.3789458 112.38735,82.0689097 C108.590671,80.629083 106.700419,79.6129964 106.700419,79.6129964 Z" id="Path" fill="#FEFAF8"></path>
            <path d="M108.98813,81.9213285 C108.98813,81.9213285 107.868534,84.2070181 110.43483,85.4648953 C111.985444,86.2250397 113.296289,86.0297473 114.237978,85.2619206 C115.034917,84.6121588 115.034108,84.0323466 115.034108,84.0323466 C115.034108,84.0323466 113.5587,83.8047076 111.831394,83.1496895 C109.933054,82.429574 108.98813,81.9213285 108.98813,81.9213285 Z" id="Path" fill="#04586B"></path>
            <path d="M92.1824693,80.0242022 C92.1824693,80.9161588 91.6418773,81.5796679 90.7499206,81.5796679 C89.8583682,81.5796679 89.1354224,80.856722 89.1354224,79.9647653 C89.1354224,79.0728087 89.8676679,78.3401588 90.7499206,78.4687365 C91.5654585,78.5876101 92.1824693,79.1322455 92.1824693,80.0242022 Z" id="Path" fill="#04586B"></path>
            <path d="M167.460621,71.1927798 C167.460621,72.0847365 166.633762,72.7264116 165.741805,72.7264116 C164.849848,72.7264116 164.580968,72.1967365 164.580968,71.3051841 C164.580968,70.4132274 165.301487,69.4962022 166.184144,69.6247798 C166.998874,69.7436534 167.460621,70.3008231 167.460621,71.1927798 Z" id="Path" fill="#04586B"></path>
            <path d="M154.201357,87.9018051 C153.881531,88.7343249 152.879191,89.0367653 152.047076,88.7169386 C151.21496,88.3971119 151.153502,87.8063827 151.473733,86.9734585 C151.79356,86.1409386 152.79509,85.5437401 153.572621,85.9804188 C154.291119,86.3839422 154.521588,87.0692852 154.201357,87.9018051 Z" id="Path" fill="#04586B"></path>
            <path d="M172.72826,53.880491 C172.72826,54.7724477 172.187668,55.4359567 171.295711,55.4359567 C170.403755,55.4359567 169.773805,54.8217762 169.963437,53.8101372 C170.127191,52.9335451 170.413054,52.1964477 171.295711,52.3250253 C172.111249,52.4438989 172.72826,52.9885343 172.72826,53.880491 Z" id="Path" fill="#04586B"></path>
            <path d="M173.584231,37.6970975 C173.584231,38.5890542 173.043639,39.2525632 172.151682,39.2525632 C171.26013,39.2525632 170.803235,38.5817762 170.803235,37.6898195 C170.803235,36.7978628 171.269025,36.0130542 172.151682,36.1416318 C172.966412,36.2605054 173.584231,36.8055451 173.584231,37.6970975 Z" id="Path" fill="#04586B"></path>
            <path d="M134.371292,94.8551047 C134.371292,95.7470614 133.8307,96.4105704 132.938744,96.4105704 C132.046787,96.4105704 131.323841,95.6876245 131.323841,94.7956679 C131.323841,93.9037112 131.962282,93.5669025 132.847769,93.4585415 C133.820592,93.3400722 134.371292,93.963148 134.371292,94.8551047 Z" id="Path" fill="#04586B"></path>
            <path d="M112.027899,91.726787 C112.027899,92.6187437 111.523292,93.2867004 110.503971,93.1443755 C109.620505,93.0206498 108.980043,92.5593069 108.980043,91.6673502 C108.980043,90.7753935 109.712693,90.0427437 110.594946,90.1713213 C111.410484,90.2901949 112.027899,90.8348303 112.027899,91.726787 Z" id="Path" fill="#04586B"></path>
            <g transform="translate(19.407942, 0.000000)" id="Path">
                <path d="M37.3784838,19.5615884 C35.5492852,8.81605776 29.0779495,1.16083755 18.3170542,0.173054152 C6.32415884,-0.927537906 -0.29233213,8.43477256 0.301227437,17.6943827 C1.07026715,29.6892996 6.41351625,36.1464838 14.5790036,42.9275379 C24.1495451,50.8754946 39.9128375,56.1791191 39.8400578,56.0129386 C32.8948448,40.1679711 39.4700939,31.8468159 37.3784838,19.5615884 Z" fill="#04586B"></path>
                <path d="M30.7304549,30.1935018 C30.7571408,30.0010397 30.7769531,29.8069603 30.791509,29.6120722 C30.902296,28.8414152 31.019148,28.0715668 31.1477256,27.3041444 C31.4857473,25.2909747 31.7457329,22.1958123 32.8079134,20.034657 C33.148361,20.2982816 33.5704838,20.4612274 34.0342527,20.4612274 C35.1469747,20.4612274 35.8218051,19.6331552 35.8218051,18.5204332 C35.8218051,17.4077112 35.0515523,16.7276245 34.0342527,16.579639 C33.4653574,16.4967509 32.9498339,16.703769 32.581083,17.0737329 C32.5487365,17.0988014 32.5159856,17.1198267 32.484852,17.1497473 C30.8080866,18.7674801 30.1656029,21.5472635 29.7349892,24.0351191 C29.2239134,22.8807509 28.5498917,21.7886498 27.7557834,20.817444 C27.1472635,18.3041155 26.886065,15.7475235 27.3906715,13.5010542 C27.6344838,13.6057762 27.902556,13.6644043 28.1843755,13.6644043 C29.2970975,13.6644043 29.9719278,12.8363321 29.9719278,11.7236101 C29.9719278,10.6108881 29.2016751,9.93080144 28.1843755,9.78281588 C27.6126498,9.69952347 27.095509,9.86449097 26.7263538,10.2178773 C26.5888809,10.2971264 26.4651552,10.4204477 26.3745848,10.6064404 C25.2040433,12.9972563 25.0273502,15.7645054 25.3952924,18.5750181 C24.4697762,17.9086787 23.4670325,17.4056895 22.4222383,17.1125487 C22.4008087,16.9528375 22.3773574,16.793935 22.3571408,16.6346282 C22.1181805,14.7540794 21.5399856,11.969444 21.7785415,9.67485921 C21.955639,9.72580505 22.1388014,9.76138628 22.3320722,9.76138628 C23.4447942,9.76138628 24.1196245,8.93331408 24.1196245,7.82059206 C24.1196245,6.70787004 23.3489675,6.02778339 22.3320722,5.87979783 C21.9782816,5.82844765 21.6487509,5.8793935 21.3576318,6.00231047 C21.1166498,6.04274368 20.8890108,6.18466426 20.7317256,6.46567509 C20.7280866,6.47174007 20.7256606,6.47861372 20.722426,6.48508303 C20.5481588,6.70584838 20.4187726,6.97553791 20.3585271,7.29657762 C19.3816606,9.93888809 20.0354657,13.4735596 20.3455884,16.0770542 C20.3751047,16.3261227 20.4102816,16.574787 20.4414152,16.8242599 C20.0099928,16.8206209 19.5753357,16.8521588 19.1390614,16.9301949 C18.3700217,17.0672635 17.6806354,17.3175451 17.0616029,17.6555668 C15.6015596,14.8446498 14.4148448,11.8833213 13.6684477,8.85083032 C14.4253574,8.36280144 14.7229458,7.45669314 14.4860072,6.45475812 C14.1855884,5.18515523 13.1230036,4.61747292 11.9229458,4.72300361 C10.6230181,4.8374296 9.78160289,5.93276534 10.1281155,7.39644765 C10.3278556,8.23988448 10.9598267,8.86093863 11.7321011,9.10030325 C12.5241877,12.4562599 13.8524188,15.7471191 15.4936029,18.8499639 C14.8280722,19.5324765 14.2951625,20.3544838 13.886787,21.269083 C13.6805776,21.170426 13.4763899,21.0677256 13.2697762,20.9706859 C10.6683032,19.7496029 7.29051264,17.8698628 4.31543682,18.4173285 C4.18645487,18.4411841 4.08011552,18.4864693 3.98833213,18.5426715 C3.44329242,18.7961877 3.05998556,19.3392058 3.00903971,20.0944982 C2.93302527,21.2355235 3.8747148,22.2827437 5.01816606,22.283148 C6.12967509,22.283148 6.80369675,21.4575018 6.80531408,20.3463971 C9.00649819,20.7620505 11.4559422,22.166296 13.2588592,23.1015162 C13.0223249,24.0359278 12.886065,25.0212852 12.8432058,26.0216029 C10.8090108,25.2101083 8.72103971,24.7964765 6.67633213,25.0580794 C6.62417329,25.0649531 6.57727076,25.0791047 6.52955957,25.091639 C5.77952347,25.2335596 5.21507581,25.8388448 5.15280866,26.7671913 C5.07679422,27.9082166 6.01848375,28.9554368 7.16193502,28.9558412 C8.27465704,28.9558412 8.94948736,28.1281733 8.94948736,27.0150469 C8.94948736,27.0114079 8.9486787,27.0085776 8.9486787,27.0049386 C10.2680144,27.1634368 11.5917978,27.5823249 12.889704,28.1649675 C12.9434801,28.7977473 13.0304116,29.4256751 13.1521155,30.0378339 C13.3688375,31.1254874 13.7076679,32.1108448 14.1326209,33.026657 C12.533083,32.0586859 10.864,31.3005632 9.25152347,31.1998845 C9.17106137,31.1950325 9.09625993,31.1990758 9.02590614,31.2095884 C8.13111913,31.2310181 7.42555957,31.8735018 7.35561011,32.919509 C7.27919134,34.0605343 8.22088087,35.1077545 9.36433213,35.1081588 C10.2837834,35.1081588 10.8971552,34.5388592 11.0851697,33.7148303 C11.9577184,34.1494874 12.8039856,34.7381949 13.5135884,35.1639567 C15.0156823,36.0656173 16.4789603,37.0323755 17.924852,38.0221805 C19.9671336,39.9096029 22.4032347,41.5338051 24.8179061,43.3076101 C30.8343682,47.7261516 35.4138339,51.3178339 35.4138339,51.3178339 C35.4138339,51.3178339 29.6068159,38.2558845 30.7304549,30.1935018 Z" fill="#FFFFFF"></path>
                <path d="M28.0865271,31.7441155 C28.6283321,27.8576751 24.961444,23.1039422 21.1316101,23.7864549 C17.8132563,24.3775884 16.8869314,28.3756245 17.5395235,31.6515235 C18.3069458,35.5048087 21.4591191,37.3517978 24.538917,39.6136318 C28.1487942,42.2648375 30.8966354,44.4195235 30.8966354,44.4195235 C30.8966354,44.4195235 27.4121011,36.5815451 28.0865271,31.7441155 Z" fill="#E2231A"></path>
                <path d="M24.5405343,21.0107148 C24.5405343,21.8133141 24.0864693,22.414556 23.1690397,22.2863827 C22.3737184,22.1751913 21.7975451,21.7599422 21.7975451,20.9569386 C21.7975451,20.1543394 22.4566065,19.4948736 23.2511191,19.6105126 C23.9845776,19.7176606 24.5405343,20.2081155 24.5405343,21.0107148 Z" fill="#E2231A"></path>
                <path d="M27.9187292,23.3991047 C27.9187292,24.201704 27.4646643,24.8033502 26.5472347,24.6747726 C25.7523177,24.5635812 25.1757401,24.1483321 25.1757401,23.3457329 C25.1757401,22.5431336 25.8348014,21.8832635 26.6293141,21.9993069 C27.3631769,22.1060505 27.9187292,22.5965054 27.9187292,23.3991047 Z" fill="#E2231A"></path>
                <path d="M29.9436245,26.6103105 C29.9436245,27.3239567 29.5401011,27.8580794 28.7245632,27.7444621 C28.0181949,27.6454007 27.5055018,27.2762455 27.5055018,26.5630036 C27.5055018,25.8497617 28.0913791,25.2634801 28.797343,25.3661805 C29.449935,25.4607942 29.9436245,25.8966643 29.9436245,26.6103105 Z" fill="#E2231A"></path>
                <path d="M20.381574,19.922657 C20.9124621,20.5243032 20.9706859,21.2755523 20.1984116,21.7866282 C19.5288375,22.2293718 18.822065,22.2997256 18.2903682,21.6980794 C17.7590758,21.0964332 17.816491,20.1656606 18.488491,19.7269603 C19.1091408,19.3214152 19.8502816,19.3210108 20.381574,19.922657 Z" fill="#E2231A"></path>
                <path d="M17.8435812,22.4606498 C18.3748736,23.062296 18.4326931,23.8135451 17.6604188,24.3246209 C16.9912491,24.7673646 16.2840722,24.8377184 15.7523755,24.2360722 C15.2214874,23.634426 15.2784982,22.7036534 15.9504982,22.2649531 C16.5707437,21.8594079 17.3118845,21.8590036 17.8435812,22.4606498 Z" fill="#E2231A"></path>
                <path d="M16.9407076,27.7319278 C16.6123899,28.4645776 15.9525199,28.8276679 15.1677112,28.3355957 C14.4872202,27.9090253 14.1314079,27.2944404 14.4593213,26.5617906 C14.7872347,25.8291408 15.6585704,25.4967798 16.336231,25.9269892 C16.9621372,26.324852 17.2690253,26.9996823 16.9407076,27.7319278 Z" fill="#E2231A"></path>
                <path d="M16.6936606,31.4509747 C16.4312491,32.036852 15.9031913,32.3275668 15.2752635,31.9337473 C14.7310325,31.592491 14.4459783,31.1008231 14.7087942,30.5149458 C14.9716101,29.9290686 15.6682744,29.6630181 16.2104838,30.0071047 C16.7106426,30.3249097 16.9564765,30.8646931 16.6936606,31.4509747 Z" fill="#E2231A"></path>
            </g>
            <path d="M35.1437401,83.4937762 C27.1618195,90.9165054 17.0122744,93.5976318 8.22371119,87.3102671 C-0.528462094,81.0491841 -1.74064982,68.4603032 3.0114657,61.4459495 C8.53100361,53.2978484 17.3713213,49.5832491 27.9247942,48.9678556 C39.0281588,48.3201155 59.4056895,55.9510758 59.2471913,56.0388159 C44.1033357,64.4032347 44.2695162,75.0072491 35.1437401,83.4937762 Z" id="Path" fill="#04586B"></path>
            <g transform="translate(4.851986, 52.967509)" id="Path">
                <path d="M34.7450686,3.51526354 C31.7396679,3.45623105 28.8066426,3.2593213 26.0296895,3.52213718 C24.2494152,3.42914079 22.4691408,3.30703249 20.6981661,3.10729242 C19.8963755,3.01672202 18.9296173,2.95485921 18.0166354,2.77250542 C18.3578917,2.00872202 18.2135451,1.19237545 17.4885776,0.638036101 C16.5804477,-0.0566064982 15.1960144,0.202974729 14.563639,1.15558123 C13.9575451,2.06815884 14.1746715,3.04906859 14.9522022,3.59815162 C15.001935,3.64909747 15.0593502,3.697213 15.1244477,3.74088087 C16.4057762,4.60008664 18.148852,5.00118412 19.9727942,5.20051986 C19.0917545,5.66631047 18.2382094,6.24450542 17.4166065,6.9666426 C16.9398989,7.38553069 16.4825993,7.838787 16.0491552,8.31670758 C14.6606787,7.99162455 13.3558989,7.51815162 12.2205343,6.83644765 C12.2274079,6.82795668 12.2346859,6.82229603 12.2415596,6.81380505 C12.9180072,5.92993502 12.8852563,4.86209386 12.0009819,4.18605054 C11.0924477,3.49100361 9.70801444,3.75098917 9.07604332,4.70359567 C8.65553791,5.33677978 8.63168231,6.00311913 8.91431047,6.53683755 C8.95919134,6.66298917 9.03480144,6.7867148 9.15084477,6.90194946 C10.6464693,8.38787004 12.5977762,9.34371119 14.7459928,9.94697473 C14.1677978,10.7714079 13.6732996,11.6411264 13.2903971,12.53187 C11.3508159,12.1526065 8.54919856,11.7935596 6.50489531,10.7803032 C7.15748736,9.90249819 7.11867148,8.85163899 6.24410108,8.18327798 C5.33597112,7.48863538 3.95153791,7.74821661 3.31916245,8.7008231 C2.82223827,9.44964621 2.87641877,10.2457762 3.34059206,10.8118412 C3.36687365,10.8502527 3.39113357,10.8890686 3.42509747,10.9262671 C5.46616606,13.1872924 9.61906137,13.7436534 12.422296,14.3303394 C12.5051841,14.3477256 12.5888809,14.3626859 12.671769,14.3800722 C12.4400866,15.357343 12.3644765,16.336231 12.4797112,17.2851986 C9.29397834,18.7529242 6.24329242,20.5497762 3.56701805,22.7331697 C2.80849097,22.4541805 1.92866426,22.5633502 1.25787726,23.1120289 C0.093400722,24.0638267 0.0958267148,25.4454296 1.05894585,26.326065 C1.94766787,27.1391769 3.13680866,27.334065 4.14683032,26.5080144 C4.94538628,25.8550181 5.25874368,24.9525487 4.95104693,24.1038556 C7.37299639,22.1476968 10.1277112,20.5238989 12.999278,19.1803032 C13.2851408,19.8235957 13.6801733,20.4402022 14.2066137,21.0155668 C14.5042022,21.3406498 14.8280722,21.6289386 15.1709458,21.8869025 C14.9623105,22.0987726 14.7508448,22.3082166 14.544231,22.5225126 C12.7639567,24.3658628 10.0011552,26.8537184 9.27659206,29.5231191 C8.89854152,30.3968809 9.21311191,31.2771119 10.0286498,31.7319856 C10.9266715,32.2321444 11.9512491,32.1605776 12.6276968,31.2767076 C13.3037401,30.3928375 13.2709892,29.3254007 12.3871191,28.6489531 C12.2379206,28.5345271 12.0753791,28.4532563 11.9083899,28.3865415 C13.1318989,26.3762022 15.2857762,24.5227437 16.6847653,23.1132419 C16.7668448,23.0307581 16.8525632,22.9519134 16.9350469,22.8694296 C17.934556,23.2664838 19.0258484,23.4755235 20.155148,23.5094874 C18.1747292,25.4931408 16.6463538,27.7594224 16.137704,30.2953935 C16.1114224,30.4272058 16.113444,30.5489097 16.131639,30.6633357 C16.1154657,31.2868159 16.4470181,31.8528809 17.0478556,32.1876679 C17.9454729,32.6878267 18.9704549,32.6162599 19.6464982,31.7323899 C20.3229458,30.8485199 20.2901949,29.781083 19.4063249,29.1050397 C19.1875812,28.9376462 18.9453863,28.8228159 18.6947004,28.7569097 C19.6772274,26.6483177 21.4263682,24.7811119 23.4274079,23.1593357 C24.654556,22.8678123 25.8594657,22.4044477 26.9705704,21.7922888 C25.8064982,24.0565487 24.6044188,26.6741949 24.9654874,29.0799711 C24.9667004,29.0884621 24.969935,29.0953357 24.9715523,29.1038267 C25.0475668,29.6084332 25.3326209,30.0709892 25.8230758,30.3443177 C26.7210975,30.8444765 27.7460794,30.7729097 28.4221227,29.8890397 C29.0985704,29.0051697 29.0658195,27.9377329 28.1815451,27.2616895 C27.8014729,26.9705704 27.3506426,26.8448231 26.9062816,26.8569531 C27.3773285,24.3840578 29.247769,21.5666715 30.2501083,19.702296 C30.5226282,19.1952635 30.8105126,18.6951047 31.0915235,18.1921155 C31.1448953,18.1241877 31.1837112,18.0510036 31.2120144,17.9753935 C31.2674079,17.8767365 31.3215884,17.7776751 31.3769819,17.6794224 C31.4077112,17.6276679 31.4412708,17.5775307 31.470787,17.5253718 C35.4769097,10.4390469 48.0265704,3.59249097 48.0265704,3.59249097 C48.0265704,3.59249097 42.208231,3.66163177 34.7450686,3.51526354 Z" fill="#FFFFFF"></path>
                <path d="M30.3139928,14.6861516 C28.3829025,18.1019495 22.5823538,19.6493285 19.9550036,16.7805921 C17.6786137,14.2947581 19.3719567,10.5563032 21.8808375,8.35148014 C24.8320578,5.75768953 28.4581083,6.20568953 32.2782383,6.28049097 C36.7558123,6.36823105 40.2476245,6.32618051 40.2476245,6.32618051 C40.2476245,6.32618051 32.7177473,10.4345993 30.3139928,14.6861516 Z" fill="#E2231A"></path>
                <path d="M20.9759422,21.0564043 C21.4635668,20.4187726 21.4684188,19.6655018 20.6621805,19.2098195 C19.9630903,18.814787 19.253083,18.7945704 18.7654585,19.4322022 C18.2778339,20.0698339 18.4007509,20.9937329 19.1018628,21.384722 C19.7487942,21.7457906 20.4883177,21.6940361 20.9759422,21.0564043 Z" fill="#E2231A"></path>
                <path d="M25.1102383,21.2120722 C25.5978628,20.5744404 25.6027148,19.8211697 24.7964765,19.3658917 C24.0973863,18.9708592 23.3873791,18.9506426 22.8997545,19.5882744 C22.41213,20.2259061 22.5350469,21.1502094 23.2361588,21.5407942 C23.8830903,21.9014585 24.6222094,21.849704 25.1102383,21.2120722 Z" fill="#E2231A"></path>
                <path d="M28.6691697,19.8923321 C29.1026137,19.3254585 29.1070614,18.6558845 28.3905848,18.2507437 C27.7691264,17.8997834 27.1379639,17.8815884 26.7045199,18.4484621 C26.2710758,19.0149314 26.3798412,19.8365343 27.002917,20.1838556 C27.5786859,20.5048953 28.23613,20.4592058 28.6691697,19.8923321 Z" fill="#E2231A"></path>
                <path d="M17.0114657,19.3933863 C17.7991047,19.2385271 18.3012852,18.6769097 17.9984404,17.8015307 C17.7360289,17.0430036 17.2168664,16.5578051 16.4292274,16.7126643 C15.6419928,16.8675235 15.1220217,17.6414152 15.3888809,18.3987292 C15.6355235,19.0978195 16.2238267,19.5486498 17.0114657,19.3933863 Z" fill="#E2231A"></path>
                <path d="M16.5379928,15.8356679 C17.3252274,15.6808087 17.8274079,15.1191913 17.5245632,14.2438123 C17.2621516,13.4852852 16.7429892,13.0000866 15.9557545,13.1549458 C15.1681155,13.3098051 14.6481444,14.0836968 14.9150036,14.8406065 C15.1620505,15.5401011 15.7503538,15.9905271 16.5379928,15.8356679 Z" fill="#E2231A"></path>
                <path d="M19.024231,11.1005343 C19.2086065,10.3193646 18.9049531,9.62997834 17.9826715,9.5438556 C17.1833069,9.46905415 16.5270758,9.74116968 16.3427004,10.5223394 C16.1579206,11.303509 16.6479711,12.0968087 17.4473357,12.1667581 C18.1860505,12.2310469 18.8394513,11.881704 19.024231,11.1005343 Z" fill="#E2231A"></path>
                <path d="M21.0871336,7.99647653 C21.2347148,7.37178339 20.9921155,6.81987004 20.2538051,6.75113357 C19.614556,6.69169675 19.0893285,6.9088231 18.9417473,7.53392058 C18.7945704,8.15901805 19.1859639,8.79381949 19.8260217,8.84961733 C20.4167509,8.90137184 20.9399567,8.62157401 21.0871336,7.99647653 Z" fill="#E2231A"></path>
            </g>
            <path d="M204.422238,22.2839567 C204.422643,22.281935 204.422238,22.2803177 204.422643,22.278296 C204.506744,21.8978195 204.553242,21.4947004 204.553242,21.071769 C204.553242,18.5665271 202.819061,17.0357256 200.529329,16.7021516 C198.049964,16.3406787 195.993126,18.3995379 195.993126,20.9047798 C195.993126,22.3292419 196.650975,23.5996534 197.678383,24.4309603 C196.662296,24.4277256 195.649444,24.2801444 194.818946,24.0339061 C194.818946,24.0298628 194.820159,24.0258195 194.820159,24.0221805 C194.820159,23.2385848 194.184953,22.6033791 193.401357,22.6033791 C192.617762,22.6033791 191.982556,23.2385848 191.982556,24.0221805 C191.982556,24.4240866 192.151162,24.7851552 192.419639,25.0431191 C192.443495,25.0665704 192.472202,25.0871913 192.499292,25.1090253 C192.605632,25.1971697 192.720462,25.2752058 192.849444,25.3293863 C196.104722,27.1031913 203.545646,26.878787 204.395957,22.407278 C204.398383,22.397574 204.4,22.3874657 204.402022,22.3773574 C204.408087,22.3462238 204.416982,22.3163032 204.422238,22.2839567 Z" id="Path" fill="#FFFFFF"></path>
            <circle id="Oval" fill="#E2231A" cx="200.273386" cy="21.051148" r="2.33744404"></circle>
        </g>
    </g>
</svg>