<svg xmlns="http://www.w3.org/2000/svg" width="518" height="486"><g fill="none" fill-rule="evenodd"><path fill="#E2231A" d="M260.05 485.197c-26.079-16.543-67.13-44.826-101.933-77.106-62.053-57.557-98.148-107.91-127.174-161.254C.188 190.316-10.618 122.988 12.657 71.453 35.93 19.918 92.566-9.425 157.286 4.957c63.587 14.13 102.021 89.77 102.021 89.77s36.936-74.315 101.407-89.77c65.882-15.793 121.355 14.961 144.629 66.496 23.274 51.535 12.469 118.862-18.286 175.384-29.025 53.344-65.121 103.697-127.174 161.254-33.987 31.522-73.737 60.458-99.833 77.106z"/><path fill="#FDFBF9" d="M259.107 172.652c-2.676-1.698-6.889-4.601-10.46-7.913-6.368-5.907-10.072-11.074-13.051-16.548-3.156-5.8-4.266-12.709-1.877-17.998 2.389-5.289 8.2-8.3 14.843-6.824 6.525 1.45 10.469 9.212 10.469 9.212s3.791-7.626 10.407-9.212c6.761-1.621 12.453 1.535 14.842 6.824 2.388 5.289 1.279 12.198-1.877 17.998-2.979 5.474-6.683 10.642-13.051 16.548-3.487 3.235-7.567 6.204-10.245 7.913z"/><path fill="#FDFBF9" fill-rule="nonzero" d="M501.126 130.175c-.455-20.397-3.99-42.58-15.477-59.879-9.148-13.777-21.956-25.079-36.004-33.677-35.213-21.555-81.045-25.478-112.608 4.625-2.327 2.22 1.203 5.743 3.526 3.527a74.906 74.906 0 0 1 6.196-5.282c-.37 3.435-.768 7.719-.77 10.351-.006 6.835 3.643 13.064 5.237 14.905 1.595 1.84 5.716 5.874 8.85 4.815 3.134-1.058 5.65-7.281 3.854-13.604-1.463-5.148-4.514-9.314-8.505-13.967-1.224-1.425-3.302-3.456-5.04-5.098 10.152-6.822 21.396-10.637 33.012-11.909-1.685 3.199-4.107 7.938-5.221 10.787-2.487 6.367-1.35 13.496-.532 15.79.818 2.294 3.193 7.549 6.497 7.7 3.304.152 7.909-4.732 8.531-11.276.506-5.328-.823-10.318-2.854-16.103-.682-1.942-2.058-4.938-3.134-7.19 11.593-.793 23.474.866 34.931 4.498-3.242 2.808-7.39 6.956-9.696 11.461-3.582 6.994-4.238 13.465-3.158 16.943.738 2.372 3.002 3.413 5.9 2.632 2.898-.781 7.478-3.115 10.501-11.367 2.815-7.685 3.045-13.575 2.594-17.519a114.944 114.944 0 0 1 13.894 6.417 128.22 128.22 0 0 1 16.188 10.47c-4.01 1.622-9.521 4.308-13.275 7.99-5.609 5.502-8.28 11.433-8.354 15.074-.051 2.483 1.769 4.187 4.765 4.364 2.996.176 8.079-.591 13.557-7.462 5.26-6.597 7.303-12.246 8.068-16.145 6.285 5.325 11.99 11.316 16.793 17.95 3.699 5.107 6.625 10.655 8.935 16.472-4.207-1.063-10.591-2.24-16.044-1.397-7.755 1.2-13.373 4.46-15.554 7.371-1.486 1.986-1.002 4.427 1.327 6.314 2.329 1.888 6.9 4.224 15.346 1.835 8.872-2.509 13.971-6.341 16.716-9.157 3.183 9.623 4.849 19.824 5.589 29.913-3.185-1.57-7.437-3.593-10.073-4.552-6.424-2.336-13.523-1.032-15.798-.16-2.273.872-7.471 3.37-7.545 6.676-.073 3.307 4.918 7.795 11.475 8.263 5.338.381 10.296-1.066 16.03-3.232 1.664-.628 4.098-1.792 6.166-2.825.04.806.083 1.613.113 2.415.45 12.268-.563 24.363-2.691 36.261-2.35-2.323-5.389-5.24-7.386-6.827-5.056-4.021-11.81-4.981-14.108-4.883-2.3.099-7.706.779-8.765 3.72-1.059 2.941 2.068 8.461 7.804 10.848 4.67 1.942 9.547 2.132 15.336 1.912 1.671-.063 4.188-.374 6.345-.678-2.027 10.089-4.838 20.031-8.229 29.808-2.509-2.577-6.062-6.133-8.335-8-5.281-4.34-12.411-5.47-14.846-5.404-2.434.066-8.166.694-9.335 3.788-1.17 3.094 2.045 8.987 8.073 11.608 4.908 2.134 10.064 2.417 16.193 2.282 1.831-.041 4.626-.345 6.963-.64-4.144 11.42-9.051 22.608-14.387 33.538-2.282-2.82-5.441-6.616-7.515-8.668-4.926-4.874-12.017-6.681-14.479-6.842-2.464-.161-8.309-.063-9.778 2.951-1.469 3.014 1.225 9.262 7.064 12.472 4.755 2.613 9.934 3.381 16.133 3.817 1.76.124 4.417.088 6.727.016-3.904 7.817-8.01 15.5-12.196 23.034a510.441 510.441 0 0 1-6.02 10.507c-2.321-3.662-6.066-8.781-10.509-11.876-6.438-4.484-12.754-6.006-16.341-5.404-2.446.41-3.781 2.511-3.399 5.484.382 2.973 2.076 7.818 9.835 11.921 7.495 3.964 13.445 4.909 17.413 4.927a509.238 509.238 0 0 1-18.739 28.83c-1.418-3.326-3.271-7.501-4.629-9.924-3.467-6.191-9.934-9.978-12.312-10.834-2.379-.855-8.158-2.414-10.458.136-2.299 2.55-.978 9.028 4.224 13.388 4.258 3.568 9.833 6.932 14.776 8.436 1.671.508 4.016 1.354 6.066 2.122a511.543 511.543 0 0 1-22.701 29.576 102.057 102.057 0 0 1-1.788-3.828c-2.478-5.659-4.17-8.794-8.123-13.637-5.478-6.711-12.815-5.705-16.4-2.224-3.769 3.662-3.301 11.046 5.813 17.098 3.706 2.461 12.24 4.666 17.729 5.903a518.36 518.36 0 0 1-19.322 21.725 560.872 560.872 0 0 1-7.631 7.932c-.932-4.487-2.909-11.818-6.595-16.979-4.868-6.815-10.674-10.606-14.496-11.286-2.606-.463-4.701 1.171-5.381 4.298-.681 3.126-.713 8.605 5.619 15.508 7.111 7.752 13.6 10.675 17.56 11.779a582.06 582.06 0 0 1-31.704 29.547c-.362-4.864-1.42-12.676-4.511-18.519-4.15-7.845-9.712-12.646-13.63-13.898-2.672-.854-5.103.565-6.258 3.753-1.156 3.188-1.963 8.937 3.712 17.08 6.404 9.188 12.837 13.169 16.836 14.874-21.965 18.674-45.251 35.754-69.628 51.419-.746-18.43-.451-34.302-1.473-53.628 3.641.189 10.666-.434 20.135-5.858 7.767-4.45 9.469-9.259 9.856-12.171.387-2.912-.943-4.874-3.389-5.126-3.586-.37-9.904 1.484-16.352 6.228-4.416 3.248-8.159 8.406-10.491 12.098-.269-5.43-.519-10.86-.728-16.291a453.417 453.417 0 0 1-.231-7.816c2.419.854 9.273 2.461 20.314-1.3 7.658-2.608 9.999-6.582 10.845-9.1.847-2.517.004-4.487-2.122-5.134-3.119-.946-9.046-.391-15.584 2.706-5.904 2.796-11.345 8.737-13.481 11.254-.14-7.519-.13-15.033-.096-22.548 3.797.462 11.199 1.007 17.097-.734 7.141-2.108 12.07-5.746 13.814-8.61 1.188-1.954.484-4.045-1.892-5.396-2.375-1.352-6.897-2.796-14.563.454-7.725 3.275-12.078 7.159-14.436 9.993.041-7.994.075-15.988-.05-23.988 2.159 1.24 5.853 2.774 10.43 2.318 5.698-.568 13.424-2.307 19.326-7.118 3.511-2.862 5.011-5.09 3.876-8.802-1.135-3.712-5.33-4.469-9.119-4.378-4.635.11-12.783 3.248-17.497 6.741-3.07 2.276-5.521 5.027-7.104 7.038a376.763 376.763 0 0 0-1.023-20.132c.035-.191.053-.395.04-.614a476.637 476.637 0 0 1-.347-6.879c3.48.492 10.164.484 19.533-3.753 7.782-3.521 9.838-7.935 10.472-10.665.633-2.73-.453-4.716-2.754-5.179-3.373-.678-9.544.51-16.1 4.428-4.619 2.761-8.744 7.504-11.281 10.816-.275-15.668 1.857-31.323 16.415-40.717 10.748-6.935 24.109-6.654 35.113-1.287-1.037 1.969-1.156 3.931-1.362 7.6-.304 5.436 3.58 20.394 5.566 26.843 1.987 6.449 4.803 26.505 4.803 26.505s21.771-12.537 31.042-21.561c9.18-8.935 27.207-27.518 25.811-27.816-3.152-.675-20.306-5.65-25.848-8.192-5.541-2.543-15.559-7.278-21.1-9.821-5.093-2.336-12.188-.469-15.787 2.577-7.697-4.034-16.53-5.901-25.05-4.746-11.25 1.524-22.789 9.146-29.201 20.289 2.927-20.264 8.514-40.057 18.518-58.08 7.5-13.514 17.233-25.385 26.829-37.401 3.652 2.348 6.345 2.358 12.602 2.334 7.564-.028 27.991-6.652 36.772-9.942 8.78-3.289 36.367-8.854 36.367-8.854s.897-.16 1.31-.273c1.216-.334 2.763-2.057 3.289-3.607.527-1.55.432-2.888-.774-4.397-1.062-1.329-3.463-2.149-5.229-2.029.106-.144.207-.29.298-.44.385-.633 1.553-4.03-.074-5.631-1.324-1.303-2.742-1.777-4.183-1.625.116-.229.22-.458.296-.684.527-1.55.432-2.888-.774-4.397-1.161-1.454-3.922-2.291-5.703-1.959.426-1.236.858-3.538-.389-4.764-1.589-1.563-3.315-1.922-5.052-1.402a4.99 4.99 0 0 0 .49-1.486c.275-1.8-.85-4.648-2.463-5.71-1.614-1.062-2.955-1.034-4.45-.367a5.58 5.58 0 0 0-.869.505 8.69 8.69 0 0 0 .686-1.977c.36-1.779-.155-3.468-1.859-4.908-1.112-.939-2.859-.651-4.103-.217.271-1.332.385-3.594-.974-4.659-1.797-1.408-3.596-1.573-5.303-.842-.068.029-.141.069-.21.102.18-.39.322-.786.405-1.167.35-1.6.104-2.918-1.263-4.283-1.255-1.251-3.884-1.782-5.63-1.375.243-1.315.305-3.409-.978-4.414-1.757-1.376-3.515-1.538-5.184-.823-.04.017-.084.043-.125.062.073-.309.127-.619.139-.925.07-1.82-1.366-4.523-3.09-5.397-1.723-.874-3.052-.695-4.463.135-.025.015-.05.036-.075.052.03-.185.06-.369.075-.542.158-1.808-.544-3.428-2.399-4.667-1.232-.824-2.975-.308-4.163.275-.019-1.814-1.408-4.377-3.08-5.225-1.723-.874-3.053-.696-4.463.135-1.411.831-2.654 2.694-2.827 3.942-.013.095-.034.2-.046.28-.715 4.588-6.159 28.6-9.213 36.46-3.068 7.896-8.808 22.184-11.876 30.081-2.608 6.713-.083 15.504 3.891 20.539-10.146 12.697-20.442 25.248-28.243 39.604-7.955 14.642-13.108 30.348-16.391 46.516-3.565-18.683-9.296-36.862-17.664-54.1-5.992-12.34-13.292-23.852-21.242-34.938 4.519-4.745 7.689-14.423 4.872-21.676-3.069-7.896-8.808-22.184-11.876-30.08-3.055-7.86-8.498-31.872-9.214-36.46-.011-.08-.032-.185-.046-.28-.172-1.249-1.416-3.112-2.826-3.943-1.411-.831-2.741-1.009-4.464-.135-1.671.848-3.062 3.411-3.079 5.225-1.188-.583-2.932-1.099-4.163-.275-1.856 1.239-2.558 2.859-2.399 4.667.016.172.045.356.074.542-.024-.016-.05-.037-.075-.052-1.41-.831-2.74-1.009-4.463-.135-1.724.874-3.16 3.578-3.089 5.397.011.306.065.616.139.925-.042-.019-.085-.044-.126-.061-1.669-.714-3.427-.553-5.183.823-1.282 1.005-1.222 3.099-.978 4.414-1.746-.407-4.375.124-5.63 1.375-1.367 1.364-1.612 2.683-1.264 4.283a5.9 5.9 0 0 0 .406 1.167c-.069-.032-.142-.073-.21-.103-1.707-.731-3.506-.566-5.304.843-1.358 1.064-1.244 3.326-.974 4.659-1.243-.434-2.989-.723-4.102.217-1.704 1.44-2.221 3.128-1.86 4.907.123.608.36 1.295.687 1.977a5.58 5.58 0 0 0-.869-.505c-1.495-.667-2.836-.695-4.45.367-1.614 1.062-2.738 3.91-2.464 5.709.077.503.248 1.006.49 1.487-1.736-.52-3.462-.161-5.051 1.402-1.247 1.227-.814 3.527-.389 4.764-1.782-.333-4.542.505-5.704 1.958-1.205 1.509-1.301 2.848-.774 4.398.077.226.181.456.297.684-1.44-.152-2.858.321-4.183 1.624-1.628 1.602-.46 4.998-.075 5.631.091.151.192.297.299.44-1.767-.121-4.168.701-5.229 2.029-1.206 1.509-1.302 2.848-.775 4.398.526 1.55 2.074 3.273 3.29 3.607.412.113 1.31.272 1.31.272s27.586 5.565 36.367 8.855c8.78 3.29 29.208 9.914 36.772 9.942 5.505.02 8.25.013 11.317-1.587 7.484 10.468 14.367 21.336 20.104 32.918 6.319 12.759 11.131 26.123 14.638 39.837-4.586-8.946-11.619-15.787-20.929-19.64-.156-1.105-.405-2.137-.765-3.035-2.21-5.515-4.05-6.556-9.998-9.861-5.947-3.305-24.889-7.092-33.225-8.373-8.337-1.281-32.43-9.048-32.43-9.048s2.232 31.322 7.326 46.667c5.046 15.196 16.118 45.603 17.216 44.194 2.478-3.177 17.425-19.758 23.306-24.604 5.88-4.847 16.668-13.533 22.548-18.379 3.497-2.882 5.464-7.668 6.028-12.236 7.694 3.758 13.558 9.784 17.262 17.786 4.125 8.913 5.811 18.737 7.404 28.354a452.58 452.58 0 0 1 3.184 22.711c-2.205-2.801-5.675-6.157-11.109-9.444-7.124-4.309-11.806-3.523-14.35-2.524-2.544.999-3.539 2.967-2.641 5.071 1.317 3.084 5.679 7.387 12.446 10.49 5.377 2.467 12.434 3.037 16.367 3.151.795 8.166 1.345 16.357 1.591 24.587-2.339-3.201-6.486-7.416-13.711-11.395-7.821-4.307-12.803-3.262-15.484-2.08-2.682 1.181-3.661 3.332-2.607 5.547 1.546 3.247 6.404 7.667 13.791 10.698 6.093 2.501 14.037 2.732 18.142 2.656.133 7.482.102 14.963.05 22.443-1.166-1.444-2.52-2.951-3.964-4.221-4.313-3.79-9.646-7.423-13.182-9.102-3.572-1.697-6.061-2.339-8.616-2.372-2.557-.032-6.757 1.828-3.468 7.348 3.182 5.335 8.268 8.762 13.548 11.584 6.172 3.298 11.427 3.779 14.546 3.543.37-.028.735-.076 1.091-.135-.043 6.579-.063 13.158.039 19.739-1.895-3.08-5.087-6.942-10.444-10.934-6.678-4.975-11.413-4.643-14.041-3.893-2.628.749-3.808 2.613-3.115 4.793 1.015 3.197 4.941 7.899 11.379 11.64 5.285 3.07 12.549 4.299 16.366 4.756.018.605.032 1.211.053 1.816.189 5.635.429 11.267.7 16.897a17.677 17.677 0 0 0-2.923-3.816c-4.325-4.29-10.982-9.449-18.927-11.032-4.726-.94-7.569-.663-9.845 2.782-2.276 3.445-.055 7.398 2.585 10.445 3.229 3.726 11.322 8.285 17.38 9.784 4.817 1.193 9.597 1.15 12.202.998.494 9.008.982 38.9 1.444 53.144-24.201-15.58-47.325-32.556-69.145-51.106 3.998-1.705 10.432-5.687 16.835-14.874 5.675-8.145 4.868-13.894 3.713-17.08-1.156-3.188-3.586-4.608-6.259-3.754-3.917 1.253-9.479 6.054-13.629 13.899-3.092 5.843-4.149 13.654-4.512 18.519a581.692 581.692 0 0 1-31.703-29.548c3.959-1.104 10.448-4.026 17.559-11.778 6.332-6.903 6.301-12.382 5.62-15.509-.681-3.126-2.774-4.761-5.382-4.297-3.822.68-9.627 4.471-14.495 11.285-3.687 5.161-5.663 12.491-6.595 16.979a572.096 572.096 0 0 1-7.632-7.931 517.727 517.727 0 0 1-19.322-21.725c5.489-1.237 14.023-3.443 17.729-5.903 9.115-6.053 9.582-13.437 5.813-17.098-3.584-3.482-10.922-4.487-16.4 2.223-3.953 4.843-5.645 7.979-8.123 13.638a100.548 100.548 0 0 1-1.788 3.827 511.97 511.97 0 0 1-22.701-29.575c2.052-.768 4.396-1.614 6.066-2.122 4.944-1.505 10.52-4.867 14.776-8.437 5.202-4.359 6.523-10.838 4.224-13.388-2.299-2.55-8.078-.991-10.457-.135-2.379.855-8.846 4.643-12.313 10.833-1.357 2.424-3.211 6.599-4.629 9.924a507.765 507.765 0 0 1-18.738-28.83c3.967-.017 9.917-.962 17.413-4.926 7.758-4.103 9.452-8.948 9.834-11.922.383-2.974-.953-5.074-3.399-5.484-3.586-.602-9.901.92-16.341 5.405-4.441 3.095-8.187 8.214-10.509 11.875a515.033 515.033 0 0 1-6.02-10.506c-4.186-7.534-8.291-15.217-12.195-23.034 2.309.071 4.966.108 6.727-.016 6.199-.437 11.377-1.205 16.132-3.818 5.84-3.209 8.534-9.458 7.064-12.472-1.47-3.014-7.314-3.112-9.777-2.951-2.464.162-9.555 1.968-14.48 6.842-2.073 2.052-5.231 5.849-7.515 8.668-5.335-10.93-10.242-22.118-14.387-33.538 2.338.295 5.133.6 6.963.64 6.129.135 11.286-.148 16.193-2.282 6.028-2.621 9.243-8.514 8.074-11.608-1.17-3.094-6.901-3.722-9.336-3.788-2.434-.066-9.563 1.064-14.846 5.404-2.272 1.868-5.825 5.423-8.334 8-3.393-9.777-6.202-19.719-8.229-29.808 2.157.304 4.673.615 6.345.678 5.789.22 10.665.03 15.335-1.912 5.736-2.386 8.862-7.906 7.804-10.847-1.058-2.941-6.465-3.621-8.764-3.72-2.3-.099-9.054.861-14.109 4.882-1.997 1.588-5.035 4.504-7.386 6.827-2.127-11.897-3.142-23.993-2.69-36.26.029-.803.072-1.609.112-2.416 2.068 1.033 4.503 2.197 6.166 2.826 5.735 2.166 10.692 3.612 16.03 3.231 6.558-.467 11.549-4.956 11.475-8.263-.074-3.307-5.271-5.805-7.545-6.676-2.273-.871-9.373-2.176-15.798.16-2.637.959-6.889 2.982-10.073 4.552.74-10.089 2.407-20.29 5.589-29.912 2.745 2.815 7.844 6.647 16.717 9.157 8.445 2.388 13.016.052 15.345-1.835 2.329-1.887 2.814-4.329 1.327-6.314-2.18-2.911-7.799-6.17-15.554-7.371-5.453-.844-11.837.334-16.043 1.397 2.309-5.818 5.235-11.366 8.934-16.473C48.4 63.669 54.104 57.677 60.39 52.353c.766 3.898 2.808 9.548 8.067 16.145 5.479 6.872 10.561 7.638 13.557 7.461 2.997-.176 4.815-1.88 4.765-4.363-.074-3.641-2.744-9.572-8.354-15.074-3.754-3.682-9.266-6.368-13.275-7.99a128.006 128.006 0 0 1 16.188-10.47 114.72 114.72 0 0 1 13.893-6.417c-.451 3.944-.222 9.834 2.595 17.519 3.023 8.251 7.602 10.586 10.5 11.367 2.898.781 5.163-.26 5.9-2.632 1.081-3.478.424-9.949-3.157-16.942-2.308-4.506-6.455-8.654-9.697-11.462 11.457-3.632 23.338-5.292 34.931-4.498-1.075 2.253-2.452 5.248-3.133 7.19-2.03 5.784-3.36 10.774-2.854 16.102.621 6.544 5.227 11.428 8.531 11.276 3.304-.152 5.679-5.406 6.496-7.7.818-2.294 1.955-9.422-.532-15.79-1.112-2.849-3.535-7.587-5.22-10.787 11.614 1.271 22.858 5.086 33.011 11.909-1.737 1.643-3.816 3.673-5.039 5.098-3.992 4.652-7.043 8.819-8.506 13.967-1.797 6.323.721 12.546 3.854 13.604 3.134 1.059 7.254-2.975 8.85-4.815 1.595-1.84 5.242-8.07 5.236-14.905-.001-2.633-.398-6.917-.77-10.352a74.77 74.77 0 0 1 6.196 5.282c2.324 2.216 5.854-1.307 3.526-3.526-31.563-30.103-77.395-26.18-112.607-4.625-14.048 8.599-26.856 19.9-36.004 33.678-11.487 17.299-15.021 39.482-15.478 59.879-1.097 49.127 20.289 95.616 43.904 137.504 46.198 81.947 114.823 148.072 193.831 198.315.339.215.675.337.998.381.883.266 1.93.063 2.598-.592.065-.035.13-.058.195-.1 79.009-50.242 147.634-116.368 193.832-198.314 23.62-41.884 45.006-88.374 43.908-137.501z"/><path fill="#E2231A" d="M300.097 129.138s3.725 1.73 7.377 3.742c3.521 1.94 5.72 3.565 6.386 3.963l-.107.141s4.104 3.342 5.332 4.518c.852.815 3.271 3.359 4.444 4.596-.044.044-.096.083-.138.127-.101.111 2.919 4.159 5.061 8.421 1.885 3.752 3.041 7.993 3.041 7.993s6.676-1.621 7.518-7.724c.601-4.35-1.402-7.604-3.516-9.252-1.881-1.466-5.565-1.893-8.526-1.236 1.798-1.782 3.763-4.35 3.535-6.908-.309-3.457-3.424-6.216-5.967-6.581-3.411-.489-6.56 1.715-8.563 3.597 1.908-2.846 3.382-6.861.858-11.191-2.049-3.516-5.873-4.533-9.968-2.948-4.094 1.587-6.767 8.742-6.767 8.742zM383.23 133.645c-.111-.906.428-1.432 1.305-1.889.9-.47 1.725.389 2.154 1.035.43.643.015 2.237-1.17 2.653-.959.338-2.132-.547-2.289-1.799zM378.901 126.679c-.111-.906.428-1.431 1.305-1.888.9-.47 1.725.388 2.153 1.035.431.643.015 2.237-1.169 2.653-.961.338-2.133-.546-2.289-1.8zM372.582 120.136c-.111-.906.428-1.432 1.305-1.889.9-.469 1.725.389 2.154 1.035.43.643.014 2.237-1.17 2.653-.961.338-2.134-.546-2.289-1.799zM367.478 112.765c-.11-.906.429-1.432 1.306-1.889.9-.47 1.724.389 2.153 1.035.431.643.015 2.237-1.169 2.653-.961.338-2.134-.546-2.29-1.799zM360.552 106.17c-.11-.906.429-1.432 1.306-1.889.9-.469 1.724.389 2.153 1.035.431.643.015 2.237-1.169 2.653-.961.338-2.134-.546-2.29-1.799zM327.952 77.716c-.212-.888.265-1.471 1.085-2.023.842-.567 1.757.193 2.257.787.499.59.265 2.221-.864 2.768-.917.443-2.182-.304-2.478-1.532zM348.254 94.204c-.213-.888.264-1.471 1.084-2.023.843-.567 1.757.192 2.257.787.5.59.266 2.221-.864 2.768-.918.443-2.182-.304-2.477-1.532z"/><path fill="#FDFBF9" d="M332.042 157.201s3.158-1.75 3.759-3.862c.602-2.111-.381-4.02-1.538-4.696-1.157-.675-4.913-.815-6.115.503-.051.056 1.303 1.927 2.374 4.059.942 1.876 1.52 3.996 1.52 3.996zM304.964 128.205s1.195-3.719 3.243-4.511c2.047-.792 3.959-.284 4.983 1.474 1.677 2.877-.176 5.477-1.378 6.795-.051.056-1.212-.877-3.302-2.028-1.824-1.006-3.546-1.73-3.546-1.73zM323.109 142.026s3.762-2.044 3.557-4.353c-.154-1.729-1.712-3.108-2.984-3.291-2.884-.414-5.307 3.106-5.307 3.106s1.968 1.587 2.581 2.175c.57.547 2.153 2.363 2.153 2.363z"/><path fill="#E2231A" d="M319.643 141.479c.342.34.68.686 1.012 1.039 8.414 8.926 10.962 19.655 11.066 20.107l-2.146.496c-.024-.105-2.532-10.617-10.522-19.093-8.069-8.557-19.514-13.149-19.628-13.195l.811-2.047c.466.186 11.121 4.46 19.407 12.693z"/><path fill="#E2231A" d="M324.056 161.152c-.099-.808.383-1.277 1.165-1.685.804-.419 1.538.347 1.922.924.384.574.013 1.997-1.044 2.368-.858.301-1.904-.488-2.043-1.607zM388.568 141.338c-.111-.906.428-1.432 1.305-1.889.9-.469 1.725.388 2.154 1.035.43.643.014 2.237-1.17 2.653-.96.339-2.133-.546-2.289-1.799zM354.324 100.688c-.212-.888.265-1.471 1.085-2.023.842-.568 1.757.192 2.257.787.499.59.266 2.221-.864 2.768-.917.443-2.182-.304-2.478-1.532zM341.441 88.62c-.213-.888.264-1.471 1.084-2.023.843-.567 1.757.192 2.257.787.5.59.266 2.221-.864 2.768-.917.442-2.182-.305-2.477-1.532zM335.229 82.539c-.212-.888.265-1.47 1.084-2.023.843-.567 1.758.192 2.257.787.5.59.266 2.222-.864 2.768-.917.442-2.183-.304-2.477-1.532zM321.122 72.567c-.212-.888.265-1.471 1.085-2.023.842-.567 1.757.192 2.257.787.499.59.265 2.221-.864 2.768-.917.443-2.182-.304-2.478-1.532zM343.178 96.569c-.061-.495.233-.782.712-1.031.492-.256.942.212 1.177.565.235.351.008 1.222-.639 1.449-.525.184-1.165-.299-1.25-.983zM346.601 98.337s.588 9.375-2.824 13.117c-3.412 3.742-15.094 8.384-15.094 8.384s.954-10.849 4.525-15.637c3.572-4.788 13.393-5.864 13.393-5.864z"/><path fill="#FDFBF9" d="M342.033 103.632s.293 4.688-1.412 6.559c-1.706 1.871-7.548 4.192-7.548 4.192s.478-5.424 2.264-7.818c1.785-2.395 6.696-2.933 6.696-2.933z"/><path fill="#E2231A" d="M339.07 98.143c-.061-.495.234-.781.713-1.031.492-.256.941.212 1.176.565.235.351.008 1.222-.639 1.449-.524.184-1.165-.299-1.25-.983zM336.185 99.211c-.061-.495.233-.782.713-1.031.491-.256.941.212 1.176.565.235.351.008 1.222-.639 1.449-.525.184-1.165-.298-1.25-.983zM333.277 101.131c-.061-.495.233-.782.713-1.032.491-.256.941.212 1.176.565.235.351.008 1.222-.639 1.449-.524.185-1.165-.298-1.25-.982zM330.758 103.926c-.061-.495.234-.782.713-1.031.492-.256.941.212 1.177.565.234.351.008 1.222-.639 1.449-.526.184-1.166-.299-1.251-.983zM328.86 107.256c-.061-.495.233-.782.713-1.031.492-.256.941.212 1.177.565.234.351.007 1.222-.639 1.449-.525.185-1.166-.298-1.251-.983zM327.539 110.669c-.061-.495.233-.782.712-1.032.492-.256.942.212 1.177.565.234.351.008 1.222-.639 1.449-.524.185-1.165-.298-1.25-.982zM326.781 114.489c-.061-.495.234-.782.713-1.031.492-.256.941.212 1.177.565.234.351.008 1.222-.639 1.449-.525.184-1.165-.299-1.251-.983zM326.49 117.296c-.061-.495.234-.782.713-1.031.492-.256.941.212 1.177.565.234.351.008 1.222-.639 1.449-.524.185-1.165-.298-1.251-.983zM326.501 120.722c-.061-.495.234-.782.713-1.031.492-.257.941.212 1.177.565.234.351.008 1.222-.639 1.449-.525.184-1.166-.299-1.251-.983zM329.772 120.558c-.061-.495.233-.782.713-1.031.491-.256.941.212 1.176.565.235.351.008 1.222-.639 1.449-.524.184-1.165-.299-1.25-.983zM332.526 119.6c-.061-.495.233-.782.713-1.031.491-.256.941.212 1.176.565.235.351.13.869-.517 1.096-.525.185-1.287.055-1.372-.63zM335.434 117.865c-.061-.495.233-.782.713-1.031.491-.256.941.212 1.176.565.235.351.008 1.222-.639 1.449-.525.185-1.165-.298-1.25-.983zM338.173 116.511c-.061-.495.233-.782.713-1.032.491-.256.941.212 1.176.565.235.351.13.869-.517 1.096-.525.185-1.287.055-1.372-.629zM341.094 114.992c-.061-.495.233-.782.713-1.031.491-.257.941.212 1.176.565.235.351.13.869-.517 1.096-.525.185-1.287.055-1.372-.63zM343.617 112.973c-.061-.495.234-.782.713-1.031.492-.256.941.212 1.176.565.235.351.13.869-.517 1.096-.524.185-1.287.055-1.372-.63zM345.929 109.91c-.061-.495.233-.782.713-1.032.491-.256.941.212 1.176.565-.213-.318.78.951-.639 1.449-.525.185-1.165-.298-1.25-.982zM347.158 106.568c-.061-.495.234-.782.713-1.032.492-.256.941.212 1.176.565-.213-.318.78.951-.639 1.449-.524.185-1.165-.298-1.25-.982zM347.428 103.021c-.06-.495.234-.782.713-1.031.492-.256.941.212 1.177.565.235.351.129.869-.518 1.096-.525.184-1.286.055-1.372-.63zM347.795 99.294c-.061-.495.233-.782.712-1.031.492-.256.942.212 1.177.565.235.351.008 1.222-.639 1.449-.524.185-1.165-.298-1.25-.983zM363.237 115.017s-2.481 11.544-8.271 15.278c-3.791 2.445-10.311 4.527-14.201 4.138-.335-.034 1.116-9.938 5.899-13.964 7.207-6.066 16.573-5.452 16.573-5.452z"/><path fill="#FDFBF9" d="M357.504 119.767s-1.241 5.771-4.136 7.639c-1.896 1.223-5.155 2.263-7.101 2.069-.167-.017.559-4.969 2.95-6.982 3.603-3.034 8.287-2.726 8.287-2.726z"/><path fill="#E2231A" d="M359.021 113.152c-.061-.495.233-.782.713-1.031.491-.257.941.212 1.176.565.235.351.008 1.222-.639 1.449-.524.184-1.165-.298-1.25-.983zM355.729 113.536c-.061-.495.233-.782.713-1.031.491-.256.941.212 1.176.565.235.351.008 1.222-.639 1.449-.524.184-1.165-.299-1.25-.983zM352.004 114.558c-.061-.495.233-.782.712-1.031.492-.257.942.212 1.177.565.234.351.008 1.222-.639 1.449-.525.184-1.165-.299-1.25-.983zM348.982 116.177c-.061-.495.233-.782.712-1.031.492-.256.942.212 1.177.565.235.351.008 1.222-.639 1.449-.524.184-1.165-.299-1.25-.983zM345.949 118.361c-.061-.495.234-.782.713-1.032.492-.256.941.212 1.176.565.235.351.009 1.222-.639 1.449-.524.185-1.165-.298-1.25-.982zM343.189 120.878c-.061-.495.234-.782.713-1.031.492-.257.941.212 1.176.565.235.351.008 1.222-.638 1.449-.525.184-1.166-.298-1.251-.983zM341.164 123.827c-.061-.495.233-.781.713-1.031.491-.256.941.212 1.176.565.235.351.008 1.222-.639 1.449-.524.185-1.165-.298-1.25-.983zM339.576 127.204c-.061-.495.233-.782.713-1.031.492-.256.941.212 1.176.565.235.352.008 1.222-.639 1.449-.524.184-1.165-.299-1.25-.983zM338.39 130.984c-.061-.495.234-.782.713-1.031.492-.256.941.212 1.177.565.234.351.008 1.222-.639 1.449-.526.184-1.166-.298-1.251-.983zM338.403 135.287c-.061-.495.233-.782.713-1.031.491-.256.941.212 1.176.565.235.351.008 1.222-.639 1.449-.524.184-1.165-.298-1.25-.983zM342.665 135.955c-.061-.495.234-.782.713-1.031.492-.256.941.212 1.177.565.234.351.008 1.222-.639 1.449-.525.184-1.166-.299-1.251-.983zM345.912 135.681c-.061-.495.233-.782.713-1.031.491-.256.941.212 1.176.565.235.351.008 1.222-.639 1.449-.524.184-1.165-.299-1.25-.983zM348.988 134.57c-.061-.495.234-.782.713-1.031.492-.256.941.212 1.177.565.234.351.008 1.222-.639 1.449-.524.185-1.165-.298-1.251-.983zM352.271 133.476c-.061-.495.233-.782.713-1.031.491-.256.941.212 1.176.565.235.352.008 1.222-.639 1.449-.524.185-1.165-.298-1.25-.983zM355.359 131.583c-.061-.495.234-.782.713-1.031.492-.256.941.212 1.177.565.235.351.008 1.222-.639 1.449-.524.184-1.165-.299-1.251-.983zM357.774 129.153c-.062-.495.233-.782.712-1.031.492-.256.941.212 1.177.565.234.351.008 1.222-.639 1.449-.524.185-1.165-.298-1.25-.983zM359.91 126.098c-.061-.495.233-.782.712-1.032.492-.256.942.212 1.177.565.235.352.008 1.222-.639 1.449-.524.186-1.165-.298-1.25-.982zM361.593 122.984c-.061-.495.233-.782.712-1.031.492-.256.942.212 1.177.565.235.351.008 1.222-.639 1.449-.525.184-1.165-.299-1.25-.983zM363.05 119.421c-.061-.495.233-.782.712-1.031.492-.257.942.212 1.177.565.235.351.008 1.222-.639 1.449-.525.184-1.165-.299-1.25-.983zM329.188 83.946s.401 9.801-2.104 14.072c-2.504 4.271-10.565 9.732-10.565 9.732s-2.237-9.091 1.85-15.644c3.302-5.29 10.819-8.16 10.819-8.16z"/><path fill="#FDFBF9" d="M325.8 89.696s.201 4.9-1.052 7.036c-1.252 2.135-5.282 4.866-5.282 4.866s-1.119-4.546.925-7.822c1.65-2.645 5.409-4.08 5.409-4.08z"/><path fill="#E2231A" d="M330.007 86.843c-.062-.495.233-.782.712-1.031.492-.256.942.212 1.177.565.235.351.008 1.222-.639 1.449-.525.184-1.165-.299-1.25-.983zM330 91.676c-.061-.495.234-.782.713-1.031.492-.256.941.212 1.176.565.235.351.008 1.222-.639 1.449-.524.185-1.165-.298-1.25-.983zM329.214 95.704c-.061-.495.233-.782.713-1.031.491-.256.941.212 1.176.565.235.351.008 1.222-.639 1.449-.525.184-1.165-.299-1.25-.983zM327.709 99.506c-.061-.495.233-.782.713-1.031.491-.256.941.212 1.176.565.235.351.008 1.222-.639 1.449-.524.185-1.165-.298-1.25-.983zM324.993 102.239c-.061-.495.233-.782.713-1.031.491-.256.941.212 1.176.565.235.351.008 1.222-.639 1.449-.524.185-1.165-.298-1.25-.983zM321.929 105.063c-.061-.495.233-.782.712-1.031.492-.256.942.212 1.177.565.235.351.008 1.222-.639 1.449-.525.184-1.165-.298-1.25-.983zM318.629 107.776c-.061-.495.233-.782.713-1.032.491-.256.941.212 1.176.565.235.351.008 1.222-.639 1.449-.525.185-1.165-.298-1.25-.982zM314.883 109.571c-.061-.495.233-.782.713-1.031.491-.256.941.212 1.176.565.235.351.008 1.222-.639 1.449-.525.185-1.165-.298-1.25-.983zM313.277 105.547c-.061-.495.234-.782.713-1.031.492-.256.941.212 1.177.565.234.351.008 1.222-.639 1.449-.524.184-1.165-.299-1.251-.983zM313.158 101.742c-.061-.495.233-.782.712-1.031.492-.256.942.212 1.177.565.234.351.008 1.222-.639 1.449-.524.184-1.165-.299-1.25-.983zM313.146 97.754c-.061-.495.233-.782.713-1.031.491-.256.941.212 1.176.565.235.351.008 1.222-.639 1.449-.525.185-1.166-.298-1.25-.983zM314.562 94.204c-.061-.495.233-.782.712-1.031.492-.256.942.212 1.177.565.235.351.008 1.222-.639 1.449-.525.185-1.166-.298-1.25-.983zM316.298 91.036c-.061-.495.233-.782.713-1.032.492-.256.941.212 1.177.565.234.351.007 1.222-.639 1.449-.526.185-1.166-.298-1.251-.982zM318.71 88.044c-.061-.495.234-.782.713-1.031.492-.256.941.212 1.177.565.234.351.008 1.222-.639 1.449-.525.184-1.166-.298-1.251-.983zM321.788 85.337c-.061-.495.234-.782.713-1.031.492-.256.941.212 1.176.565.235.351.009 1.222-.638 1.449-.525.184-1.166-.299-1.251-.983zM325.264 83.261c-.061-.495.234-.782.713-1.032.492-.256.941.212 1.177.565.234.351.008 1.222-.639 1.449-.526.185-1.165-.298-1.251-.982zM379.743 135.606s-4.462 7.847-11.565 10.706c-5.824 2.343-14.21.339-14.21.339s2.608-7.354 7.492-10.35c7.067-4.336 18.283-.695 18.283-.695z"/><path fill="#FDFBF9" d="M373.058 138.146s-2.23 3.924-5.783 5.353c-2.911 1.171-7.104.169-7.104.169s1.305-3.677 3.746-5.175c3.532-2.167 9.141-.347 9.141-.347z"/><path fill="#E2231A" d="M374.411 132.101c-.061-.495.234-.782.713-1.031.492-.256.941.212 1.177.565.234.351.008 1.222-.639 1.449-.525.185-1.166-.298-1.251-.983zM370.593 131.642c-.061-.495.234-.782.713-1.031.492-.256.941.212 1.177.565.234.351.008 1.222-.639 1.449-.526.184-1.166-.299-1.251-.983zM366.637 131.816c-.061-.495.233-.782.713-1.031.491-.257.941.212 1.176.565.235.351.008 1.222-.639 1.449-.525.184-1.165-.298-1.25-.983zM362.723 132.913c-.061-.495.234-.782.713-1.031.492-.256.941.212 1.177.565.234.351.008 1.222-.639 1.449-.525.184-1.165-.299-1.251-.983zM359.068 135.169c-.061-.495.234-.782.713-1.032.492-.256.941.212 1.176.565.235.351.008 1.222-.639 1.449-.524.185-1.165-.297-1.25-.982zM356.132 137.344c-.061-.495.233-.782.712-1.031.492-.256.942.212 1.177.565.235.351.008 1.222-.639 1.449-.525.184-1.165-.299-1.25-.983zM353.87 140.14c-.061-.495.233-.782.713-1.032.491-.256.941.212 1.176.565.235.351.008 1.222-.639 1.449-.524.185-1.165-.298-1.25-.982zM358.699 149.336c-.061-.495.233-.782.713-1.031.491-.256.941.212 1.176.565.235.351.008 1.222-.639 1.449-.524.184-1.165-.298-1.25-.983zM362.494 149.324c-.061-.495.233-.782.712-1.031.492-.257.942.212 1.177.565.234.351.008 1.222-.639 1.449-.525.184-1.166-.298-1.25-.983zM366.049 148.588c-.061-.495.234-.782.713-1.031.492-.256.941.212 1.176.565.235.351.008 1.222-.639 1.449-.525.185-1.165-.298-1.25-.983zM369.852 147.274c-.061-.495.233-.782.712-1.031.492-.256.942.212 1.177.565.235.351.008 1.222-.639 1.449-.525.184-1.165-.299-1.25-.983zM373.151 145.374c-.061-.495.234-.782.713-1.031.492-.257.941.212 1.176.565.235.351.009 1.222-.638 1.449-.525.184-1.166-.298-1.251-.983zM375.998 142.509c-.06-.495.234-.782.713-1.031.492-.256.941.212 1.177.565.234.351.008 1.222-.639 1.449-.524.184-1.165-.299-1.251-.983zM378.797 139.237c-.061-.494.233-.781.713-1.031.491-.256.941.212 1.176.565.235.351.008 1.222-.639 1.449-.525.185-1.165-.298-1.25-.983zM352.221 143.481c-.061-.495.233-.782.712-1.031.492-.256.942.212 1.177.565.234.351.008 1.222-.639 1.449-.526.185-1.166-.298-1.25-.983zM351.268 147.282c-.061-.495.234-.782.713-1.031.492-.256.941.212 1.176.565.235.351.008 1.222-.639 1.449-.525.184-1.165-.299-1.25-.983zM355.092 149.113c-.062-.495.233-.782.712-1.031.492-.257.942.212 1.177.565.234.351.008 1.222-.639 1.449-.526.184-1.166-.298-1.25-.983zM321.482 156.325c-.1-.808.382-1.277 1.164-1.685.804-.419 1.539.347 1.922.924.384.573.013 1.996-1.043 2.367-.857.301-1.904-.488-2.043-1.606zM318.244 151.253c-.099-.808.382-1.277 1.165-1.685.804-.419 1.538.347 1.922.924.384.573.013 1.996-1.044 2.367-.857.302-1.904-.487-2.043-1.606zM314.397 146.719c-.1-.809.382-1.278 1.164-1.685.804-.419 1.539.346 1.922.923.384.574.013 1.997-1.043 2.368-.857.301-1.904-.488-2.043-1.606zM310.194 142.542c-.099-.808.382-1.277 1.164-1.685.804-.419 1.539.347 1.923.924.384.573.013 1.996-1.044 2.367-.857.302-1.904-.487-2.043-1.606zM305.214 138.563c-.099-.809.382-1.277 1.164-1.685.804-.419 1.539.346 1.922.924.385.573.014 1.996-1.043 2.367-.858.301-1.904-.488-2.043-1.606zM300.316 135.292c-.099-.809.383-1.278 1.165-1.686.804-.419 1.538.347 1.922.924.384.573.013 1.996-1.044 2.367-.856.302-1.903-.487-2.043-1.605zM218.108 125.084s-3.726 1.73-7.377 3.742c-3.522 1.94-5.72 3.565-6.386 3.963l.106.141s-4.104 3.342-5.331 4.518c-.852.816-3.272 3.359-4.444 4.597.043.044.096.083.137.127.102.111-2.918 4.159-5.06 8.421-1.886 3.752-3.041 7.993-3.041 7.993s-6.676-1.621-7.519-7.724c-.601-4.35 1.403-7.604 3.517-9.252 1.88-1.466 5.564-1.893 8.525-1.236-1.798-1.782-3.763-4.35-3.535-6.908.309-3.457 3.425-6.217 5.968-6.581 3.411-.489 6.559 1.715 8.562 3.598-1.908-2.847-3.381-6.861-.857-11.191 2.049-3.516 5.872-4.533 9.967-2.948 4.095 1.585 6.768 8.74 6.768 8.74zM134.975 129.59c.11-.906-.429-1.432-1.306-1.889-.9-.469-1.724.389-2.153 1.035-.431.643-.015 2.237 1.169 2.653.961.339 2.133-.546 2.29-1.799zM139.304 122.625c.11-.906-.429-1.432-1.305-1.889-.901-.469-1.725.389-2.154 1.035-.431.643-.015 2.237 1.169 2.653.961.339 2.133-.546 2.29-1.799zM145.623 116.082c.11-.906-.428-1.432-1.305-1.889-.901-.469-1.725.388-2.154 1.035-.431.643-.015 2.237 1.17 2.653.96.338 2.133-.547 2.289-1.799zM150.727 108.71c.111-.906-.428-1.432-1.305-1.889-.9-.469-1.725.389-2.154 1.035-.43.643-.014 2.238 1.17 2.653.96.339 2.133-.546 2.289-1.799zM157.652 102.115c.111-.906-.428-1.432-1.305-1.889-.9-.469-1.725.389-2.154 1.036-.43.643-.014 2.237 1.17 2.653.961.338 2.134-.546 2.289-1.8zM190.252 73.662c.212-.888-.265-1.47-1.084-2.023-.843-.567-1.758.192-2.257.787-.5.59-.266 2.222.864 2.768.916.443 2.182-.304 2.477-1.532zM169.951 90.149c.212-.888-.265-1.47-1.084-2.023-.843-.568-1.758.192-2.257.787-.5.59-.266 2.222.864 2.768.917.443 2.182-.304 2.477-1.532z"/><path fill="#FDFBF9" d="M186.163 153.147s-3.158-1.75-3.76-3.862c-.601-2.111.382-4.021 1.539-4.696 1.157-.675 4.912-.815 6.115.502.051.056-1.304 1.928-2.374 4.059-.943 1.876-1.52 3.997-1.52 3.997zM213.24 124.15s-1.195-3.718-3.242-4.511c-2.047-.793-3.959-.284-4.983 1.474-1.677 2.877.175 5.477 1.378 6.795.05.056 1.212-.877 3.301-2.028a42.688 42.688 0 0 1 3.546-1.73zM195.095 137.972s-3.762-2.044-3.556-4.353c.154-1.729 1.712-3.108 2.983-3.291 2.884-.414 5.308 3.106 5.308 3.106s-1.968 1.587-2.581 2.175c-.57.547-2.154 2.363-2.154 2.363z"/><path fill="#E2231A" d="M198.563 137.425c-.342.339-.68.686-1.012 1.039-8.414 8.926-10.962 19.655-11.066 20.107l2.145.496c.025-.105 2.533-10.617 10.523-19.093 8.069-8.557 19.513-13.149 19.627-13.195l-.81-2.047c-.468.185-11.122 4.459-19.407 12.693z"/><path fill="#E2231A" d="M194.148 157.098c.1-.808-.382-1.277-1.164-1.685-.804-.419-1.539.347-1.922.924-.385.573-.013 1.996 1.043 2.367.858.301 1.905-.487 2.043-1.606zM129.637 137.284c.11-.906-.429-1.431-1.306-1.888-.9-.47-1.724.388-2.153 1.035-.431.643-.015 2.237 1.169 2.653.961.337 2.133-.547 2.29-1.8zM163.88 96.633c.212-.888-.265-1.47-1.084-2.023-.843-.567-1.757.192-2.257.787-.5.59-.266 2.221.864 2.768.917.443 2.182-.304 2.477-1.532zM176.764 84.565c.212-.888-.265-1.47-1.084-2.023-.843-.567-1.758.192-2.257.787-.5.59-.266 2.222.864 2.768.916.443 2.182-.304 2.477-1.532zM182.977 78.484c.212-.888-.265-1.471-1.085-2.023-.842-.568-1.757.192-2.257.787-.499.59-.265 2.222.864 2.768.917.443 2.182-.304 2.478-1.532zM197.082 68.513c.212-.888-.265-1.47-1.084-2.023-.843-.568-1.758.192-2.257.787-.5.59-.266 2.222.864 2.768.917.442 2.182-.304 2.477-1.532zM175.027 92.515c.061-.495-.234-.782-.713-1.031-.492-.256-.941.212-1.176.565-.235.351-.008 1.222.639 1.449.525.184 1.165-.299 1.25-.983zM171.604 94.282s-.588 9.376 2.823 13.118c3.412 3.742 15.095 8.384 15.095 8.384s-.955-10.849-4.526-15.637c-3.571-4.788-13.392-5.865-13.392-5.865z"/><path fill="#FDFBF9" d="M176.172 99.577s-.294 4.688 1.412 6.559c1.706 1.871 7.547 4.192 7.547 4.192s-.477-5.425-2.263-7.819-6.696-2.932-6.696-2.932z"/><path fill="#E2231A" d="M179.134 94.088c.062-.495-.233-.782-.712-1.031-.492-.256-.942.212-1.177.565-.235.351-.008 1.222.639 1.449.524.185 1.165-.298 1.25-.983zM182.021 95.157c.061-.495-.233-.782-.713-1.031-.491-.256-.941.212-1.177.565-.234.351-.008 1.222.639 1.449.525.184 1.166-.299 1.251-.983zM184.928 97.076c.061-.495-.234-.782-.713-1.031-.492-.256-.941.212-1.176.565-.235.351-.009 1.222.638 1.449.525.185 1.166-.298 1.251-.983zM187.446 99.872c.061-.495-.233-.782-.712-1.032-.492-.256-.942.212-1.177.565-.235.351-.008 1.222.639 1.449.525.185 1.165-.298 1.25-.982zM189.344 103.202c.061-.495-.233-.782-.712-1.032-.492-.256-.942.212-1.177.565-.234.351-.008 1.222.639 1.449.524.185 1.165-.298 1.25-.982zM190.666 106.614c.061-.495-.233-.782-.713-1.031-.492-.256-.941.212-1.176.565-.235.351-.008 1.222.639 1.449.524.185 1.165-.298 1.25-.983zM191.423 110.435c.061-.495-.233-.782-.712-1.031-.492-.257-.942.212-1.177.565-.235.351-.008 1.222.639 1.449.524.184 1.165-.299 1.25-.983zM191.714 113.242c.061-.495-.233-.782-.712-1.031-.492-.256-.942.212-1.177.565-.235.351-.008 1.222.639 1.449.524.184 1.165-.298 1.25-.983zM191.703 116.667c.061-.495-.233-.782-.713-1.031-.491-.256-.941.212-1.176.565-.235.351-.008 1.222.639 1.449.525.184 1.165-.298 1.25-.983zM188.433 116.503c.061-.495-.234-.782-.713-1.031-.492-.256-.941.212-1.177.565-.234.351-.008 1.222.639 1.449.525.185 1.166-.298 1.251-.983zM185.678 115.546c.062-.495-.233-.782-.712-1.031-.492-.256-.941.212-1.177.565-.234.351-.129.869.518 1.096.524.184 1.287.054 1.371-.63zM182.771 113.811c.061-.495-.234-.782-.713-1.032-.492-.256-.941.212-1.177.565-.234.351-.008 1.222.639 1.449.525.185 1.166-.298 1.251-.982zM180.032 112.456c.061-.495-.234-.782-.713-1.031-.492-.256-.941.212-1.177.565-.234.351-.129.869.518 1.096.525.185 1.287.055 1.372-.63zM177.111 110.938c.061-.495-.234-.782-.713-1.031-.492-.256-.941.212-1.177.565-.235.351-.129.869.518 1.096.525.184 1.286.054 1.372-.63zM174.588 108.919c.061-.495-.234-.782-.713-1.031-.492-.256-.941.212-1.177.565-.234.351-.129.869.518 1.096.524.184 1.286.055 1.372-.63zM172.276 105.855c.061-.495-.234-.782-.713-1.031-.492-.256-.941.212-1.177.565.214-.318-.779.95.639 1.449.526.185 1.166-.298 1.251-.983zM171.047 102.514c.06-.495-.234-.782-.713-1.031-.492-.256-.941.212-1.177.565.214-.318-.78.95.639 1.449.524.184 1.165-.299 1.251-.983zM170.776 98.967c.061-.495-.233-.782-.713-1.031-.491-.257-.941.212-1.176.565-.235.351-.13.869.517 1.096.526.184 1.287.054 1.372-.63zM170.41 95.24c.061-.495-.234-.782-.713-1.032-.492-.256-.941.212-1.176.565-.235.351-.008 1.222.639 1.449.525.185 1.165-.298 1.25-.982zM154.968 110.962s2.481 11.543 8.271 15.278c3.791 2.445 10.311 4.527 14.201 4.137.334-.033-1.116-9.938-5.9-13.964-7.207-6.064-16.572-5.451-16.572-5.451z"/><path fill="#FDFBF9" d="M160.701 115.712s1.241 5.772 4.135 7.639c1.896 1.223 5.156 2.264 7.102 2.069.167-.017-.559-4.969-2.95-6.982-3.604-3.033-8.287-2.726-8.287-2.726z"/><path fill="#E2231A" d="M159.184 109.098c.061-.495-.234-.782-.713-1.031-.491-.256-.941.212-1.176.565-.235.351-.008 1.222.639 1.449.524.184 1.165-.299 1.25-.983zM162.476 109.481c.061-.495-.234-.782-.713-1.031-.492-.256-.941.212-1.177.565-.234.351-.008 1.222.639 1.449.525.184 1.166-.298 1.251-.983zM166.201 110.503c.061-.495-.233-.782-.713-1.031-.491-.256-.941.212-1.176.565-.235.351-.008 1.222.639 1.449.525.184 1.165-.298 1.25-.983zM169.223 112.123c.061-.495-.233-.782-.713-1.031-.491-.256-.941.212-1.176.565-.235.351-.008 1.222.639 1.449.524.184 1.165-.299 1.25-.983zM172.255 114.307c.061-.495-.233-.782-.712-1.031-.492-.256-.942.212-1.177.565-.235.351-.008 1.222.639 1.449.524.184 1.165-.299 1.25-.983zM175.015 116.823c.061-.495-.233-.781-.712-1.031-.492-.256-.942.212-1.177.565-.235.351-.008 1.222.639 1.449.524.185 1.165-.298 1.25-.983zM177.041 119.773c.061-.495-.234-.782-.713-1.031-.492-.256-.941.212-1.176.565-.235.351-.008 1.222.638 1.449.525.184 1.166-.298 1.251-.983zM178.629 123.149c.061-.495-.234-.782-.713-1.032-.492-.256-.941.212-1.177.565-.234.351-.008 1.222.639 1.449.524.185 1.165-.297 1.251-.982zM179.814 126.93c.061-.495-.233-.781-.712-1.031-.492-.256-.942.212-1.177.565-.235.351-.008 1.222.639 1.449.525.184 1.165-.299 1.25-.983zM179.801 131.232c.061-.494-.233-.781-.712-1.031-.492-.256-.941.212-1.177.565-.234.351-.008 1.222.639 1.449.525.185 1.166-.298 1.25-.983zM175.539 131.9c.061-.495-.233-.782-.713-1.032-.491-.256-.941.212-1.176.565-.235.351-.008 1.222.639 1.449.524.185 1.165-.297 1.25-.982zM172.293 131.626c.061-.495-.234-.782-.713-1.031-.492-.256-.941.212-1.176.565-.235.351-.009 1.222.638 1.449.525.185 1.166-.298 1.251-.983zM169.216 130.516c.061-.495-.233-.782-.712-1.031-.492-.256-.942.212-1.177.565-.235.352-.008 1.222.639 1.449.524.185 1.165-.298 1.25-.983zM165.934 129.422c.061-.495-.234-.782-.713-1.032-.491-.256-.941.212-1.176.565-.235.351-.008 1.222.639 1.449.524.185 1.165-.298 1.25-.982zM162.845 127.528c.061-.495-.233-.782-.713-1.031-.491-.256-.941.212-1.176.565-.235.351-.008 1.222.639 1.449.524.184 1.165-.298 1.25-.983zM160.431 125.099c.061-.495-.233-.782-.713-1.031-.491-.256-.941.212-1.176.565-.235.351-.008 1.222.639 1.449.524.185 1.165-.299 1.25-.983zM158.295 122.044c.061-.495-.234-.782-.713-1.032-.492-.256-.941.212-1.176.565-.235.351-.008 1.222.639 1.449.524.185 1.165-.298 1.25-.982zM156.612 118.93c.061-.495-.233-.782-.713-1.032-.492-.256-.941.212-1.177.565-.234.351-.008 1.222.639 1.449.526.185 1.166-.298 1.251-.982zM155.155 115.366c.061-.494-.233-.781-.713-1.031-.492-.256-.941.212-1.177.565-.234.351-.007 1.222.639 1.449.526.185 1.166-.298 1.251-.983zM189.017 79.892s-.401 9.801 2.103 14.073c2.505 4.271 10.566 9.732 10.566 9.732s2.237-9.092-1.851-15.644c-3.301-5.291-10.818-8.161-10.818-8.161z"/><path fill="#FDFBF9" d="M192.404 85.642s-.2 4.9 1.052 7.036c1.252 2.136 5.283 4.866 5.283 4.866s1.118-4.546-.925-7.822c-1.651-2.645-5.41-4.08-5.41-4.08z"/><path fill="#E2231A" d="M188.198 82.789c.061-.495-.233-.782-.713-1.032-.491-.256-.941.212-1.176.565-.235.351-.008 1.222.639 1.449.525.185 1.165-.298 1.25-.982zM188.205 87.622c.061-.495-.234-.782-.713-1.031-.492-.256-.941.212-1.177.565-.235.351-.008 1.222.639 1.449.525.184 1.165-.298 1.251-.983zM188.99 91.649c.061-.495-.233-.782-.712-1.031-.492-.256-.942.212-1.177.565-.234.351-.008 1.222.639 1.449.525.184 1.165-.299 1.25-.983zM190.496 95.452c.061-.495-.234-.782-.713-1.031-.492-.257-.941.212-1.177.565-.234.351-.008 1.222.639 1.449.525.184 1.165-.298 1.251-.983zM193.211 98.185c.062-.495-.233-.782-.712-1.031-.492-.256-.942.212-1.177.565-.234.351-.008 1.222.639 1.449.525.185 1.166-.299 1.25-.983zM196.276 101.009c.061-.495-.233-.782-.713-1.031-.491-.256-.941.212-1.177.565-.234.351-.007 1.222.64 1.449.525.184 1.165-.299 1.25-.983zM199.576 103.722c.061-.495-.234-.782-.713-1.031-.492-.256-.941.212-1.176.565-.235.351-.008 1.222.639 1.449.525.184 1.165-.299 1.25-.983zM203.322 105.517c.061-.495-.234-.782-.713-1.031-.492-.256-.941.212-1.176.565-.235.351-.009 1.222.638 1.449.526.185 1.166-.298 1.251-.983zM204.927 101.493c.061-.495-.233-.782-.713-1.031-.491-.256-.941.212-1.176.565-.235.351-.008 1.222.639 1.449.524.184 1.165-.299 1.25-.983zM205.047 97.688c.061-.495-.233-.782-.713-1.031-.491-.256-.941.212-1.176.565-.235.351-.008 1.222.639 1.449.524.184 1.165-.299 1.25-.983zM205.06 93.7c.061-.495-.234-.782-.713-1.031-.492-.256-.941.212-1.177.565-.234.351-.008 1.222.639 1.449.525.185 1.166-.298 1.251-.983zM203.644 90.149c.061-.494-.233-.782-.713-1.031-.492-.256-.941.212-1.176.565-.235.351-.008 1.222.638 1.449.525.185 1.166-.298 1.251-.983zM201.906 86.981c.061-.495-.233-.782-.712-1.031-.492-.256-.942.212-1.177.565-.234.351-.008 1.222.639 1.449.525.184 1.165-.298 1.25-.983zM199.494 83.99c.061-.495-.233-.782-.713-1.032-.491-.256-.941.212-1.176.565-.235.351-.008 1.222.639 1.449.525.185 1.165-.298 1.25-.982zM196.416 81.283c.061-.495-.233-.782-.712-1.031-.492-.256-.942.212-1.177.565-.234.351-.008 1.222.639 1.449.524.184 1.165-.299 1.25-.983zM192.94 79.206c.061-.495-.233-.782-.712-1.031-.492-.256-.942.212-1.177.565-.235.351-.008 1.222.639 1.449.525.185 1.165-.298 1.25-.983zM138.461 131.552s4.463 7.847 11.566 10.705c5.824 2.343 14.209.339 14.209.339s-2.608-7.354-7.492-10.35c-7.066-4.335-18.283-.694-18.283-.694z"/><path fill="#FDFBF9" d="M145.146 134.092s2.231 3.924 5.783 5.353c2.912 1.171 7.104.169 7.104.169s-1.304-3.677-3.745-5.175c-3.533-2.167-9.142-.347-9.142-.347z"/><path fill="#E2231A" d="M143.793 128.047c.061-.495-.233-.782-.713-1.031-.491-.257-.941.212-1.176.565-.235.351-.008 1.222.639 1.449.524.184 1.165-.299 1.25-.983zM147.611 127.587c.061-.495-.233-.782-.712-1.031-.492-.256-.942.212-1.177.565-.235.351-.008 1.222.639 1.449.525.185 1.165-.298 1.25-.983zM151.568 127.762c.061-.495-.234-.782-.713-1.031-.492-.256-.941.212-1.177.565-.234.351-.008 1.222.639 1.449.526.184 1.166-.299 1.251-.983zM155.481 128.858c.061-.495-.233-.782-.712-1.031-.492-.257-.942.212-1.177.565-.235.351-.008 1.222.639 1.449.525.184 1.165-.298 1.25-.983zM159.136 131.115c.062-.495-.233-.782-.712-1.031-.492-.256-.942.212-1.177.565-.235.351-.008 1.222.639 1.449.524.184 1.165-.299 1.25-.983zM162.073 133.289c.061-.495-.234-.782-.713-1.031-.492-.256-.941.212-1.177.565-.234.351-.008 1.222.639 1.449.526.185 1.166-.298 1.251-.983zM164.335 136.086c.061-.495-.234-.782-.713-1.032-.492-.256-.941.212-1.177.565-.234.351-.008 1.222.639 1.449.525.185 1.166-.298 1.251-.982zM159.506 145.282c.061-.495-.234-.782-.713-1.032-.492-.256-.941.212-1.176.565-.235.351-.008 1.222.639 1.449.524.185 1.165-.298 1.25-.982zM155.711 145.27c.061-.495-.233-.782-.713-1.031-.491-.256-.941.212-1.176.565-.235.351-.008 1.222.639 1.449.524.184 1.165-.299 1.25-.983zM152.156 144.534c.061-.495-.234-.782-.713-1.032-.492-.256-.941.212-1.177.565-.235.351-.008 1.222.639 1.449.525.185 1.165-.298 1.251-.982zM148.354 143.22c.061-.495-.234-.782-.713-1.031-.491-.257-.941.212-1.176.565-.235.351-.008 1.222.639 1.449.524.184 1.165-.299 1.25-.983zM145.053 141.319c.061-.495-.233-.782-.712-1.031-.492-.256-.942.212-1.177.565-.234.351-.008 1.222.639 1.449.524.185 1.165-.298 1.25-.983zM142.206 138.455c.061-.495-.233-.782-.713-1.031-.491-.256-.941.212-1.176.565-.235.351-.008 1.222.639 1.449.524.184 1.165-.299 1.25-.983zM139.408 135.184c.061-.495-.234-.782-.713-1.032-.492-.256-.941.212-1.176.565-.235.351-.009 1.222.638 1.449.526.185 1.166-.298 1.251-.982zM165.984 139.427c.061-.495-.233-.782-.713-1.032-.491-.256-.941.212-1.176.565-.235.351-.008 1.222.639 1.449.525.185 1.165-.298 1.25-.982zM166.937 143.228c.061-.495-.233-.782-.712-1.031-.492-.257-.942.212-1.177.565-.234.351-.008 1.222.639 1.449.524.184 1.165-.299 1.25-.983zM163.113 145.059c.061-.495-.233-.781-.713-1.031-.491-.256-.941.212-1.176.565-.235.351-.008 1.222.639 1.449.525.184 1.165-.299 1.25-.983zM196.723 152.27c.099-.808-.382-1.277-1.164-1.685-.804-.419-1.539.347-1.922.924-.385.573-.014 1.997 1.043 2.368.857.301 1.904-.488 2.043-1.607zM199.96 147.199c.1-.809-.382-1.277-1.164-1.685-.804-.419-1.539.346-1.922.923-.384.574-.013 1.997 1.043 2.368.857.301 1.904-.488 2.043-1.606zM203.808 142.665c.099-.808-.382-1.277-1.165-1.685-.803-.419-1.538.347-1.922.924-.384.573-.013 1.996 1.044 2.367.857.301 1.903-.488 2.043-1.606zM208.01 138.488c.1-.809-.381-1.277-1.164-1.686-.804-.419-1.538.347-1.922.924-.384.573-.013 1.997 1.044 2.368.856.302 1.903-.488 2.042-1.606zM212.991 134.509c.099-.809-.382-1.278-1.165-1.686-.804-.419-1.538.347-1.922.924-.384.573-.013 1.997 1.044 2.368.858.301 1.904-.488 2.043-1.606zM217.888 131.237c.099-.809-.382-1.277-1.164-1.685-.804-.419-1.539.346-1.922.923-.385.574-.013 1.997 1.043 2.368.857.302 1.904-.488 2.043-1.606zM260.61 138.039c.099-.808-.382-1.277-1.164-1.685-.804-.419-1.539.347-1.922.924-.384.573-.013 1.996 1.043 2.367.858.301 1.905-.488 2.043-1.606z"/><g fill="#E2231A"><path d="M256.373 133.191c.1-.808-.382-1.277-1.164-1.685-.804-.419-1.539.347-1.922.924-.385.573-.013 1.996 1.043 2.367.858.301 1.904-.487 2.043-1.606zM244.763 127.266c.099-.809-.382-1.277-1.165-1.686-.804-.419-1.538.347-1.922.924-.384.573-.013 1.997 1.044 2.368.857.301 1.903-.488 2.043-1.606zM251.287 128.328c.099-.808-.382-1.277-1.164-1.685-.805-.419-1.539.347-1.923.924-.384.573-.013 1.996 1.044 2.367.858.301 1.904-.488 2.043-1.606zM238.944 132.671c.1-.808-.382-1.277-1.164-1.685-.804-.419-1.538.347-1.922.924-.384.573-.013 1.996 1.043 2.367.858.302 1.905-.487 2.043-1.606zM238.269 140.025c.099-.809-.382-1.277-1.164-1.686-.804-.419-1.539.347-1.922.924-.385.574-.013 1.997 1.043 2.368.857.302 1.904-.487 2.043-1.606zM241.516 148.076c.099-.808-.382-1.277-1.164-1.685-.804-.419-1.539.347-1.922.924-.385.573-.014 1.996 1.043 2.367.857.301 1.904-.488 2.043-1.606zM245.511 153.877c.099-.809-.382-1.278-1.165-1.686-.804-.419-1.538.347-1.922.924-.384.573-.013 1.997 1.044 2.368.856.301 1.903-.488 2.043-1.606zM250.381 159.415c.099-.808-.382-1.277-1.164-1.685-.805-.419-1.539.347-1.923.924-.384.573-.013 1.996 1.044 2.367.857.301 1.904-.488 2.043-1.606zM255.001 164.194c.099-.808-.382-1.277-1.164-1.685-.804-.419-1.539.347-1.922.924-.384.573-.013 1.996 1.043 2.367.857.301 1.904-.487 2.043-1.606z"/></g><g fill="#E2231A"><path d="M262.061 133.191c-.099-.808.383-1.277 1.165-1.685.804-.419 1.538.347 1.922.924.384.573.013 1.996-1.043 2.367-.858.301-1.905-.487-2.044-1.606zM273.672 127.266c-.099-.809.382-1.277 1.164-1.686.804-.419 1.539.347 1.922.924.385.573.014 1.997-1.043 2.368-.858.301-1.904-.488-2.043-1.606zM267.147 128.328c-.099-.808.382-1.277 1.164-1.685.804-.419 1.539.347 1.922.924.384.573.013 1.996-1.043 2.367-.857.301-1.904-.488-2.043-1.606zM279.489 132.671c-.099-.808.382-1.277 1.165-1.685.804-.419 1.538.347 1.922.924.384.573.013 1.996-1.044 2.367-.857.302-1.903-.487-2.043-1.606zM280.166 140.025c-.1-.809.382-1.277 1.164-1.686.804-.419 1.538.347 1.922.924.384.574.013 1.997-1.043 2.368-.857.302-1.904-.487-2.043-1.606zM276.919 148.076c-.1-.808.382-1.277 1.164-1.685.804-.419 1.539.347 1.922.924.384.573.013 1.996-1.043 2.367-.858.301-1.904-.488-2.043-1.606zM272.924 153.877c-.099-.809.382-1.278 1.164-1.686.804-.419 1.539.347 1.922.924.385.573.014 1.997-1.043 2.368-.858.301-1.904-.488-2.043-1.606zM268.054 159.415c-.099-.808.382-1.277 1.164-1.685.804-.419 1.539.347 1.922.924.385.573.013 1.996-1.043 2.367-.858.301-1.905-.488-2.043-1.606zM263.434 164.194c-.1-.808.382-1.277 1.164-1.685.804-.419 1.538.347 1.922.924.384.573.013 1.996-1.043 2.367-.858.301-1.905-.487-2.043-1.606z"/></g><path fill="#E2231A" d="M260.357 167.927c.1-.808-.381-1.277-1.164-1.685-.804-.419-1.538.347-1.922.924-.384.573-.013 1.996 1.044 2.367.857.301 1.904-.487 2.042-1.606zM342.151 248.505c-.964-3.009-5.989-5.236-5.989-5.236s-1.402 2.602-3.004 5.14c-1.554 2.462-2.815 3.967-3.12 4.418l-.097-.084s-2.577 2.805-3.475 3.637c-.623.577-2.556 2.209-3.494 2.997-.029-.033-.054-.074-.084-.105-.075-.077-3.112 1.918-6.267 3.274-2.776 1.193-5.872 1.842-5.872 1.842s2.244 4.688 5.227 5.732c2.982 1.044 5.809-.203 6.878-1.809.749-1.123 1.34-4.199 1.016-6.577 1.203 1.412 3.036 3.076 4.968 3.02 2.497-.073 4.613-2.193 4.983-4.005.499-2.438-.959-4.795-2.229-6.314 1.964 1.497 4.789 2.736 8.015 1.105 2.614-1.322 3.508-4.025 2.544-7.035z"/><path fill="#FDFBF9" d="M314.634 265.015s1.122 2.344 2.613 2.866c1.491.522 2.904-.102 3.438-.904.535-.802.797-3.494-.099-4.414-.038-.039-1.44.854-3.018 1.531-1.386.596-2.934.921-2.934.921zM336.624 246.806s2.62 1.018 3.103 2.522c.481 1.505.034 2.856-1.272 3.517-2.139 1.081-3.927-.36-4.823-1.28-.037-.039.683-.834 1.599-2.285a30.806 30.806 0 0 0 1.393-2.474zM325.918 259.248s1.308 2.79 2.975 2.741c1.248-.036 2.307-1.097 2.492-2.002.42-2.054-2.004-3.946-2.004-3.946s-1.225 1.346-1.674 1.762c-.417.385-1.789 1.445-1.789 1.445zM335.168 308.732c.404.279 2.611 1.188 3.737.173 1.126-1.017 1.438-2.175 1.154-3.375-.284-1.201-1.196-2.835-2.546-3.498-1.351-.664-2.87.346-3.521 1.188-.62.801-.853 2.296-.484 3.261.368.963.936 1.75 1.66 2.251zM359.699 289.767c.396.273 2.552 1.162 3.652.169 1.1-.993 1.406-2.125 1.129-3.298-.278-1.174-1.17-2.771-2.489-3.419-1.318-.648-2.804.338-3.44 1.16-.605.783-.833 2.244-.474 3.187.361.943.915 1.711 1.622 2.201zM383.783 264.003c.263.403 1.092 2.582.07 3.655s-2.162 1.349-3.328 1.039c-1.165-.309-2.737-1.244-3.35-2.58s.413-2.794 1.253-3.408c.8-.584 2.266-.771 3.198-.387.932.384 1.687.961 2.157 1.681zM321.954 313.396c.174.819 1.255 1.913 2.263 2.324 1.007.41 1.898.4 2.946-.34 1.049-.74 1.733-2.655 1.513-3.845-.222-1.188-1.181-2.388-2.626-2.698-1.446-.309-3.195.373-3.738 1.525a4.656 4.656 0 0 0-.358 3.034zM345.482 297.714c.174.819 1.256 1.913 2.263 2.324 1.007.41 1.897.4 2.946-.34 1.049-.74 1.733-2.655 1.513-3.845-.222-1.189-1.181-2.389-2.626-2.698-1.446-.31-3.195.372-3.738 1.525a4.663 4.663 0 0 0-.358 3.034zM371.86 274.37c.814.196 1.879 1.307 2.262 2.324.384 1.018.349 1.908-.419 2.937s-2.701 1.661-3.884 1.408c-1.183-.254-2.355-1.245-2.626-2.698-.271-1.454.458-3.184 1.625-3.695a4.658 4.658 0 0 1 3.042-.276z"/><path fill="#E2231A" d="M326.459 256.781c-.259.23-.521.459-.789.683-6.773 5.661-14.59 7.032-14.92 7.088l-.264-1.563c.076-.013 7.735-1.364 14.167-6.741 6.493-5.431 10.282-13.455 10.32-13.535l1.436.669c-.153.329-3.68 7.8-9.95 13.399zM327.112 300.299s-5.446-3.542-7.194-8.768c-1.435-4.284.365-10.223.365-10.223s5.171 2.189 7.114 5.826c2.812 5.263-.285 13.165-.285 13.165z"/><path fill="#FDFBF9" d="M325.574 295.387s-2.724-1.771-3.598-4.384c-.717-2.142.183-5.111.183-5.111s2.586 1.095 3.557 2.913c1.406 2.632-.142 6.582-.142 6.582z"/><path fill="#E2231A" d="M342.018 289.853s-8.187-2.277-10.621-6.597c-1.595-2.828-2.811-7.601-2.363-10.379.038-.238 7.091 1.229 9.778 4.837 4.048 5.436 3.206 12.139 3.206 12.139z"/><path fill="#FDFBF9" d="M338.852 285.53s-4.094-1.139-5.311-3.298c-.798-1.414-1.405-3.801-1.183-5.189.02-.12 3.546.613 4.89 2.418 2.024 2.719 1.604 6.069 1.604 6.069z"/><path fill="#E2231A" d="M356.094 277.383s-6.76.021-9.302-2.591-5.376-11.203-5.376-11.203 7.753 1.151 11.039 3.922c3.287 2.77 3.639 9.872 3.639 9.872z"/><path fill="#FDFBF9" d="M352.486 273.874s-3.38.011-4.651-1.295c-1.271-1.306-2.688-5.602-2.688-5.602s3.876.575 5.52 1.961c1.644 1.386 1.819 4.936 1.819 4.936z"/><path fill="#E2231A" d="M367.178 265.49s-7.058-.131-10.019-2.113c-2.961-1.982-6.539-8.008-6.539-8.008s6.627-1.217 11.159 2c3.659 2.598 5.399 8.121 5.399 8.121z"/><path fill="#FDFBF9" d="M363.193 262.811s-3.529-.066-5.01-1.058c-1.481-.992-3.27-4.003-3.27-4.003s3.313-.609 5.579.999c1.831 1.3 2.701 4.062 2.701 4.062z"/><path fill="#E2231A" d="M312.137 259.108c.585-.036.901.329 1.161.909.267.595-.314 1.09-.746 1.341-.429.251-1.435-.076-1.656-.851-.18-.628.432-1.347 1.241-1.399zM315.716 257.467c.585-.037.901.329 1.161.908.266.596-.315 1.091-.746 1.342-.429.251-1.436-.077-1.656-.852-.18-.629.431-1.346 1.241-1.398zM319.497 255.357c.585-.036.901.33 1.161.909.267.596-.314 1.091-.746 1.341-.429.252-1.435-.076-1.656-.851-.18-.628.432-1.346 1.241-1.399zM322.92 252.788c.585-.036.901.329 1.16.909.267.595-.314 1.09-.745 1.341-.429.251-1.435-.076-1.656-.851-.18-.628.431-1.347 1.241-1.399zM326.101 249.948c.585-.036.901.329 1.16.908.267.596-.314 1.091-.746 1.342-.428.251-1.435-.076-1.655-.852-.18-.628.431-1.346 1.241-1.398zM329.173 246.541c.585-.037.901.329 1.16.908.267.596-.314 1.091-.745 1.342-.429.251-1.436-.077-1.656-.852-.18-.628.431-1.346 1.241-1.398zM331.732 243.163c.585-.037.901.329 1.161.908.267.596-.315 1.091-.746 1.342-.429.251-1.435-.076-1.656-.852-.179-.628.432-1.346 1.241-1.398zM203.654 239.778c3.91.557 9.155-3.881 9.155-3.881s-2.162-2.996-4.143-6.181c-1.922-3.09-2.928-5.33-3.27-5.918l.148-.063s-1.751-4.427-2.196-5.89c-.31-1.015-1.091-4.079-1.467-5.564.054-.015.113-.02.165-.037.128-.042-.461-4.546-.267-8.833.171-3.773 1.13-7.609 1.13-7.609s-6.496-.032-9.297 2.753c-2.8 2.785-2.938 6.645-1.716 8.722.855 1.455 3.993 3.797 6.845 4.727-2.245.584-5.115 1.738-6.104 3.942-1.279 2.848-.048 6.383 1.787 7.788 2.47 1.891 5.916 1.536 8.317.936-2.755 1.392-5.688 3.895-5.612 8.412.062 3.659 2.615 6.139 6.525 6.696z"/><path fill="#FDFBF9" d="M200.087 199.827s-3.247-.016-4.647 1.377c-1.4 1.392-1.47 3.322-.858 4.361.611 1.039 3.496 2.801 5.02 2.295.063-.021-.175-2.085-.078-4.229.084-1.886.563-3.804.563-3.804zM208.58 234.488s-2.574 2.392-4.529 2.113c-1.954-.279-3.23-1.519-3.262-3.349-.05-2.995 2.547-4.22 4.07-4.726.063-.021.565 1.221 1.698 3.043a37.958 37.958 0 0 0 2.023 2.919zM200.421 215.663s-3.851-.051-4.704 1.851c-.64 1.424-.024 3.192.894 3.895 2.081 1.593 5.53-.103 5.53-.103s-.846-2.111-1.068-2.842c-.208-.68-.652-2.801-.652-2.801zM139.579 199.031c-.535.303-2.761 2.289-2.231 4.109.528 1.82 1.661 2.804 3.166 3.139 1.506.335 3.841.199 5.323-.957 1.482-1.156 1.175-3.416.583-4.607-.563-1.134-2.117-2.211-3.402-2.322-1.287-.112-2.481.097-3.439.638zM147.68 237.02c-.523.296-2.698 2.237-2.182 4.016.518 1.779 1.624 2.741 3.095 3.068 1.472.327 3.754.194 5.202-.936 1.448-1.13 1.148-3.338.57-4.503-.551-1.108-2.069-2.16-3.326-2.27-1.256-.108-2.424.096-3.359.625zM163.527 278.153c-.597.076-3.5-.179-4.149-1.914-.65-1.734-.338-3.167.646-4.31.982-1.142 2.892-2.4 4.729-2.36 1.836.039 2.916 1.988 3.149 3.267.222 1.218-.366 2.97-1.308 3.809-.943.838-2 1.373-3.067 1.508zM141.537 181.627c-1.017-.251-2.837.368-3.848 1.277-1.011.909-1.484 1.917-1.225 3.5.261 1.583 2.041 3.397 3.5 3.797 1.458.399 3.33-.025 4.466-1.483 1.137-1.457 1.323-3.796.323-5.035a5.816 5.816 0 0 0-3.216-2.056zM146.349 216.64c-1.017-.251-2.836.368-3.847 1.277-1.012.909-1.485 1.917-1.225 3.5s2.041 3.397 3.499 3.797c1.458.4 3.33-.025 4.467-1.483 1.136-1.457 1.323-3.796.323-5.035a5.816 5.816 0 0 0-3.217-2.056zM158.367 259.092c-.665.809-2.494 1.4-3.848 1.277-1.354-.124-2.336-.648-3.074-2.073-.738-1.424-.396-3.943.534-5.136s2.684-1.971 4.466-1.482c1.782.489 3.331 2.251 3.271 3.842a5.818 5.818 0 0 1-1.349 3.572z"/><path fill="#E2231A" d="M202.901 217.616a40.194 40.194 0 0 1-.337-1.26c-2.676-10.704.044-20.243.161-20.644l1.901.554c-.027.094-2.683 9.444-.142 19.61 2.567 10.263 9.526 18.9 9.597 18.986l-1.536 1.25c-.284-.351-6.765-8.391-9.644-18.496zM153.6 194.627s6.953-4.195 13.784-3.313c5.6.723 11.298 5.983 11.298 5.983s-5.281 4.624-10.431 4.826c-7.452.294-14.651-7.496-14.651-7.496z"/><path fill="#FDFBF9" d="M159.963 195.574s3.477-2.097 6.892-1.656c2.8.362 5.649 2.992 5.649 2.992s-2.641 2.312-5.216 2.413c-3.725.146-7.325-3.749-7.325-3.749z"/><path fill="#E2231A" d="M157.223 217.086s7.024-7.966 13.209-8.35c4.051-.252 10.081.982 12.963 3 .248.173-5.247 7.306-10.771 8.362-8.323 1.589-15.401-3.012-15.401-3.012z"/><path fill="#FDFBF9" d="M163.811 215.881s3.512-3.983 6.604-4.175c2.025-.126 5.041.491 6.481 1.5.124.086-2.624 3.653-5.386 4.181-4.16.795-7.699-1.506-7.699-1.506z"/><path fill="#E2231A" d="M163.574 239.717s3.662-7.615 7.985-9.05c4.322-1.435 15.53.061 15.53.061s-5.521 8.093-10.429 10.279c-4.907 2.184-13.086-1.29-13.086-1.29z"/><path fill="#FDFBF9" d="M169.486 237.571s1.832-3.808 3.993-4.525c2.161-.717 7.766.03 7.766.03s-2.761 4.046-5.215 5.14c-2.454 1.093-6.544-.645-6.544-.645z"/><path fill="#E2231A" d="M170.906 258.666s3.996-7.866 7.84-10.116 12.571-2.989 12.571-2.989-2.243 8.117-8.333 11.461c-4.917 2.699-12.078 1.644-12.078 1.644z"/><path fill="#FDFBF9" d="M176.094 255.646s1.998-3.934 3.92-5.059 6.285-1.495 6.285-1.495-1.121 4.06-4.166 5.73c-2.458 1.351-6.039.824-6.039.824z"/><path fill="#E2231A" d="M208.091 200.239c-.277.678-.861.834-1.654.81-.815-.024-1.055-.948-1.102-1.57-.05-.619.868-1.572 1.859-1.399.806.141 1.281 1.22.897 2.159zM207.987 205.159c-.278.678-.861.834-1.655.81-.814-.025-1.055-.949-1.102-1.57-.049-.619.868-1.572 1.86-1.399.806.142 1.28 1.221.897 2.159zM208.297 210.563c-.277.677-.861.834-1.654.81-.815-.024-1.055-.949-1.102-1.57-.05-.619.867-1.572 1.859-1.399.806.14 1.28 1.22.897 2.159zM209.321 215.813c-.278.678-.861.834-1.655.81-.814-.024-1.055-.948-1.102-1.57-.049-.619.868-1.572 1.86-1.399.806.14 1.28 1.22.897 2.159zM210.782 220.938c-.278.678-.862.834-1.655.811-.814-.025-1.055-.949-1.102-1.57-.049-.619.868-1.572 1.86-1.398.805.139 1.28 1.218.897 2.157zM212.939 226.251c-.277.678-.861.834-1.654.81-.815-.025-1.055-.949-1.102-1.57-.05-.619.867-1.572 1.859-1.398.807.14 1.28 1.22.897 2.158zM215.343 230.972c-.277.678-.861.834-1.654.81-.815-.025-1.055-.949-1.103-1.57-.049-.619.868-1.572 1.86-1.399.806.141 1.281 1.22.897 2.159z"/></g></svg>