<?xml version="1.0" encoding="UTF-8"?>
<svg width="306px" height="162px" viewBox="0 0 306 162" version="1.1" xmlns="http://www.w3.org/2000/svg" xmlns:xlink="http://www.w3.org/1999/xlink">
    <!-- Generator: Sketch 52.5 (67469) - http://www.bohemiancoding.com/sketch -->
    <title>winner</title>
    <desc>Created with Sketch.</desc>
    <g id="winner" stroke="none" stroke-width="1" fill="none" fill-rule="evenodd">
        <g id="Group">
            <g id="Path">
                <g>
                    <g transform="translate(2.500000, 69.500000)">
                        <path d="M37.618,38.883 C36.06,38.8395 34.528,39.168 32.3105,40.113 C30.116,41.0475 26.7765,43.1265 24.0565,45.328 C22.513,46.5765 21.105,48.247 20.1745,49.459 C20.0635,49.011 19.9555,48.562 19.8515,48.112 C18.8445,43.7585 18.336,39.364 18.474,34.8965 C18.5135,33.624 16.5345,33.4485 16.495,34.7305 C16.3725,38.688 16.6985,42.616 17.4735,46.5 C17.7305,47.7855 18.0155,49.075 18.332,50.3605 C17.245,49.8895 15.7465,49.487 13.9915,49.6805 C11.172,49.9915 7.356,50.8915 4.4575,53.3045 C2.7335,54.74 2.002,55.851 2.583,57.6835 C3.164,59.516 5.2455,59.869 7.1215,59.805 C9.416,59.7265 13.4355,58.1305 15.7515,56.3765 C17.148,55.319 18.2805,54.0615 19.055,53.0845 C20.0945,56.7015 21.4365,60.2395 23.2235,63.515 C23.521,64.0605 23.8295,64.6005 24.146,65.1365 C22.446,65.523 20.0145,66.153 17.8055,67.0105 C13.8275,68.5545 8.2905,72.8285 7.053,75.0295 C5.764,77.322 6.8625,81.0765 11.345,80.0035 C15.785,78.9405 19.22,75.463 20.6925,73.667 C22.0645,71.9935 23.9475,68.865 25.1535,66.7775 C27.443,70.3695 30.1435,73.716 33.15,76.7165 C31.3075,77.4665 28.44,79.1645 25.3665,82.993 C22.5115,86.549 22.599,89.1475 22.9575,90.6005 C23.316,92.054 24.3125,92.736 25.5195,92.401 C27.289,91.9095 29.9405,89.853 32.115,86.4035 C33.6865,83.9115 34.5075,80.5505 34.904,78.3625 C37.907,81.02 41.2145,83.1585 44.8025,85.0605 C48.28,86.904 51.8485,88.6085 55.485,90.116 C56.665,90.6055 57.3345,88.735 56.154,88.2455 C53.3335,87.0765 50.5595,85.7785 47.8315,84.408 C43.6575,82.311 39.5775,79.989 36.1145,76.825 C37.94,76.3435 40.546,75.6205 42.008,75.0545 C45.344,73.7625 47.6915,70.803 48.2875,69.6765 C48.8835,68.55 50.0705,65.776 48.961,64.4475 C47.851,63.1195 44.5245,63.32 41.98,65.607 C39.8975,67.4795 37.8235,70.0235 36.723,72.385 C36.2875,73.3185 35.555,74.682 34.9705,75.7435 C31.6825,72.545 28.765,68.8865 26.3665,64.9875 C29.086,64.4515 35.177,63.1705 37.6685,61.992 C42.552,59.6825 43.0345,55.3055 41.341,53.2835 C39.6465,51.262 36.1545,52.2135 34.2565,53.6755 C31.6425,55.6895 29.374,58.3685 27.647,61.1345 C27.095,62.0195 26.353,63.175 25.797,64.0365 C23.5375,60.158 21.957,55.995 20.7605,51.693 C21.1605,51.806 21.6025,51.9045 22.059,51.9575 C23.9525,52.1795 27.165,52.0175 31.0065,50.162 C34.292,48.575 37.4755,46.615 39.5455,43.4445 C41.687,40.1645 39.176,38.927 37.618,38.883 Z" fill="#04586B"></path>
                        <g>
                            <path d="M4.328,19.944 C4.622,22.076 5.855,28.359 7.4045,31.3085 C8.954,34.258 11.227,36.7355 13.8215,38.7555 C16.4165,40.7745 19.1315,40.8275 21.5085,39.9525 C23.8855,39.0775 30.112,36.8885 36.326,26.3745 C37.793,23.892 38.785,17.872 39.4415,16.2285 C40.6015,13.3235 42.417,10.8795 42.982,10.493 C43.547,10.1075 40.57,9.1895 37.3795,9.6895 C35.25,10.0225 31.5965,10.814 29.4315,13.894 C28.185,15.6685 26.814,17.341 26.814,17.341 C26.814,17.341 26.944,12.664 26.6225,10.6475 C26.026,6.8995 24.141,4.009 23.349,2.767 C22.5575,1.5255 20.8145,0.105 20.8145,0.105 C20.8145,0.105 16.925,6.476 15.7755,10.759 C15.0705,13.386 15.26,16.369 15.26,16.369 C15.26,16.369 12.5135,14.9325 10.44,14.4505 C6.485,13.531 3.295,14.0305 2.494,14.0555 C1.6935,14.0805 0.289,14.268 0.289,14.268 C0.289,14.268 3.894,16.8 4.328,19.944 Z" fill="#E2231A"></path>
                            <g transform="translate(4.000000, 4.500000)" fill="#FFFFFF">
                                <path d="M16.709,11.3165 C16.778,10.791 17.157,10.574 17.716,10.444 C18.2895,10.31 18.6285,10.912 18.7765,11.3375 C18.9255,11.761 18.461,12.597 17.7355,12.6595 C17.1465,12.71 16.615,12.0435 16.709,11.3165 Z"></path>
                                <path d="M16.075,17.9115 C16.139,17.4235 16.4905,17.222 17.01,17.101 C17.543,16.977 17.8575,17.5355 17.9955,17.931 C18.1335,18.324 17.702,19.101 17.028,19.159 C16.4815,19.206 15.9885,18.587 16.075,17.9115 Z"></path>
                                <path d="M13.0585,18.02 C13.223,18.4835 13.001,18.823 12.5935,19.1665 C12.1745,19.5195 11.6405,19.1645 11.3385,18.875 C11.0365,18.587 11.068,17.699 11.642,17.342 C12.1085,17.0515 12.8295,17.379 13.0585,18.02 Z"></path>
                                <path d="M15.172,24.7395 C15.241,24.214 15.62,23.997 16.179,23.867 C16.7525,23.733 17.092,24.335 17.2395,24.76 C17.3885,25.184 16.924,26.02 16.1985,26.0825 C15.6095,26.133 15.078,25.4665 15.172,24.7395 Z"></path>
                                <path d="M10.209,24.434 C10.278,23.9085 10.657,23.6915 11.216,23.5615 C11.79,23.4275 12.1285,24.0295 12.2765,24.4545 C12.426,24.878 11.961,25.7145 11.2355,25.777 C10.6465,25.8275 10.115,25.161 10.209,24.434 Z"></path>
                                <path d="M13.871,10.655 C14.2285,10.9815 14.193,11.3795 13.9975,11.867 C13.797,12.367 13.1685,12.306 12.772,12.1935 C12.3765,12.083 11.993,11.297 12.3265,10.721 C12.597,10.2525 13.3755,10.2035 13.871,10.655 Z"></path>
                                <path d="M18.265,0.458 C18.6645,0.823 18.625,1.2675 18.406,1.8115 C18.182,2.3705 17.48,2.302 17.0375,2.1765 C16.596,2.0535 16.168,1.175 16.54,0.5315 C16.8425,0.009 17.7115,-0.046 18.265,0.458 Z"></path>
                                <path d="M1.7325,11.0675 C2.057,11.3645 2.025,11.7255 1.847,12.168 C1.665,12.622 1.094,12.5665 0.734,12.465 C0.3745,12.365 0.0265,11.6505 0.329,11.127 C0.5755,10.702 1.282,10.6575 1.7325,11.0675 Z"></path>
                                <path d="M36.45,6.6065 C36.775,6.9035 36.7425,7.2645 36.565,7.707 C36.3825,8.1615 35.812,8.106 35.4515,8.004 C35.0925,7.904 34.7445,7.19 35.047,6.666 C35.2935,6.241 36,6.197 36.45,6.6065 Z"></path>
                                <path d="M34.08,8.6175 C32.8755,9.757 32.1595,11.3465 31.592,12.97 C31.5535,12.846 31.5085,12.7195 31.455,12.5935 C31.1775,11.946 30.523,11.127 30.0485,10.835 C29.6615,10.596 29.1805,10.4205 28.8375,10.737 C28.495,11.053 28.5155,11.375 28.7065,11.8845 C29.0275,12.741 29.723,13.389 30.2795,13.7925 C30.595,14.0215 30.925,14.121 31.1975,14.1605 C31.013,14.7375 30.837,15.307 30.654,15.848 C30.2885,16.928 29.9105,18.0145 29.493,19.0855 C29.425,18.807 29.3225,18.481 29.1695,18.1635 C28.8415,17.4845 28.1,16.6415 27.579,16.3525 C27.153,16.116 26.6305,15.952 26.2795,16.307 C25.9285,16.662 25.967,17.005 26.196,17.5405 C26.5815,18.4405 27.357,19.099 27.972,19.5035 C28.41,19.7915 28.8615,19.86 29.182,19.863 C28.494,21.527 27.6875,23.1365 26.657,24.6055 C26.6195,24.3425 26.558,24.0435 26.4545,23.7465 C26.207,23.0345 25.569,22.111 25.0845,21.764 C24.689,21.48 24.1885,21.2565 23.7995,21.5685 C23.41,21.8805 23.4085,22.2255 23.574,22.784 C23.8525,23.7225 24.547,24.466 25.111,24.9395 C25.432,25.208 25.778,25.3395 26.066,25.4015 C25.8835,25.633 25.6965,25.861 25.5,26.0835 C24.742,26.9415 23.877,27.7405 22.9365,28.467 C22.902,28.1755 22.838,27.827 22.7175,27.481 C22.47,26.7685 21.832,25.8455 21.3475,25.4985 C20.952,25.2145 20.4515,24.9905 20.0625,25.303 C19.673,25.615 19.671,25.96 19.837,26.5185 C20.1155,27.4565 20.81,28.2005 21.374,28.6735 C21.6145,28.8755 21.8695,28.9985 22.104,29.075 C19.627,30.792 16.7135,32.001 13.8105,32.399 C13.832,31.8875 13.8595,31.376 13.888,30.865 C14.0055,30.873 14.136,30.874 14.269,30.8595 C14.759,30.806 15.5595,30.579 16.42,29.89 C17.157,29.2995 17.8455,28.622 18.1835,27.703 C18.5335,26.753 17.829,26.5865 17.434,26.6655 C17.039,26.7445 16.672,26.916 16.168,27.282 C15.669,27.6445 14.9475,28.3615 14.389,29.0735 C14.2295,29.2775 14.085,29.506 13.959,29.7295 C14.131,27.1485 14.387,24.575 14.6795,22.005 C15.4615,22.1215 17.022,22.3305 17.7325,22.262 C19.1875,22.1205 19.711,21.05 19.4645,20.38 C19.2185,19.71 18.242,19.633 17.6245,19.8315 C16.775,20.105 15.9515,20.5795 15.2595,21.126 C15.103,21.2495 14.91,21.3985 14.7325,21.5345 C14.8925,20.144 15.061,18.754 15.2315,17.3645 C15.2645,17.0915 15.299,16.819 15.3325,16.5465 C15.6515,16.543 16.2105,16.5075 16.766,16.3305 C17.482,16.102 18.418,15.49 18.7765,15.017 C19.0695,14.6305 19.305,14.1375 19.004,13.7415 C18.703,13.346 18.3595,13.335 17.7995,13.4855 C16.8575,13.739 16.099,14.4115 15.6135,14.9605 C15.5785,15.0005 15.546,15.041 15.5155,15.081 C15.7585,13.161 16.0155,11.2425 16.31,9.33 C16.633,9.3245 17.177,9.286 17.7175,9.114 C18.4335,8.8855 19.369,8.2735 19.7275,7.8005 C20.0205,7.414 20.256,6.921 19.955,6.525 C19.6545,6.1295 19.3105,6.1185 18.7505,6.269 C17.809,6.522 17.0505,7.195 16.5645,7.744 C16.554,7.756 16.546,7.768 16.5355,7.7795 C16.738,6.369 16.974,4.915 17.523,3.6385 C17.828,2.9285 16.6965,2.524 16.3915,3.2335 C15.887,4.406 15.6445,5.7325 15.4455,7.0325 C15.1205,6.4735 14.607,5.8825 14.217,5.647 C13.8315,5.414 13.3535,5.244 13.0175,5.5605 C12.681,5.8765 12.704,6.195 12.8975,6.6975 C13.2225,7.543 13.9175,8.1785 14.472,8.574 C14.706,8.7405 14.946,8.835 15.1655,8.8885 C14.799,11.231 14.4915,13.582 14.199,15.9345 C14.1515,15.633 14.034,15.2545 13.753,14.9 C13.2975,14.3255 12.576,13.6135 11.6485,13.3105 C11.097,13.1305 10.7535,13.1225 10.432,13.502 C10.1105,13.8815 10.319,14.3855 10.591,14.7875 C10.924,15.2785 11.826,15.94 12.5285,16.2055 C13.1985,16.4595 13.888,16.5005 14.127,16.5065 C14.1095,16.648 14.092,16.789 14.0745,16.9305 C13.885,18.4705 13.698,20.0105 13.5215,21.5515 C13.3765,21.4305 13.228,21.306 13.1035,21.1995 C12.4225,20.618 11.6065,20.104 10.755,19.7925 C10.137,19.5665 9.1435,19.6065 8.867,20.276 C8.5905,20.946 9.0795,22.0525 10.5495,22.2535 C11.2115,22.344 12.6135,22.2235 13.455,22.136 C13.172,24.6455 12.925,27.1575 12.759,29.677 C12.625,29.371 12.453,29.0275 12.2485,28.7305 C11.7355,27.9855 11.0595,27.225 10.584,26.8325 C10.103,26.436 9.7475,26.242 9.358,26.139 C8.9685,26.0355 8.255,26.1585 8.546,27.1285 C8.827,28.066 9.473,28.785 10.171,29.4195 C10.9875,30.1605 11.772,30.4365 12.258,30.52 C12.415,30.5475 12.572,30.552 12.706,30.549 C12.6785,31.0145 12.6515,31.4795 12.631,31.9455 C12.621,31.94 12.612,31.935 12.6025,31.9295 C11.9335,31.533 11.2815,31.1075 10.649,30.6565 C8.8905,29.403 7.1945,27.927 6.0125,26.1 C5.845,25.8415 5.6935,25.575 5.5545,25.3025 C5.839,25.287 6.227,25.242 6.613,25.119 C7.243,24.918 8.067,24.3795 8.3825,23.9625 C8.641,23.6215 8.848,23.188 8.583,22.8395 C8.318,22.491 8.0155,22.4815 7.522,22.614 C6.693,22.837 6.025,23.4295 5.5975,23.9135 C5.4065,24.129 5.2915,24.3605 5.22,24.571 C4.754,23.445 4.4685,22.2345 4.246,21.0235 C4.487,21.0075 4.798,20.9665 5.108,20.8675 C5.6575,20.692 6.3755,20.223 6.6505,19.8595 C6.8755,19.562 7.0565,19.184 6.8255,18.8805 C6.5945,18.577 6.331,18.5685 5.9005,18.6835 C5.178,18.878 4.5955,19.3945 4.223,19.8165 C4.165,19.882 4.1155,19.95 4.072,20.0175 C4.0165,19.6775 3.9625,19.34 3.9085,19.006 C3.807,18.3765 3.734,17.7035 3.647,17.023 C3.89,17.0205 4.32,16.9945 4.7495,16.8575 C5.2995,16.682 6.0175,16.213 6.2925,15.8495 C6.5175,15.5525 6.6985,15.174 6.4675,14.8705 C6.2365,14.567 5.973,14.5585 5.5425,14.674 C4.82,14.8685 4.238,15.3845 3.865,15.8065 C3.71,15.982 3.6155,16.168 3.5525,16.341 C3.393,15.281 3.1625,14.233 2.6925,13.336 C2.3345,12.652 1.241,13.15 1.6,13.836 C2.5715,15.693 2.549,18.2625 2.9065,20.292 C3.3285,22.6895 3.851,25.0945 5.261,27.123 C7.144,29.831 10.0475,31.9925 12.9625,33.4955 C12.97,33.4995 12.9765,33.501 12.984,33.5045 C13.0995,33.61 13.259,33.6725 13.4545,33.653 C17.902,33.2045 22.465,30.8545 25.59,27.726 C28.294,25.019 29.9105,21.559 31.183,17.9985 C31.7705,16.355 32.2795,14.683 32.896,13.05 C33.361,11.8165 33.867,10.468 34.8445,9.543 C35.404,9.0155 34.642,8.086 34.08,8.6175 Z"></path>
                            </g>
                        </g>
                    </g>
                    <g>
                        <path d="M55.1285,43.7535 C54.6005,42.287 53.7355,40.981 52.047,39.2615 C50.376,37.5595 47.2215,35.209 44.1795,33.4795 C42.454,32.4985 40.3845,31.797 38.917,31.3735 C39.294,31.107 39.6725,30.842 40.0535,30.5805 C43.7395,28.0545 47.645,25.977 51.855,24.4755 C53.0535,24.048 52.495,22.141 51.2865,22.572 C47.5575,23.902 44.0195,25.6395 40.686,27.7785 C39.5825,28.4865 38.487,29.223 37.405,29.9865 C37.4475,28.8025 37.2745,27.2605 36.4545,25.697 C35.1365,23.186 32.905,19.961 29.601,18.143 C27.635,17.062 26.334,16.786 24.8405,17.9965 C23.3465,19.2065 23.777,21.273 24.5215,22.996 C25.432,25.1035 28.3845,28.263 30.863,29.7795 C32.3575,30.693 33.941,31.289 35.134,31.6535 C32.1455,33.9415 29.341,36.4815 26.944,39.341 C26.5445,39.817 26.1545,40.3015 25.7705,40.7915 C24.79,39.3495 23.3165,37.316 21.712,35.5725 C18.823,32.4325 12.823,28.837 10.322,28.488 C7.7175,28.1245 4.623,30.518 7.2575,34.2995 C9.8675,38.0455 14.3585,39.9745 16.568,40.6895 C18.627,41.3565 22.227,41.968 24.6105,42.3285 C22.1015,45.7715 19.972,49.5065 18.2755,53.4015 C16.905,51.9595 14.278,49.9095 9.5915,48.4445 C5.2385,47.0845 2.8515,48.1145 1.629,48.978 C0.4065,49.8415 0.1355,51.019 0.888,52.0205 C1.992,53.4885 4.874,55.2065 8.879,55.9725 C11.773,56.5255 15.2015,56.0635 17.3835,55.634 C16.005,59.3995 15.2215,63.2595 14.7605,67.294 C14.313,71.204 14.028,75.1485 13.952,79.085 C13.927,80.3625 15.9125,80.303 15.9375,79.0255 C15.997,75.9725 16.193,72.916 16.473,69.8765 C16.902,65.225 17.575,60.5785 19.257,56.2 C20.3715,57.724 21.996,59.8865 23.0565,61.0415 C25.477,63.6755 29.0885,64.781 30.355,64.925 C31.6215,65.069 34.6375,65.162 35.4695,63.6435 C36.3015,62.125 34.8995,59.101 31.842,57.567 C29.3385,56.3115 26.213,55.309 23.6135,55.146 C22.585,55.0815 21.0485,54.897 19.847,54.74 C21.6255,50.5115 23.966,46.46 26.721,42.804 C28.2125,45.141 31.628,50.344 33.635,52.2335 C37.567,55.937 41.8185,54.7895 43.0825,52.474 C44.3465,50.159 42.1865,47.255 40.1325,46.022 C37.304,44.3235 33.9815,43.1885 30.776,42.5905 C29.751,42.399 28.404,42.1305 27.3995,41.927 C30.1855,38.4085 33.4845,35.4175 37.053,32.733 C37.094,33.1465 37.164,33.594 37.2805,34.0385 C37.765,35.8825 39.088,38.814 42.217,41.713 C44.894,44.1935 47.88,46.4415 51.5875,47.212 C55.4205,48.01 55.6565,45.2195 55.1285,43.7535 Z" fill="#04586B"></path>
                        <g transform="translate(46.000000, 0.000000)">
                            <path d="M14.6125,5.8475 C12.735,6.8995 7.335,10.34 5.155,12.859 C2.975,15.3785 1.497,18.3985 0.5635,21.5515 C-0.369,24.7045 0.5725,27.251 2.255,29.1455 C3.937,31.039 8.247,36.037 20.304,37.9855 C23.1505,38.4455 29.1175,37.172 30.887,37.1835 C34.015,37.2035 36.9535,38.002 37.519,38.387 C38.085,38.7725 37.8525,35.6655 36.223,32.877 C35.1355,31.0165 33.0655,27.9035 29.4075,27.0125 C27.3005,26.4995 25.243,25.8335 25.243,25.8335 C25.243,25.8335 29.645,24.2475 31.4055,23.2125 C34.677,21.2885 36.6805,18.479 37.5475,17.289 C38.4145,16.0985 39.101,13.9575 39.101,13.9575 C39.101,13.9575 31.7495,12.661 27.3425,13.154 C24.6395,13.456 21.9315,14.7215 21.9315,14.7215 C21.9315,14.7215 22.2665,11.6405 21.959,9.5345 C21.371,5.5165 19.742,2.7285 19.427,1.992 C19.112,1.2555 18.424,0.0165 18.424,0.0165 C18.424,0.0165 17.3815,4.296 14.6125,5.8475 Z" fill="#E2231A"></path>
                            <g transform="translate(2.000000, 4.000000)" fill="#FFFFFF">
                                <path d="M22.433,15.593 C22.947,15.465 23.288,15.7385 23.613,16.211 C23.947,16.6975 23.5105,17.232 23.168,17.525 C22.828,17.8185 21.8805,17.691 21.557,17.038 C21.2955,16.509 21.722,15.7705 22.433,15.593 Z"></path>
                                <path d="M16.0615,17.409 C16.539,17.291 16.8555,17.5445 17.157,17.9835 C17.4675,18.4345 17.0625,18.9315 16.7445,19.2035 C16.4285,19.476 15.548,19.358 15.248,18.7515 C15.005,18.2605 15.401,17.5745 16.0615,17.409 Z"></path>
                                <path d="M14.86,14.64 C14.4885,14.963 14.091,14.8795 13.6225,14.626 C13.141,14.365 13.277,13.738 13.4365,13.351 C13.594,12.965 14.432,12.6705 14.9745,13.074 C15.415,13.4025 15.373,14.193 14.86,14.64 Z"></path>
                                <path d="M9.3755,19.06 C9.8895,18.9325 10.23,19.206 10.555,19.6785 C10.889,20.1645 10.453,20.6995 10.11,20.9925 C9.77,21.2855 8.8225,21.158 8.499,20.5055 C8.2375,19.976 8.664,19.2385 9.3755,19.06 Z"></path>
                                <path d="M7.8485,14.328 C8.362,14.2 8.703,14.4735 9.028,14.9465 C9.362,15.4325 8.9255,15.9675 8.583,16.2605 C8.243,16.5535 7.2955,16.4265 6.972,15.7735 C6.7105,15.244 7.137,14.506 7.8485,14.328 Z"></path>
                                <path d="M22.0135,12.709 C21.8395,13.161 21.456,13.273 20.9315,13.2685 C20.3925,13.2645 20.22,12.657 20.18,12.247 C20.138,11.839 20.7305,11.195 21.3885,11.295 C21.923,11.376 22.2525,12.0825 22.0135,12.709 Z"></path>
                                <path d="M33.1105,13.0785 C32.9165,13.5835 32.4885,13.709 31.902,13.704 C31.3,13.699 31.1075,13.021 31.0625,12.563 C31.016,12.107 31.677,11.3875 32.4125,11.4995 C33.01,11.59 33.3775,12.3795 33.1105,13.0785 Z"></path>
                                <path d="M17.1995,1.5575 C17.042,1.9685 16.693,2.07 16.2165,2.0665 C15.727,2.0625 15.5705,1.5115 15.534,1.139 C15.4965,0.768 16.034,0.1835 16.632,0.2745 C17.1175,0.3475 17.417,0.9895 17.1995,1.5575 Z"></path>
                                <path d="M34.023,32.2535 C33.8655,32.664 33.5165,32.766 33.04,32.7625 C32.5505,32.7585 32.394,32.207 32.3575,31.8345 C32.32,31.464 32.8575,30.879 33.4555,30.97 C33.941,31.043 34.24,31.6845 34.023,32.2535 Z"></path>
                                <path d="M31.285,30.781 C29.7845,30.0755 28.044,29.989 26.325,30.053 C26.4265,29.972 26.528,29.884 26.6255,29.788 C27.1275,29.294 27.651,28.385 27.7495,27.8375 C27.8305,27.3895 27.8185,26.8775 27.399,26.6745 C26.9795,26.471 26.6875,26.6075 26.2835,26.9715 C25.603,27.5825 25.2535,28.467 25.081,29.1325 C24.983,29.5095 25.0105,29.853 25.073,30.121 C24.468,30.1605 23.8745,30.204 23.3035,30.2315 C22.1645,30.285 21.015,30.3295 19.8655,30.332 C20.1005,30.167 20.3665,29.9525 20.6055,29.694 C21.1175,29.141 21.633,28.143 21.7115,27.5525 C21.776,27.07 21.738,26.523 21.2795,26.3265 C20.821,26.129 20.5155,26.2905 20.101,26.6985 C19.4035,27.3855 19.0735,28.3485 18.922,29.0685 C18.8135,29.581 18.9145,30.027 19.029,30.326 C17.228,30.2935 15.4355,30.1295 13.6915,29.7065 C13.923,29.5755 14.179,29.409 14.4175,29.2045 C14.99,28.7145 15.6165,27.783 15.763,27.2055 C15.883,26.7335 15.9085,26.186 15.476,25.9375 C15.0435,25.689 14.721,25.813 14.2615,26.171 C13.4895,26.773 13.0505,27.691 12.816,28.389 C12.6825,28.7855 12.687,29.1555 12.7345,29.4465 C12.4525,29.361 12.1715,29.27 11.8925,29.1685 C10.8175,28.776 9.757,28.262 8.738,27.6515 C8.997,27.5135 9.2975,27.3265 9.576,27.088 C10.149,26.598 10.775,25.6665 10.9215,25.089 C11.0415,24.617 11.067,24.0695 10.6345,23.821 C10.202,23.5725 9.8795,23.6965 9.4205,24.0545 C8.6485,24.656 8.2095,25.5745 7.975,26.2725 C7.8745,26.5705 7.853,26.8525 7.868,27.098 C5.365,25.419 3.1765,23.1475 1.7465,20.59 C2.2305,20.423 2.716,20.262 3.2025,20.102 C3.2385,20.2145 3.285,20.3365 3.347,20.4545 C3.5755,20.8915 4.0785,21.5535 5.0345,22.1035 C5.853,22.5735 6.735,22.968 7.714,22.9475 C8.726,22.9265 8.6245,22.2095 8.407,21.871 C8.1895,21.5325 7.896,21.253 7.3705,20.9175 C6.851,20.585 5.9205,20.175 5.0535,19.915 C4.805,19.841 4.5395,19.7895 4.286,19.7545 C6.752,18.9725 9.241,18.2715 11.7405,17.606 C11.9175,18.377 12.2925,19.906 12.616,20.5425 C13.2785,21.845 14.466,21.942 15.0005,21.4685 C15.534,20.9945 15.2495,20.0575 14.8395,19.5555 C14.2745,18.8635 13.5325,18.271 12.771,17.8255 C12.5985,17.725 12.3895,17.6 12.198,17.484 C13.551,17.1255 14.9065,16.7755 16.2625,16.427 C16.5285,16.358 16.7945,16.291 17.061,16.223 C17.1805,16.518 17.4175,17.0255 17.7855,17.479 C18.259,18.062 19.1705,18.71 19.7415,18.8705 C20.2085,19.0025 20.7525,19.042 21.0115,18.6175 C21.2705,18.1925 21.155,17.869 20.8105,17.402 C20.2315,16.618 19.328,16.157 18.639,15.9055 C18.589,15.887 18.54,15.872 18.491,15.858 C20.3675,15.3835 22.2475,14.923 24.1355,14.4985 C24.258,14.797 24.4925,15.2895 24.8505,15.73 C25.324,16.3135 26.2355,16.9615 26.8065,17.122 C27.274,17.254 27.818,17.293 28.077,16.8685 C28.336,16.444 28.22,16.12 27.876,15.6535 C27.2965,14.869 26.393,14.4085 25.7045,14.1565 C25.69,14.151 25.675,14.1475 25.6605,14.143 C27.048,13.817 28.4875,13.506 29.8765,13.5505 C30.649,13.576 30.6125,12.3745 29.841,12.3495 C28.565,12.308 27.2415,12.566 25.9585,12.8555 C26.3605,12.3485 26.723,11.656 26.8005,11.206 C26.8765,10.762 26.8605,10.2555 26.4435,10.0575 C26.0265,9.8595 25.738,9.9975 25.3405,10.3605 C24.6725,10.972 24.334,11.8505 24.1685,12.5115 C24.0985,12.79 24.098,13.0485 24.1285,13.272 C21.814,13.7845 19.513,14.357 17.216,14.943 C17.4795,14.789 17.789,14.5415 18.017,14.1505 C18.3855,13.5165 18.785,12.585 18.729,11.6115 C18.6955,11.0325 18.577,10.7095 18.1065,10.5485 C17.6365,10.388 17.243,10.7665 16.968,11.166 C16.632,11.6555 16.346,12.7365 16.3545,13.4875 C16.363,14.2045 16.576,14.8605 16.6575,15.0855 C16.52,15.121 16.3815,15.156 16.244,15.191 C14.741,15.5765 13.239,15.9645 11.74,16.3625 C11.7995,16.184 11.861,16 11.915,15.8455 C12.208,14.999 12.389,14.0515 12.368,13.1455 C12.353,12.4875 11.9535,11.577 11.229,11.564 C10.5045,11.551 9.6525,12.4095 10.002,13.852 C10.159,14.5015 10.7835,15.7625 11.172,16.5135 C8.7325,17.166 6.3035,17.8535 3.897,18.618 C4.133,18.3815 4.3895,18.096 4.592,17.797 C5.098,17.047 5.5595,16.1405 5.751,15.5545 C5.945,14.962 5.995,14.5605 5.949,14.16 C5.903,13.7595 5.528,13.1405 4.731,13.765 C3.9605,14.369 3.5265,15.233 3.191,16.1145 C2.799,17.1455 2.8285,17.9765 2.928,18.459 C2.96,18.6155 3.0125,18.763 3.0645,18.886 C2.6215,19.0305 2.1785,19.175 1.737,19.326 C1.739,19.3155 1.7405,19.3045 1.742,19.2935 C1.867,18.5265 2.025,17.7645 2.214,17.011 C2.739,14.9165 3.495,12.798 4.7645,11.031 C4.944,10.781 5.1365,10.542 5.3395,10.3135 C5.4575,10.573 5.6415,10.9175 5.8965,11.2315 C6.3135,11.745 7.116,12.3155 7.619,12.4575 C8.03,12.573 8.5095,12.608 8.7375,12.2345 C8.965,11.8605 8.8635,11.5755 8.5605,11.1645 C8.05,10.4735 7.255,10.068 6.6485,9.846 C6.378,9.7475 6.121,9.7245 5.8985,9.735 C6.777,8.8905 7.7995,8.183 8.846,7.5335 C8.949,7.7525 9.1005,8.026 9.3055,8.279 C9.669,8.7265 10.3685,9.224 10.807,9.3475 C11.1655,9.4485 11.5835,9.479 11.782,9.153 C11.98,8.8275 11.892,8.5785 11.6275,8.2205 C11.1825,7.6185 10.4895,7.2645 9.9605,7.0715 C9.878,7.041 9.7975,7.0195 9.7185,7.004 C10.0145,6.828 10.3095,6.655 10.6005,6.483 C11.1495,6.1585 11.75,5.845 12.351,5.515 C12.4425,5.741 12.6235,6.131 12.9075,6.4815 C13.2715,6.9295 13.9705,7.427 14.4095,7.55 C14.768,7.651 15.186,7.6815 15.3845,7.3555 C15.5825,7.03 15.4945,6.7815 15.2295,6.423 C14.7845,5.821 14.092,5.4675 13.563,5.274 C13.3435,5.194 13.1355,5.1735 12.9505,5.1785 C13.879,4.6435 14.771,4.046 15.435,3.2815 C15.9415,2.6985 15.078,1.862 14.5705,2.4465 C13.196,4.029 10.796,4.9455 9.0365,6.0195 C6.9585,7.287 4.91,8.652 3.536,10.7045 C1.7015,13.446 0.749,16.939 0.4135,20.2005 C0.4125,20.209 0.414,20.2155 0.4135,20.224 C0.358,20.3705 0.357,20.5415 0.4465,20.716 C2.4875,24.693 6.34,28.0835 10.3935,29.8515 C13.901,31.3815 17.7125,31.6235 21.4915,31.5085 C23.236,31.4555 24.978,31.32 26.7235,31.297 C28.042,31.28 29.4825,31.259 30.7,31.8315 C31.398,32.158 31.986,31.11 31.285,30.781 Z"></path>
                            </g>
                        </g>
                    </g>
                </g>
                <g transform="translate(220.500000, 0.000000)">
                    <g transform="translate(26.000000, 69.500000)">
                        <path d="M19.382,38.883 C20.94,38.8395 22.4715,39.168 24.6895,40.113 C26.884,41.0475 30.223,43.1265 32.9435,45.328 C34.487,46.5765 35.895,48.247 36.8255,49.459 C36.9365,49.011 37.0445,48.562 37.1485,48.112 C38.1555,43.7585 38.664,39.364 38.5255,34.8965 C38.4865,33.624 40.4655,33.4485 40.505,34.7305 C40.6275,38.688 40.3015,42.616 39.5265,46.5 C39.2695,47.7855 38.9845,49.075 38.668,50.3605 C39.755,49.8895 41.2535,49.487 43.0085,49.6805 C45.8275,49.9915 49.644,50.8915 52.5425,53.3045 C54.2665,54.74 54.998,55.851 54.417,57.6835 C53.8355,59.516 51.754,59.869 49.8785,59.805 C47.584,59.7265 43.5645,58.1305 41.2485,56.3765 C39.852,55.319 38.7195,54.0615 37.945,53.0845 C36.9055,56.7015 35.5635,60.2395 33.7765,63.515 C33.4785,64.0605 33.1705,64.6005 32.854,65.1365 C34.554,65.523 36.9855,66.153 39.1945,67.0105 C43.1725,68.5545 48.7095,72.8285 49.947,75.0295 C51.236,77.322 50.1375,81.0765 45.655,80.0035 C41.2145,78.9405 37.78,75.463 36.3075,73.667 C34.9355,71.9935 33.0525,68.865 31.8465,66.7775 C29.557,70.3695 26.8565,73.716 23.85,76.7165 C25.6925,77.4665 28.56,79.1645 31.634,82.993 C34.4885,86.549 34.401,89.1475 34.0425,90.6005 C33.684,92.054 32.6875,92.736 31.4805,92.401 C29.711,91.9095 27.0595,89.853 24.885,86.4035 C23.3135,83.9115 22.493,80.5505 22.096,78.3625 C19.093,81.02 15.7855,83.1585 12.1975,85.0605 C8.72,86.904 5.1515,88.6085 1.515,90.116 C0.335,90.6055 -0.3345,88.735 0.846,88.2455 C3.6665,87.0765 6.4405,85.7785 9.1685,84.408 C13.3425,82.311 17.4225,79.989 20.8855,76.825 C19.06,76.3435 16.454,75.6205 14.992,75.0545 C11.656,73.7625 9.3085,70.803 8.7125,69.6765 C8.1165,68.55 6.9295,65.776 8.0385,64.4475 C9.1485,63.1195 12.4755,63.32 15.02,65.607 C17.1025,67.4795 19.1765,70.0235 20.277,72.385 C20.7125,73.3185 21.445,74.682 22.0295,75.7435 C25.3175,72.545 28.235,68.8865 30.6335,64.9875 C27.914,64.4515 21.823,63.1705 19.331,61.992 C14.448,59.6825 13.965,55.3055 15.659,53.2835 C17.3535,51.262 20.8455,52.2135 22.743,53.6755 C25.3575,55.6895 27.626,58.3685 29.353,61.1345 C29.905,62.0195 30.647,63.175 31.2025,64.0365 C33.4625,60.158 35.043,55.995 36.2395,51.693 C35.8395,51.806 35.397,51.9045 34.941,51.9575 C33.0475,52.1795 29.835,52.0175 25.9935,50.162 C22.708,48.575 19.5245,46.615 17.4545,43.4445 C15.313,40.1645 17.824,38.927 19.382,38.883 Z" fill="#04586B"></path>
                        <g transform="translate(13.500000, 0.000000)">
                            <path d="M39.172,19.944 C38.878,22.076 37.645,28.359 36.0955,31.3085 C34.546,34.258 32.273,36.7355 29.6785,38.7555 C27.0835,40.7745 24.3685,40.8275 21.9915,39.9525 C19.6145,39.0775 13.388,36.8885 7.174,26.3745 C5.707,23.892 4.715,17.872 4.0585,16.2285 C2.8985,13.3235 1.083,10.8795 0.518,10.493 C-0.0475,10.1075 2.93,9.1895 6.1205,9.6895 C8.2495,10.0225 11.9035,10.814 14.068,13.894 C15.315,15.6685 16.686,17.341 16.686,17.341 C16.686,17.341 16.556,12.664 16.8775,10.6475 C17.474,6.8995 19.359,4.009 20.151,2.767 C20.9425,1.5255 22.685,0.105 22.685,0.105 C22.685,0.105 26.575,6.476 27.7245,10.759 C28.4295,13.386 28.24,16.369 28.24,16.369 C28.24,16.369 30.9865,14.9325 33.06,14.4505 C37.015,13.531 40.205,14.0305 41.006,14.0555 C41.8065,14.0805 43.211,14.268 43.211,14.268 C43.211,14.268 39.606,16.8 39.172,19.944 Z" fill="#E2231A"></path>
                            <g transform="translate(2.500000, 4.500000)" fill="#FFFFFF">
                                <path d="M20.291,11.3165 C20.222,10.791 19.843,10.574 19.284,10.444 C18.71,10.31 18.371,10.912 18.2235,11.3375 C18.074,11.761 18.539,12.597 19.2645,12.6595 C19.8535,12.71 20.385,12.0435 20.291,11.3165 Z"></path>
                                <path d="M20.925,17.9115 C20.8615,17.4235 20.509,17.222 19.99,17.101 C19.457,16.977 19.142,17.5355 19.0045,17.931 C18.8665,18.324 19.298,19.101 19.972,19.159 C20.5185,19.206 21.0115,18.587 20.925,17.9115 Z"></path>
                                <path d="M23.9415,18.02 C23.777,18.4835 23.999,18.823 24.407,19.1665 C24.8255,19.5195 25.3595,19.1645 25.6615,18.875 C25.9635,18.587 25.932,17.699 25.358,17.342 C24.8915,17.0515 24.1705,17.379 23.9415,18.02 Z"></path>
                                <path d="M21.828,24.7395 C21.759,24.214 21.38,23.997 20.821,23.867 C20.247,23.733 19.9085,24.335 19.7605,24.76 C19.611,25.184 20.076,26.02 20.8015,26.0825 C21.3905,26.133 21.922,25.4665 21.828,24.7395 Z"></path>
                                <path d="M26.791,24.434 C26.722,23.9085 26.343,23.6915 25.784,23.5615 C25.21,23.4275 24.871,24.0295 24.7235,24.4545 C24.5745,24.878 25.039,25.7145 25.7645,25.777 C26.3535,25.8275 26.885,25.161 26.791,24.434 Z"></path>
                                <path d="M23.129,10.655 C22.7715,10.9815 22.807,11.3795 23.0025,11.867 C23.203,12.367 23.8315,12.306 24.228,12.1935 C24.623,12.083 25.0065,11.297 24.6735,10.721 C24.403,10.2525 23.6245,10.2035 23.129,10.655 Z"></path>
                                <path d="M18.735,0.458 C18.3355,0.823 18.375,1.2675 18.594,1.8115 C18.818,2.3705 19.52,2.302 19.9625,2.1765 C20.4045,2.0535 20.832,1.175 20.46,0.5315 C20.157,0.009 19.2885,-0.046 18.735,0.458 Z"></path>
                                <path d="M35.2675,11.0675 C34.943,11.3645 34.975,11.7255 35.153,12.168 C35.335,12.622 35.906,12.5665 36.266,12.465 C36.6255,12.365 36.973,11.6505 36.6705,11.127 C36.425,10.702 35.718,10.6575 35.2675,11.0675 Z"></path>
                                <path d="M0.55,6.6065 C0.225,6.9035 0.2575,7.2645 0.435,7.707 C0.6175,8.1615 1.188,8.106 1.5485,8.004 C1.9075,7.904 2.2555,7.19 1.953,6.666 C1.7065,6.241 1,6.197 0.55,6.6065 Z"></path>
                                <path d="M2.92,8.6175 C4.1245,9.757 4.84,11.3465 5.408,12.97 C5.4465,12.846 5.4915,12.7195 5.545,12.5935 C5.8225,11.946 6.477,11.127 6.9515,10.835 C7.3385,10.596 7.8195,10.4205 8.1625,10.737 C8.505,11.053 8.484,11.375 8.2935,11.8845 C7.9725,12.741 7.277,13.389 6.7205,13.7925 C6.405,14.0215 6.075,14.121 5.8025,14.1605 C5.987,14.7375 6.163,15.307 6.346,15.848 C6.7115,16.928 7.0895,18.0145 7.507,19.0855 C7.575,18.807 7.6775,18.481 7.8305,18.1635 C8.1585,17.4845 8.9,16.6415 9.421,16.3525 C9.847,16.116 10.3695,15.952 10.7205,16.307 C11.0715,16.662 11.033,17.005 10.804,17.5405 C10.4185,18.4405 9.643,19.099 9.028,19.5035 C8.59,19.7915 8.1385,19.86 7.818,19.863 C8.506,21.527 9.312,23.1365 10.343,24.6055 C10.3805,24.3425 10.442,24.0435 10.5455,23.7465 C10.7925,23.0345 11.431,22.111 11.9155,21.764 C12.311,21.48 12.8115,21.2565 13.2005,21.5685 C13.59,21.8805 13.592,22.2255 13.426,22.784 C13.1475,23.7225 12.453,24.466 11.889,24.9395 C11.568,25.208 11.222,25.3395 10.934,25.4015 C11.1165,25.633 11.3035,25.861 11.5,26.0835 C12.258,26.9415 13.123,27.7405 14.0635,28.467 C14.098,28.1755 14.162,27.827 14.2825,27.481 C14.5295,26.7685 15.168,25.8455 15.6525,25.4985 C16.048,25.2145 16.5485,24.9905 16.9375,25.303 C17.327,25.615 17.329,25.96 17.163,26.5185 C16.8845,27.4565 16.19,28.2005 15.626,28.6735 C15.385,28.8755 15.1305,28.9985 14.896,29.075 C17.373,30.792 20.2865,32.001 23.1895,32.399 C23.168,31.8875 23.1405,31.376 23.112,30.865 C22.9945,30.873 22.8635,30.874 22.7305,30.8595 C22.241,30.806 21.4405,30.579 20.5795,29.89 C19.8435,29.2995 19.154,28.622 18.8165,27.703 C18.4665,26.753 19.171,26.5865 19.566,26.6655 C19.961,26.7445 20.328,26.916 20.832,27.282 C21.331,27.6445 22.0525,28.3615 22.611,29.0735 C22.7705,29.2775 22.915,29.506 23.041,29.7295 C22.8685,27.1485 22.613,24.575 22.3205,22.005 C21.5385,22.1215 19.978,22.3305 19.267,22.262 C17.8125,22.1205 17.2885,21.05 17.5355,20.38 C17.7815,19.71 18.758,19.633 19.3755,19.8315 C20.225,20.105 21.0485,20.5795 21.741,21.126 C21.8975,21.2495 22.09,21.3985 22.2675,21.5345 C22.107,20.144 21.939,18.754 21.7685,17.3645 C21.7355,17.0915 21.7005,16.819 21.6675,16.5465 C21.3485,16.543 20.7895,16.5075 20.234,16.3305 C19.518,16.102 18.582,15.49 18.2235,15.017 C17.9305,14.6305 17.695,14.1375 17.996,13.7415 C18.297,13.346 18.6405,13.335 19.2005,13.4855 C20.142,13.739 20.9005,14.4115 21.3865,14.9605 C21.4215,15.0005 21.4535,15.041 21.4845,15.081 C21.242,13.161 20.9845,11.2425 20.69,9.33 C20.367,9.3245 19.8235,9.286 19.2825,9.114 C18.5665,8.8855 17.631,8.2735 17.2725,7.8005 C16.9795,7.414 16.744,6.921 17.045,6.525 C17.3455,6.1295 17.6895,6.1185 18.249,6.269 C19.191,6.522 19.9495,7.195 20.4355,7.744 C20.446,7.756 20.454,7.768 20.4645,7.7795 C20.262,6.369 20.026,4.915 19.477,3.6385 C19.172,2.9285 20.3035,2.524 20.6085,3.2335 C21.113,4.406 21.3555,5.7325 21.5545,7.0325 C21.8795,6.4735 22.393,5.8825 22.783,5.647 C23.1685,5.414 23.6465,5.244 23.9825,5.5605 C24.319,5.8765 24.2955,6.195 24.102,6.6975 C23.7775,7.543 23.0825,8.1785 22.528,8.574 C22.294,8.7405 22.054,8.835 21.834,8.8885 C22.201,11.231 22.5085,13.582 22.801,15.9345 C22.848,15.633 22.966,15.2545 23.247,14.9 C23.7025,14.3255 24.424,13.6135 25.351,13.3105 C25.903,13.1305 26.2465,13.1225 26.568,13.502 C26.8895,13.8815 26.6805,14.3855 26.409,14.7875 C26.076,15.2785 25.174,15.94 24.4715,16.2055 C23.8015,16.4595 23.112,16.5005 22.873,16.5065 C22.8905,16.648 22.908,16.789 22.9255,16.9305 C23.115,18.4705 23.302,20.0105 23.4785,21.5515 C23.6235,21.4305 23.772,21.306 23.8965,21.1995 C24.5775,20.618 25.3935,20.104 26.2445,19.7925 C26.8625,19.5665 27.8565,19.6065 28.133,20.276 C28.4095,20.946 27.9205,22.0525 26.4505,22.2535 C25.7885,22.344 24.386,22.2235 23.545,22.136 C23.828,24.6455 24.0745,27.1575 24.241,29.677 C24.375,29.371 24.547,29.0275 24.7515,28.7305 C25.2645,27.9855 25.9405,27.225 26.416,26.8325 C26.897,26.436 27.2525,26.242 27.642,26.139 C28.031,26.0355 28.745,26.1585 28.454,27.1285 C28.173,28.066 27.527,28.785 26.829,29.4195 C26.0125,30.1605 25.2275,30.4365 24.742,30.52 C24.585,30.5475 24.4275,30.552 24.294,30.549 C24.3215,31.0145 24.3485,31.4795 24.369,31.9455 C24.379,31.94 24.388,31.935 24.3975,31.9295 C25.0665,31.533 25.718,31.1075 26.351,30.6565 C28.1095,29.403 29.8055,27.927 30.9875,26.1 C31.155,25.8415 31.3065,25.575 31.4455,25.3025 C31.161,25.287 30.773,25.242 30.387,25.119 C29.7565,24.918 28.933,24.3795 28.6175,23.9625 C28.359,23.6215 28.152,23.188 28.417,22.8395 C28.682,22.491 28.9845,22.4815 29.4775,22.614 C30.3065,22.837 30.975,23.4295 31.4025,23.9135 C31.5935,24.129 31.7085,24.3605 31.78,24.571 C32.246,23.445 32.5315,22.2345 32.754,21.0235 C32.513,21.0075 32.202,20.9665 31.892,20.8675 C31.3425,20.692 30.6245,20.223 30.3495,19.8595 C30.1245,19.562 29.9435,19.184 30.1745,18.8805 C30.405,18.577 30.669,18.5685 31.0995,18.6835 C31.822,18.878 32.404,19.3945 32.777,19.8165 C32.835,19.882 32.8845,19.95 32.928,20.0175 C32.9835,19.6775 33.0375,19.34 33.0915,19.006 C33.193,18.3765 33.266,17.7035 33.353,17.023 C33.11,17.0205 32.68,16.9945 32.2505,16.8575 C31.7005,16.682 30.9825,16.213 30.7075,15.8495 C30.4825,15.5525 30.3015,15.174 30.5325,14.8705 C30.7635,14.567 31.027,14.5585 31.4575,14.674 C32.18,14.8685 32.7625,15.3845 33.135,15.8065 C33.29,15.982 33.385,16.168 33.4475,16.341 C33.6065,15.281 33.8375,14.233 34.307,13.336 C34.6655,12.652 35.759,13.15 35.4,13.836 C34.4285,15.693 34.451,18.2625 34.094,20.292 C33.6715,22.6895 33.149,25.0945 31.739,27.123 C29.856,29.831 26.9525,31.9925 24.0375,33.4955 C24.03,33.4995 24.0235,33.501 24.016,33.5045 C23.9,33.61 23.741,33.6725 23.5455,33.653 C19.098,33.2045 14.535,30.8545 11.41,27.726 C8.706,25.019 7.089,21.559 5.817,17.9985 C5.2295,16.355 4.7205,14.683 4.104,13.05 C3.639,11.8165 3.133,10.468 2.155,9.543 C1.596,9.0155 2.3575,8.086 2.92,8.6175 Z"></path>
                            </g>
                        </g>
                    </g>
                    <g>
                        <path d="M30.371,43.7535 C30.8995,42.287 31.764,40.981 33.453,39.2615 C35.124,37.5595 38.2785,35.209 41.32,33.4795 C43.046,32.4985 45.1155,31.797 46.583,31.3735 C46.206,31.107 45.8275,30.842 45.4465,30.5805 C41.761,28.0545 37.855,25.977 33.645,24.4755 C32.4465,24.048 33.0045,22.141 34.2135,22.572 C37.9425,23.902 41.4805,25.6395 44.814,27.7785 C45.9175,28.4865 47.013,29.223 48.0945,29.9865 C48.0525,28.8025 48.2255,27.2605 49.0455,25.697 C50.364,23.186 52.5945,19.961 55.899,18.143 C57.865,17.062 59.166,16.786 60.6595,17.9965 C62.1535,19.2065 61.723,21.273 60.9785,22.996 C60.068,25.1035 57.1155,28.263 54.6365,29.7795 C53.1425,30.693 51.559,31.289 50.366,31.6535 C53.3545,33.9415 56.1585,36.4815 58.556,39.341 C58.9555,39.817 59.3455,40.3015 59.7295,40.7915 C60.71,39.3495 62.1835,37.316 63.788,35.5725 C66.677,32.4325 72.677,28.837 75.178,28.488 C77.7825,28.1245 80.877,30.518 78.2425,34.2995 C75.6325,38.0455 71.1415,39.9745 68.932,40.6895 C66.873,41.3565 63.273,41.968 60.8895,42.3285 C63.3985,45.7715 65.528,49.5065 67.2245,53.4015 C68.595,51.9595 71.222,49.9095 75.9085,48.4445 C80.2615,47.0845 82.6485,48.1145 83.871,48.978 C85.0935,49.8415 85.3645,51.019 84.6115,52.0205 C83.508,53.4885 80.626,55.2065 76.621,55.9725 C73.727,56.5255 70.298,56.0635 68.1165,55.634 C69.495,59.3995 70.2785,63.2595 70.7395,67.294 C71.187,71.204 71.472,75.1485 71.548,79.085 C71.573,80.3625 69.587,80.303 69.5625,79.0255 C69.503,75.9725 69.307,72.916 69.0265,69.8765 C68.598,65.225 67.925,60.5785 66.243,56.2 C65.1285,57.724 63.504,59.8865 62.4435,61.0415 C60.023,63.6755 56.4115,64.781 55.1445,64.925 C53.8785,65.0685 50.8625,65.162 50.0305,63.6435 C49.1985,62.125 50.6005,59.101 53.658,57.567 C56.1615,56.3115 59.287,55.309 61.8865,55.146 C62.915,55.0815 64.451,54.897 65.653,54.74 C63.8745,50.5115 61.534,46.46 58.779,42.804 C57.2875,45.141 53.872,50.344 51.865,52.2335 C47.933,55.937 43.6815,54.7895 42.417,52.474 C41.1535,50.159 43.3135,47.255 45.3675,46.022 C48.1965,44.3235 51.5185,43.1885 54.724,42.5905 C55.749,42.399 57.096,42.1305 58.1005,41.927 C55.3145,38.4085 52.015,35.4175 48.447,32.733 C48.4055,33.1465 48.336,33.594 48.2195,34.0385 C47.7355,35.8825 46.412,38.814 43.283,41.713 C40.606,44.1935 37.6195,46.4415 33.9125,47.212 C30.0795,48.01 29.844,45.2195 30.371,43.7535 Z" fill="#04586B"></path>
                        <g>
                            <path d="M24.8875,5.8475 C26.765,6.8995 32.165,10.34 34.345,12.859 C36.525,15.3785 38.003,18.3985 38.9365,21.5515 C39.869,24.7045 38.927,27.251 37.245,29.1455 C35.563,31.039 31.253,36.037 19.196,37.9855 C16.3495,38.4455 10.3825,37.172 8.613,37.1835 C5.485,37.2035 2.5465,38.002 1.981,38.387 C1.415,38.7725 1.6475,35.6655 3.277,32.877 C4.3645,31.0165 6.434,27.9035 10.0925,27.0125 C12.199,26.4995 14.2565,25.8335 14.2565,25.8335 C14.2565,25.8335 9.855,24.2475 8.0945,23.2125 C4.823,21.2885 2.8195,18.479 1.9525,17.289 C1.0855,16.0985 0.399,13.9575 0.399,13.9575 C0.399,13.9575 7.7505,12.661 12.158,13.154 C14.8605,13.456 17.5685,14.7215 17.5685,14.7215 C17.5685,14.7215 17.2335,11.6405 17.541,9.5345 C18.129,5.5165 19.758,2.7285 20.073,1.992 C20.388,1.2555 21.076,0.0165 21.076,0.0165 C21.076,0.0165 22.1185,4.296 24.8875,5.8475 Z" fill="#E2231A"></path>
                            <g transform="translate(3.000000, 4.000000)" fill="#FFFFFF">
                                <path d="M12.067,15.593 C11.553,15.465 11.212,15.7385 10.887,16.211 C10.553,16.6975 10.9895,17.232 11.332,17.525 C11.672,17.8185 12.6195,17.691 12.943,17.038 C13.2045,16.509 12.778,15.7705 12.067,15.593 Z"></path>
                                <path d="M18.4385,17.409 C17.961,17.291 17.6445,17.5445 17.343,17.9835 C17.0325,18.4345 17.4375,18.9315 17.7555,19.2035 C18.0715,19.476 18.952,19.358 19.252,18.7515 C19.495,18.2605 19.0985,17.5745 18.4385,17.409 Z"></path>
                                <path d="M19.64,14.64 C20.0115,14.963 20.409,14.8795 20.8775,14.626 C21.3585,14.365 21.223,13.738 21.0635,13.351 C20.9065,12.965 20.068,12.6705 19.5255,13.074 C19.085,13.4025 19.127,14.193 19.64,14.64 Z"></path>
                                <path d="M25.1245,19.06 C24.6105,18.9325 24.2695,19.206 23.945,19.6785 C23.611,20.1645 24.047,20.6995 24.39,20.9925 C24.73,21.2855 25.6775,21.158 26.0005,20.5055 C26.2625,19.976 25.836,19.2385 25.1245,19.06 Z"></path>
                                <path d="M26.6515,14.328 C26.138,14.2 25.797,14.4735 25.472,14.9465 C25.138,15.4325 25.5745,15.9675 25.917,16.2605 C26.257,16.5535 27.2045,16.4265 27.528,15.7735 C27.789,15.244 27.363,14.506 26.6515,14.328 Z"></path>
                                <path d="M12.4865,12.709 C12.6605,13.161 13.044,13.273 13.5685,13.2685 C14.1075,13.2645 14.28,12.657 14.32,12.247 C14.3615,11.839 13.7695,11.195 13.1115,11.295 C12.5765,11.376 12.247,12.0825 12.4865,12.709 Z"></path>
                                <path d="M1.3895,13.0785 C1.5835,13.5835 2.0115,13.709 2.598,13.704 C3.2,13.699 3.3925,13.021 3.4375,12.563 C3.484,12.107 2.823,11.3875 2.0875,11.4995 C1.49,11.59 1.122,12.3795 1.3895,13.0785 Z"></path>
                                <path d="M17.301,1.5575 C17.458,1.9685 17.807,2.07 18.2835,2.0665 C18.773,2.0625 18.9295,1.5115 18.966,1.139 C19.0035,0.768 18.466,0.1835 17.868,0.2745 C17.383,0.3475 17.083,0.9895 17.301,1.5575 Z"></path>
                                <path d="M0.477,32.2535 C0.6345,32.664 0.9835,32.766 1.46,32.7625 C1.9495,32.7585 2.106,32.207 2.1425,31.8345 C2.18,31.464 1.6425,30.879 1.0445,30.97 C0.559,31.043 0.26,31.6845 0.477,32.2535 Z"></path>
                                <path d="M3.215,30.781 C4.7155,30.0755 6.456,29.989 8.175,30.053 C8.0735,29.972 7.972,29.884 7.8745,29.788 C7.3725,29.294 6.849,28.385 6.7505,27.8375 C6.6695,27.3895 6.6815,26.8775 7.1005,26.6745 C7.5205,26.471 7.8125,26.6075 8.2165,26.9715 C8.897,27.5825 9.2465,28.467 9.419,29.1325 C9.517,29.5095 9.4895,29.853 9.427,30.121 C10.032,30.1605 10.6255,30.204 11.1965,30.2315 C12.3355,30.285 13.485,30.3295 14.6345,30.332 C14.3995,30.167 14.1335,29.9525 13.8945,29.694 C13.382,29.141 12.867,28.143 12.7885,27.5525 C12.724,27.07 12.762,26.523 13.2205,26.3265 C13.679,26.129 13.984,26.2905 14.399,26.6985 C15.0965,27.3855 15.4265,28.3485 15.578,29.0685 C15.6865,29.581 15.5855,30.027 15.471,30.326 C17.272,30.2935 19.0645,30.1295 20.8085,29.7065 C20.577,29.5755 20.3215,29.409 20.0825,29.2045 C19.5095,28.7145 18.8835,27.783 18.737,27.2055 C18.617,26.7335 18.5915,26.186 19.024,25.9375 C19.4565,25.689 19.779,25.813 20.238,26.171 C21.0105,26.773 21.4495,27.691 21.684,28.389 C21.8175,28.7855 21.813,29.1555 21.7655,29.4465 C22.0475,29.361 22.3285,29.27 22.6075,29.1685 C23.6825,28.776 24.7425,28.262 25.762,27.6515 C25.503,27.5135 25.2025,27.3265 24.924,27.088 C24.351,26.598 23.725,25.6665 23.5785,25.089 C23.4585,24.617 23.433,24.0695 23.8655,23.821 C24.298,23.5725 24.6205,23.6965 25.0795,24.0545 C25.8515,24.656 26.2905,25.5745 26.525,26.2725 C26.6255,26.5705 26.647,26.8525 26.632,27.098 C29.135,25.419 31.3235,23.1475 32.7535,20.59 C32.2695,20.423 31.784,20.262 31.2975,20.102 C31.2615,20.2145 31.215,20.3365 31.153,20.4545 C30.9245,20.8915 30.4215,21.5535 29.4655,22.1035 C28.647,22.5735 27.7645,22.968 26.786,22.9475 C25.7735,22.9265 25.8755,22.2095 26.093,21.871 C26.3105,21.5325 26.604,21.253 27.1295,20.9175 C27.649,20.585 28.5795,20.175 29.4465,19.915 C29.6945,19.841 29.9605,19.7895 30.214,19.7545 C27.748,18.9725 25.259,18.2715 22.7595,17.606 C22.5825,18.377 22.2075,19.906 21.8835,20.5425 C21.2215,21.845 20.034,21.942 19.4995,21.4685 C18.966,20.9945 19.2505,20.0575 19.6605,19.5555 C20.2255,18.8635 20.9675,18.271 21.729,17.8255 C21.901,17.725 22.11,17.6 22.302,17.484 C20.949,17.1255 19.5935,16.7755 18.2375,16.427 C17.9715,16.358 17.7055,16.291 17.439,16.223 C17.3195,16.518 17.0825,17.0255 16.7145,17.479 C16.241,18.062 15.3295,18.71 14.7585,18.8705 C14.2915,19.0025 13.747,19.042 13.488,18.6175 C13.2295,18.1925 13.345,17.869 13.689,17.402 C14.2685,16.618 15.172,16.157 15.861,15.9055 C15.911,15.887 15.9595,15.872 16.009,15.858 C14.1325,15.3835 12.2525,14.923 10.3645,14.4985 C10.242,14.797 10.0075,15.2895 9.6495,15.73 C9.176,16.3135 8.2645,16.9615 7.6935,17.122 C7.226,17.254 6.682,17.293 6.423,16.8685 C6.164,16.444 6.28,16.12 6.624,15.6535 C7.2035,14.869 8.1065,14.4085 8.7955,14.1565 C8.81,14.151 8.825,14.1475 8.8395,14.143 C7.452,13.817 6.0125,13.506 4.623,13.5505 C3.851,13.576 3.8875,12.3745 4.659,12.3495 C5.935,12.308 7.2585,12.566 8.5415,12.8555 C8.1395,12.3485 7.777,11.656 7.6995,11.206 C7.6235,10.762 7.6395,10.2555 8.0565,10.0575 C8.4735,9.8595 8.762,9.9975 9.1595,10.3605 C9.8275,10.972 10.166,11.8505 10.3315,12.5115 C10.4015,12.79 10.402,13.0485 10.3715,13.272 C12.686,13.7845 14.987,14.357 17.284,14.943 C17.0205,14.789 16.711,14.5415 16.483,14.1505 C16.1145,13.5165 15.715,12.585 15.771,11.6115 C15.8045,11.0325 15.923,10.7095 16.3935,10.5485 C16.8635,10.388 17.257,10.7665 17.532,11.166 C17.868,11.6555 18.154,12.7365 18.1455,13.4875 C18.137,14.2045 17.924,14.8605 17.8425,15.0855 C17.98,15.121 18.1185,15.156 18.256,15.191 C19.759,15.5765 21.261,15.9645 22.76,16.3625 C22.7005,16.184 22.639,16 22.585,15.8455 C22.292,14.999 22.111,14.0515 22.132,13.1455 C22.147,12.4875 22.5465,11.577 23.271,11.564 C23.9955,11.551 24.8475,12.4095 24.498,13.852 C24.341,14.5015 23.7165,15.7625 23.328,16.5135 C25.7675,17.166 28.1965,17.8535 30.603,18.618 C30.367,18.3815 30.1105,18.096 29.908,17.797 C29.402,17.047 28.9405,16.1405 28.749,15.5545 C28.555,14.962 28.5045,14.5605 28.551,14.16 C28.597,13.7595 28.9715,13.1405 29.769,13.765 C30.5395,14.369 30.973,15.233 31.309,16.1145 C31.701,17.1455 31.6715,17.9765 31.5715,18.459 C31.54,18.6155 31.4875,18.763 31.435,18.886 C31.8785,19.0305 32.3215,19.175 32.763,19.326 C32.761,19.3155 32.76,19.3045 32.758,19.2935 C32.633,18.5265 32.475,17.7645 32.286,17.011 C31.7605,14.9165 31.005,12.798 29.7355,11.031 C29.556,10.781 29.3635,10.542 29.1605,10.3135 C29.0425,10.573 28.8585,10.9175 28.6035,11.2315 C28.186,11.745 27.3845,12.3155 26.881,12.4575 C26.47,12.573 25.9905,12.608 25.7625,12.2345 C25.535,11.8605 25.6365,11.5755 25.9395,11.1645 C26.45,10.4735 27.2445,10.068 27.851,9.846 C28.1215,9.7475 28.379,9.7245 28.601,9.735 C27.723,8.8905 26.7005,8.183 25.6545,7.5335 C25.551,7.7525 25.3995,8.026 25.1945,8.279 C24.831,8.7265 24.1315,9.224 23.693,9.3475 C23.3345,9.4485 22.9165,9.479 22.718,9.153 C22.5195,8.827 22.608,8.5785 22.8725,8.2205 C23.3175,7.6185 24.0105,7.2645 24.5395,7.0715 C24.6215,7.041 24.7025,7.0195 24.7815,7.004 C24.4855,6.828 24.1905,6.655 23.8995,6.483 C23.3505,6.1585 22.75,5.845 22.149,5.515 C22.0575,5.741 21.8765,6.131 21.592,6.4815 C21.2285,6.9295 20.5295,7.427 20.091,7.55 C19.732,7.651 19.314,7.6815 19.116,7.3555 C18.9175,7.03 19.0055,6.7815 19.2705,6.423 C19.7155,5.821 20.408,5.4675 20.937,5.274 C21.1565,5.194 21.3645,5.1735 21.5495,5.1785 C20.621,4.6435 19.729,4.046 19.065,3.2815 C18.5585,2.6985 19.4215,1.862 19.9295,2.4465 C21.304,4.029 23.704,4.9455 25.4635,6.0195 C27.5415,7.287 29.5905,8.652 30.964,10.7045 C32.7985,13.446 33.751,16.939 34.0865,20.2005 C34.0875,20.209 34.086,20.2155 34.0865,20.224 C34.142,20.3705 34.143,20.5415 34.0535,20.716 C32.0125,24.693 28.16,28.0835 24.106,29.8515 C20.599,31.3815 16.7875,31.6235 13.0085,31.5085 C11.264,31.4555 9.5215,31.32 7.7765,31.297 C6.458,31.28 5.0175,31.259 3.8,31.8315 C3.102,32.158 2.514,31.11 3.215,30.781 Z"></path>
                            </g>
                        </g>
                    </g>
                </g>
            </g>
        </g>
    </g>
</svg>